%TF.GenerationSoftware,KiCad,Pcbnew,9.0.6*%
%TF.CreationDate,2025-11-19T22:56:00-05:00*%
%TF.ProjectId,CubeTrackerPCB,43756265-5472-4616-936b-65725043422e,rev?*%
%TF.SameCoordinates,Original*%
%TF.FileFunction,Copper,L1,Top*%
%TF.FilePolarity,Positive*%
%FSLAX46Y46*%
G04 Gerber Fmt 4.6, Leading zero omitted, Abs format (unit mm)*
G04 Created by KiCad (PCBNEW 9.0.6) date 2025-11-19 22:56:00*
%MOMM*%
%LPD*%
G01*
G04 APERTURE LIST*
G04 Aperture macros list*
%AMRoundRect*
0 Rectangle with rounded corners*
0 $1 Rounding radius*
0 $2 $3 $4 $5 $6 $7 $8 $9 X,Y pos of 4 corners*
0 Add a 4 corners polygon primitive as box body*
4,1,4,$2,$3,$4,$5,$6,$7,$8,$9,$2,$3,0*
0 Add four circle primitives for the rounded corners*
1,1,$1+$1,$2,$3*
1,1,$1+$1,$4,$5*
1,1,$1+$1,$6,$7*
1,1,$1+$1,$8,$9*
0 Add four rect primitives between the rounded corners*
20,1,$1+$1,$2,$3,$4,$5,0*
20,1,$1+$1,$4,$5,$6,$7,0*
20,1,$1+$1,$6,$7,$8,$9,0*
20,1,$1+$1,$8,$9,$2,$3,0*%
G04 Aperture macros list end*
%TA.AperFunction,SMDPad,CuDef*%
%ADD10RoundRect,0.225000X-0.225000X-0.250000X0.225000X-0.250000X0.225000X0.250000X-0.225000X0.250000X0*%
%TD*%
%TA.AperFunction,SMDPad,CuDef*%
%ADD11RoundRect,0.087500X0.087500X-0.207500X0.087500X0.207500X-0.087500X0.207500X-0.087500X-0.207500X0*%
%TD*%
%TA.AperFunction,SMDPad,CuDef*%
%ADD12RoundRect,0.087500X0.207500X-0.087500X0.207500X0.087500X-0.207500X0.087500X-0.207500X-0.087500X0*%
%TD*%
%TA.AperFunction,SMDPad,CuDef*%
%ADD13RoundRect,0.200000X0.200000X0.275000X-0.200000X0.275000X-0.200000X-0.275000X0.200000X-0.275000X0*%
%TD*%
%TA.AperFunction,ComponentPad*%
%ADD14R,1.508000X1.508000*%
%TD*%
%TA.AperFunction,ComponentPad*%
%ADD15C,1.508000*%
%TD*%
%TA.AperFunction,ComponentPad*%
%ADD16C,3.000000*%
%TD*%
%TA.AperFunction,SMDPad,CuDef*%
%ADD17RoundRect,0.225000X0.225000X0.250000X-0.225000X0.250000X-0.225000X-0.250000X0.225000X-0.250000X0*%
%TD*%
%TA.AperFunction,SMDPad,CuDef*%
%ADD18RoundRect,0.200000X-0.200000X-0.275000X0.200000X-0.275000X0.200000X0.275000X-0.200000X0.275000X0*%
%TD*%
%TA.AperFunction,ComponentPad*%
%ADD19C,1.524000*%
%TD*%
%TA.AperFunction,ViaPad*%
%ADD20C,0.600000*%
%TD*%
%TA.AperFunction,Conductor*%
%ADD21C,0.200000*%
%TD*%
G04 APERTURE END LIST*
D10*
%TO.P,C2,1*%
%TO.N,GND*%
X161450000Y-58700000D03*
%TO.P,C2,2*%
%TO.N,3.3V*%
X163000000Y-58700000D03*
%TD*%
D11*
%TO.P,U2,1,AP_SDO/AP_AD0*%
%TO.N,3.3V*%
X161475000Y-64865000D03*
%TO.P,U2,2,RESV_2*%
%TO.N,unconnected-(U2-RESV_2-Pad2)*%
X161975000Y-64865000D03*
%TO.P,U2,3,RESV_3*%
%TO.N,unconnected-(U2-RESV_3-Pad3)*%
X162475000Y-64865000D03*
%TO.P,U2,4,INT1/INT*%
%TO.N,ICMINT*%
X162975000Y-64865000D03*
D12*
%TO.P,U2,5,VDDIO*%
%TO.N,3.3V*%
X163140000Y-64200000D03*
%TO.P,U2,6,GND*%
%TO.N,GND*%
X163140000Y-63700000D03*
%TO.P,U2,7,RESV_7*%
X163140000Y-63200000D03*
D11*
%TO.P,U2,8,VDD*%
%TO.N,3.3V*%
X162975000Y-62535000D03*
%TO.P,U2,9,INT2/FSYNC/CLKIN*%
%TO.N,GND*%
X162475000Y-62535000D03*
%TO.P,U2,10,RESV_10*%
%TO.N,unconnected-(U2-RESV_10-Pad10)*%
X161975000Y-62535000D03*
%TO.P,U2,11,RESV_11*%
%TO.N,GND*%
X161475000Y-62535000D03*
D12*
%TO.P,U2,12,AP_CS*%
%TO.N,3.3V*%
X161310000Y-63200000D03*
%TO.P,U2,13,AP_SCL/AP_SCLK*%
%TO.N,SCL*%
X161310000Y-63700000D03*
%TO.P,U2,14,AP_SDA/AP_SDIO/AP_SDI*%
%TO.N,SDA*%
X161310000Y-64200000D03*
%TD*%
D13*
%TO.P,R2,1*%
%TO.N,3.3V*%
X158325000Y-60900000D03*
%TO.P,R2,2*%
%TO.N,SDA*%
X156675000Y-60900000D03*
%TD*%
D14*
%TO.P,U3,1,GND*%
%TO.N,GND*%
X158190000Y-51512500D03*
D15*
%TO.P,U3,2,VCC_IN*%
%TO.N,3.3V*%
X160730000Y-51512500D03*
%TO.P,U3,3,SCL*%
%TO.N,SCL*%
X163270000Y-51512500D03*
%TO.P,U3,4,SDA*%
%TO.N,SDA*%
X165810000Y-51512500D03*
D16*
%TO.P,U3,S1*%
%TO.N,N/C*%
X151000000Y-52012500D03*
%TO.P,U3,S2*%
X173000000Y-52012500D03*
%TO.P,U3,S3*%
X173000000Y-74012500D03*
%TO.P,U3,S4*%
X151000000Y-74012500D03*
%TD*%
D17*
%TO.P,C1,1*%
%TO.N,3.3V*%
X163000000Y-66800000D03*
%TO.P,C1,2*%
%TO.N,GND*%
X161450000Y-66800000D03*
%TD*%
D18*
%TO.P,R1,1*%
%TO.N,SCL*%
X156675000Y-58300000D03*
%TO.P,R1,2*%
%TO.N,3.3V*%
X158325000Y-58300000D03*
%TD*%
D17*
%TO.P,C3,1*%
%TO.N,3.3V*%
X163000000Y-60700000D03*
%TO.P,C3,2*%
%TO.N,GND*%
X161450000Y-60700000D03*
%TD*%
D19*
%TO.P,U1,1,GPIO26/ADC0/A0*%
%TO.N,unconnected-(U1-GPIO26{slash}ADC0{slash}A0-Pad1)*%
X154480000Y-70720000D03*
%TO.P,U1,2,GPIO27/ADC1/A1*%
%TO.N,unconnected-(U1-GPIO27{slash}ADC1{slash}A1-Pad2)*%
X154480000Y-68180000D03*
%TO.P,U1,3,GPIO28/ADC2/A2*%
%TO.N,unconnected-(U1-GPIO28{slash}ADC2{slash}A2-Pad3)*%
X154480000Y-65640000D03*
%TO.P,U1,4,GPIO29/ADC3/A3*%
%TO.N,unconnected-(U1-GPIO29{slash}ADC3{slash}A3-Pad4)*%
X154480000Y-63100000D03*
%TO.P,U1,5,GPIO6/SDA*%
%TO.N,SDA*%
X154480000Y-60560000D03*
%TO.P,U1,6,GPIO7/SCL*%
%TO.N,SCL*%
X154480000Y-58020000D03*
%TO.P,U1,7,GPIO0/TX*%
%TO.N,ICMINT*%
X154480000Y-55480000D03*
%TO.P,U1,8,GPIO1/RX*%
%TO.N,unconnected-(U1-GPIO1{slash}RX-Pad8)*%
X169720000Y-55480000D03*
%TO.P,U1,9,GPIO2/SCK*%
%TO.N,unconnected-(U1-GPIO2{slash}SCK-Pad9)*%
X169720000Y-58020000D03*
%TO.P,U1,10,GPIO4/MISO*%
%TO.N,unconnected-(U1-GPIO4{slash}MISO-Pad10)*%
X169720000Y-60560000D03*
%TO.P,U1,11,GPIO3/MOSI*%
%TO.N,unconnected-(U1-GPIO3{slash}MOSI-Pad11)*%
X169720000Y-63100000D03*
%TO.P,U1,12,3V3*%
%TO.N,3.3V*%
X169720000Y-65640000D03*
%TO.P,U1,13,GND*%
%TO.N,GND*%
X169720000Y-68180000D03*
%TO.P,U1,14,VBUS*%
%TO.N,unconnected-(U1-VBUS-Pad14)*%
X169720000Y-70720000D03*
%TD*%
D20*
%TO.N,GND*%
X162125000Y-61600000D03*
X161425000Y-68100000D03*
%TO.N,SDA*%
X161330000Y-55800000D03*
X156700000Y-59900000D03*
%TO.N,ICMINT*%
X160900000Y-65700000D03*
X162800000Y-65700000D03*
%TD*%
D21*
%TO.N,GND*%
X161450000Y-60700000D02*
X161450000Y-62510000D01*
X162063152Y-61600000D02*
X162125000Y-61600000D01*
X162793152Y-63200000D02*
X162475000Y-62881848D01*
X162125000Y-61600000D02*
X162125000Y-61375000D01*
X161475000Y-62535000D02*
X161475000Y-62188152D01*
X161450000Y-68075000D02*
X161425000Y-68100000D01*
X162475000Y-61950000D02*
X162475000Y-62535000D01*
X162125000Y-61375000D02*
X161450000Y-60700000D01*
X163140000Y-63700000D02*
X163140000Y-63200000D01*
X162125000Y-61600000D02*
X162475000Y-61950000D01*
X162475000Y-62881848D02*
X162475000Y-62535000D01*
X161450000Y-58700000D02*
X161450000Y-60700000D01*
X161475000Y-62188152D02*
X162063152Y-61600000D01*
X161450000Y-66800000D02*
X161450000Y-68075000D01*
X163140000Y-63200000D02*
X162793152Y-63200000D01*
%TO.N,3.3V*%
X163321848Y-62535000D02*
X163736000Y-62949152D01*
X162975000Y-62535000D02*
X163321848Y-62535000D01*
X163451000Y-66349000D02*
X163451000Y-64350000D01*
X163736000Y-63950848D02*
X163486848Y-64200000D01*
X160730000Y-51512500D02*
X160730000Y-56430000D01*
X158325000Y-58300000D02*
X158325000Y-60900000D01*
X169660000Y-65640000D02*
X168500000Y-66800000D01*
X163000000Y-60700000D02*
X163000000Y-62510000D01*
X161800000Y-63200000D02*
X161310000Y-63200000D01*
X168500000Y-66800000D02*
X163000000Y-66800000D01*
X163000000Y-58920000D02*
X163000000Y-58700000D01*
X161475000Y-65275000D02*
X163000000Y-66800000D01*
X163000000Y-66800000D02*
X163451000Y-66349000D01*
X163000000Y-58700000D02*
X163000000Y-60700000D01*
X163736000Y-62949152D02*
X163736000Y-63950848D01*
X162224000Y-57924000D02*
X163000000Y-58700000D01*
X169720000Y-65640000D02*
X163000000Y-58920000D01*
X163140000Y-64200000D02*
X162800000Y-64200000D01*
X158325000Y-58300000D02*
X158701000Y-57924000D01*
X163486848Y-64200000D02*
X163140000Y-64200000D01*
X169720000Y-65640000D02*
X169660000Y-65640000D01*
X162544000Y-63944000D02*
X161800000Y-63200000D01*
X161475000Y-64865000D02*
X161475000Y-65275000D01*
X163451000Y-64350000D02*
X163301000Y-64200000D01*
X162769152Y-64176000D02*
X162544000Y-63950848D01*
X162800000Y-64200000D02*
X162776000Y-64176000D01*
X162776000Y-64176000D02*
X162769152Y-64176000D01*
X162544000Y-63950848D02*
X162544000Y-63944000D01*
X160730000Y-56430000D02*
X163000000Y-58700000D01*
X158701000Y-57924000D02*
X162224000Y-57924000D01*
%TO.N,SDA*%
X161310000Y-64200000D02*
X159500000Y-64200000D01*
X154480000Y-60560000D02*
X156335000Y-60560000D01*
X161600000Y-55722500D02*
X165810000Y-51512500D01*
X156700000Y-59900000D02*
X156675000Y-59925000D01*
X156675000Y-61375000D02*
X156675000Y-60900000D01*
X161330000Y-55800000D02*
X161407500Y-55722500D01*
X161407500Y-55722500D02*
X161600000Y-55722500D01*
X159500000Y-64200000D02*
X156675000Y-61375000D01*
X156675000Y-59925000D02*
X156675000Y-60900000D01*
X156335000Y-60560000D02*
X156675000Y-60900000D01*
%TO.N,SCL*%
X163270000Y-51512500D02*
X162215000Y-50457500D01*
X156675000Y-58300000D02*
X157624000Y-59249000D01*
X154480000Y-58020000D02*
X156395000Y-58020000D01*
X162215000Y-50457500D02*
X160293004Y-50457500D01*
X157624000Y-61388064D02*
X159935936Y-63700000D01*
X159245000Y-55730000D02*
X156675000Y-58300000D01*
X157624000Y-59249000D02*
X157624000Y-61388064D01*
X160293004Y-50457500D02*
X159245000Y-51505504D01*
X156395000Y-58020000D02*
X156675000Y-58300000D01*
X159935936Y-63700000D02*
X161310000Y-63700000D01*
X159245000Y-51505504D02*
X159245000Y-55730000D01*
%TO.N,ICMINT*%
X162975000Y-64865000D02*
X162975000Y-65525000D01*
X154039690Y-61623000D02*
X153417000Y-61000310D01*
X153417000Y-56543000D02*
X154480000Y-55480000D01*
X153417000Y-61000310D02*
X153417000Y-56543000D01*
X162975000Y-65525000D02*
X162800000Y-65700000D01*
X158583310Y-65700000D02*
X154506310Y-61623000D01*
X160900000Y-65700000D02*
X158583310Y-65700000D01*
X154506310Y-61623000D02*
X154039690Y-61623000D01*
%TD*%
M02*
