%TF.GenerationSoftware,KiCad,Pcbnew,9.0.6*%
%TF.CreationDate,2025-11-19T22:56:00-05:00*%
%TF.ProjectId,CubeTrackerPCB,43756265-5472-4616-936b-65725043422e,rev?*%
%TF.SameCoordinates,Original*%
%TF.FileFunction,Copper,L2,Bot*%
%TF.FilePolarity,Positive*%
%FSLAX46Y46*%
G04 Gerber Fmt 4.6, Leading zero omitted, Abs format (unit mm)*
G04 Created by KiCad (PCBNEW 9.0.6) date 2025-11-19 22:56:00*
%MOMM*%
%LPD*%
G01*
G04 APERTURE LIST*
G04 Aperture macros list*
%AMRoundRect*
0 Rectangle with rounded corners*
0 $1 Rounding radius*
0 $2 $3 $4 $5 $6 $7 $8 $9 X,Y pos of 4 corners*
0 Add a 4 corners polygon primitive as box body*
4,1,4,$2,$3,$4,$5,$6,$7,$8,$9,$2,$3,0*
0 Add four circle primitives for the rounded corners*
1,1,$1+$1,$2,$3*
1,1,$1+$1,$4,$5*
1,1,$1+$1,$6,$7*
1,1,$1+$1,$8,$9*
0 Add four rect primitives between the rounded corners*
20,1,$1+$1,$2,$3,$4,$5,0*
20,1,$1+$1,$4,$5,$6,$7,0*
20,1,$1+$1,$6,$7,$8,$9,0*
20,1,$1+$1,$8,$9,$2,$3,0*%
G04 Aperture macros list end*
%TA.AperFunction,ComponentPad*%
%ADD10R,1.508000X1.508000*%
%TD*%
%TA.AperFunction,ComponentPad*%
%ADD11C,1.508000*%
%TD*%
%TA.AperFunction,ComponentPad*%
%ADD12C,3.000000*%
%TD*%
%TA.AperFunction,SMDPad,CuDef*%
%ADD13RoundRect,0.152400X1.063600X0.609600X-1.063600X0.609600X-1.063600X-0.609600X1.063600X-0.609600X0*%
%TD*%
%TA.AperFunction,ComponentPad*%
%ADD14C,1.524000*%
%TD*%
%TA.AperFunction,SMDPad,CuDef*%
%ADD15RoundRect,0.152400X-1.063600X-0.609600X1.063600X-0.609600X1.063600X0.609600X-1.063600X0.609600X0*%
%TD*%
%TA.AperFunction,ViaPad*%
%ADD16C,0.600000*%
%TD*%
%TA.AperFunction,Conductor*%
%ADD17C,0.200000*%
%TD*%
G04 APERTURE END LIST*
D10*
%TO.P,U3,1,GND*%
%TO.N,GND*%
X158190000Y-51512500D03*
D11*
%TO.P,U3,2,VCC_IN*%
%TO.N,3.3V*%
X160730000Y-51512500D03*
%TO.P,U3,3,SCL*%
%TO.N,SCL*%
X163270000Y-51512500D03*
%TO.P,U3,4,SDA*%
%TO.N,SDA*%
X165810000Y-51512500D03*
D12*
%TO.P,U3,S1*%
%TO.N,N/C*%
X151000000Y-52012500D03*
%TO.P,U3,S2*%
X173000000Y-52012500D03*
%TO.P,U3,S3*%
X173000000Y-74012500D03*
%TO.P,U3,S4*%
X151000000Y-74012500D03*
%TD*%
D13*
%TO.P,U1,1,GPIO26/ADC0/A0*%
%TO.N,unconnected-(U1-GPIO26{slash}ADC0{slash}A0-Pad1)*%
X153645000Y-70720000D03*
D14*
X154480000Y-70720000D03*
D13*
%TO.P,U1,2,GPIO27/ADC1/A1*%
%TO.N,unconnected-(U1-GPIO27{slash}ADC1{slash}A1-Pad2)*%
X153645000Y-68180000D03*
D14*
X154480000Y-68180000D03*
D13*
%TO.P,U1,3,GPIO28/ADC2/A2*%
%TO.N,unconnected-(U1-GPIO28{slash}ADC2{slash}A2-Pad3)*%
X153645000Y-65640000D03*
D14*
X154480000Y-65640000D03*
D13*
%TO.P,U1,4,GPIO29/ADC3/A3*%
%TO.N,unconnected-(U1-GPIO29{slash}ADC3{slash}A3-Pad4)*%
X153645000Y-63100000D03*
D14*
X154480000Y-63100000D03*
D13*
%TO.P,U1,5,GPIO6/SDA*%
%TO.N,SDA*%
X153645000Y-60560000D03*
D14*
X154480000Y-60560000D03*
D13*
%TO.P,U1,6,GPIO7/SCL*%
%TO.N,SCL*%
X153645000Y-58020000D03*
D14*
X154480000Y-58020000D03*
D13*
%TO.P,U1,7,GPIO0/TX*%
%TO.N,ICMINT*%
X153645000Y-55480000D03*
D14*
X154480000Y-55480000D03*
%TO.P,U1,8,GPIO1/RX*%
%TO.N,unconnected-(U1-GPIO1{slash}RX-Pad8)*%
X169720000Y-55480000D03*
D15*
X170555000Y-55480000D03*
D14*
%TO.P,U1,9,GPIO2/SCK*%
%TO.N,unconnected-(U1-GPIO2{slash}SCK-Pad9)*%
X169720000Y-58020000D03*
D15*
X170555000Y-58020000D03*
D14*
%TO.P,U1,10,GPIO4/MISO*%
%TO.N,unconnected-(U1-GPIO4{slash}MISO-Pad10)*%
X169720000Y-60560000D03*
D15*
X170555000Y-60560000D03*
D14*
%TO.P,U1,11,GPIO3/MOSI*%
%TO.N,unconnected-(U1-GPIO3{slash}MOSI-Pad11)*%
X169720000Y-63100000D03*
D15*
X170555000Y-63100000D03*
D14*
%TO.P,U1,12,3V3*%
%TO.N,3.3V*%
X169720000Y-65640000D03*
D15*
X170555000Y-65640000D03*
D14*
%TO.P,U1,13,GND*%
%TO.N,GND*%
X169720000Y-68180000D03*
D15*
X170555000Y-68180000D03*
D14*
%TO.P,U1,14,VBUS*%
%TO.N,unconnected-(U1-VBUS-Pad14)*%
X169720000Y-70720000D03*
D15*
X170555000Y-70720000D03*
%TD*%
D16*
%TO.N,GND*%
X162125000Y-61600000D03*
X161425000Y-68100000D03*
%TO.N,SDA*%
X161330000Y-55800000D03*
X156700000Y-59900000D03*
%TO.N,ICMINT*%
X160900000Y-65700000D03*
X162800000Y-65700000D03*
%TD*%
D17*
%TO.N,SDA*%
X161330000Y-55800000D02*
X159900000Y-55800000D01*
X159900000Y-55800000D02*
X156700000Y-59000000D01*
X156700000Y-59000000D02*
X156700000Y-59900000D01*
%TO.N,ICMINT*%
X162800000Y-65700000D02*
X160900000Y-65700000D01*
%TD*%
%TA.AperFunction,Conductor*%
%TO.N,GND*%
G36*
X157048455Y-50220185D02*
G01*
X157094210Y-50272989D01*
X157104154Y-50342147D01*
X157080682Y-50398811D01*
X156992649Y-50516406D01*
X156992645Y-50516413D01*
X156942403Y-50651120D01*
X156942401Y-50651127D01*
X156936000Y-50710655D01*
X156936000Y-51262500D01*
X157756988Y-51262500D01*
X157724075Y-51319507D01*
X157690000Y-51446674D01*
X157690000Y-51578326D01*
X157724075Y-51705493D01*
X157756988Y-51762500D01*
X156936000Y-51762500D01*
X156936000Y-52314344D01*
X156942401Y-52373872D01*
X156942403Y-52373879D01*
X156992645Y-52508586D01*
X156992649Y-52508593D01*
X157078809Y-52623687D01*
X157078812Y-52623690D01*
X157193906Y-52709850D01*
X157193913Y-52709854D01*
X157328620Y-52760096D01*
X157328627Y-52760098D01*
X157388155Y-52766499D01*
X157388172Y-52766500D01*
X157940000Y-52766500D01*
X157940000Y-51945512D01*
X157997007Y-51978425D01*
X158124174Y-52012500D01*
X158255826Y-52012500D01*
X158382993Y-51978425D01*
X158440000Y-51945512D01*
X158440000Y-52766500D01*
X158991828Y-52766500D01*
X158991844Y-52766499D01*
X159051372Y-52760098D01*
X159051379Y-52760096D01*
X159186086Y-52709854D01*
X159186093Y-52709850D01*
X159301187Y-52623690D01*
X159301190Y-52623687D01*
X159387350Y-52508593D01*
X159387354Y-52508586D01*
X159437596Y-52373879D01*
X159437598Y-52373872D01*
X159443999Y-52314344D01*
X159444000Y-52314327D01*
X159444000Y-52258387D01*
X159463685Y-52191348D01*
X159516489Y-52145593D01*
X159585647Y-52135649D01*
X159649203Y-52164674D01*
X159668314Y-52185497D01*
X159721272Y-52258387D01*
X159773121Y-52329752D01*
X159912753Y-52469384D01*
X160062234Y-52577986D01*
X160072499Y-52585444D01*
X160248439Y-52675091D01*
X160355417Y-52709850D01*
X160436236Y-52736110D01*
X160631264Y-52767000D01*
X160631269Y-52767000D01*
X160828736Y-52767000D01*
X161023763Y-52736110D01*
X161211561Y-52675091D01*
X161387501Y-52585444D01*
X161493288Y-52508586D01*
X161547246Y-52469384D01*
X161547248Y-52469381D01*
X161547252Y-52469379D01*
X161686879Y-52329752D01*
X161686881Y-52329748D01*
X161686884Y-52329746D01*
X161802941Y-52170005D01*
X161802942Y-52170004D01*
X161802944Y-52170001D01*
X161889517Y-52000093D01*
X161937490Y-51949300D01*
X162005311Y-51932505D01*
X162071446Y-51955042D01*
X162110482Y-52000093D01*
X162183614Y-52143620D01*
X162197058Y-52170005D01*
X162313115Y-52329746D01*
X162452753Y-52469384D01*
X162602234Y-52577986D01*
X162612499Y-52585444D01*
X162788439Y-52675091D01*
X162895417Y-52709850D01*
X162976236Y-52736110D01*
X163171264Y-52767000D01*
X163171269Y-52767000D01*
X163368736Y-52767000D01*
X163563763Y-52736110D01*
X163751561Y-52675091D01*
X163927501Y-52585444D01*
X164033288Y-52508586D01*
X164087246Y-52469384D01*
X164087248Y-52469381D01*
X164087252Y-52469379D01*
X164226879Y-52329752D01*
X164226881Y-52329748D01*
X164226884Y-52329746D01*
X164342941Y-52170005D01*
X164342942Y-52170004D01*
X164342944Y-52170001D01*
X164429517Y-52000093D01*
X164477490Y-51949300D01*
X164545311Y-51932505D01*
X164611446Y-51955042D01*
X164650482Y-52000093D01*
X164723614Y-52143620D01*
X164737058Y-52170005D01*
X164853115Y-52329746D01*
X164992753Y-52469384D01*
X165142234Y-52577986D01*
X165152499Y-52585444D01*
X165328439Y-52675091D01*
X165435417Y-52709850D01*
X165516236Y-52736110D01*
X165711264Y-52767000D01*
X165711269Y-52767000D01*
X165908736Y-52767000D01*
X166103763Y-52736110D01*
X166291561Y-52675091D01*
X166467501Y-52585444D01*
X166573288Y-52508586D01*
X166627246Y-52469384D01*
X166627248Y-52469381D01*
X166627252Y-52469379D01*
X166766879Y-52329752D01*
X166766881Y-52329748D01*
X166766884Y-52329746D01*
X166818728Y-52258387D01*
X166882944Y-52170001D01*
X166972591Y-51994061D01*
X167033610Y-51806263D01*
X167064500Y-51611236D01*
X167064500Y-51413763D01*
X167033610Y-51218736D01*
X166977671Y-51046575D01*
X166972591Y-51030939D01*
X166882944Y-50854999D01*
X166842909Y-50799895D01*
X166766884Y-50695253D01*
X166627246Y-50555615D01*
X166467502Y-50439556D01*
X166458529Y-50434984D01*
X166407733Y-50387009D01*
X166390939Y-50319188D01*
X166413477Y-50253053D01*
X166468193Y-50209603D01*
X166514825Y-50200500D01*
X171709973Y-50200500D01*
X171777012Y-50220185D01*
X171822767Y-50272989D01*
X171832711Y-50342147D01*
X171803686Y-50405703D01*
X171785466Y-50422869D01*
X171678149Y-50505218D01*
X171678139Y-50505226D01*
X171492726Y-50690640D01*
X171492718Y-50690648D01*
X171333075Y-50898696D01*
X171201958Y-51125799D01*
X171201953Y-51125809D01*
X171101605Y-51368071D01*
X171101602Y-51368081D01*
X171036451Y-51611231D01*
X171033730Y-51621385D01*
X170999500Y-51881372D01*
X170999500Y-52143627D01*
X171021977Y-52314344D01*
X171033730Y-52403616D01*
X171101602Y-52656918D01*
X171101605Y-52656928D01*
X171201953Y-52899190D01*
X171201958Y-52899200D01*
X171333075Y-53126303D01*
X171492718Y-53334351D01*
X171492726Y-53334360D01*
X171678140Y-53519774D01*
X171678148Y-53519781D01*
X171886196Y-53679424D01*
X172113299Y-53810541D01*
X172113309Y-53810546D01*
X172355571Y-53910894D01*
X172355581Y-53910898D01*
X172608884Y-53978770D01*
X172868880Y-54013000D01*
X172868887Y-54013000D01*
X173131113Y-54013000D01*
X173131120Y-54013000D01*
X173391116Y-53978770D01*
X173644419Y-53910898D01*
X173886697Y-53810543D01*
X174113803Y-53679424D01*
X174321851Y-53519782D01*
X174321855Y-53519777D01*
X174321860Y-53519774D01*
X174507273Y-53334360D01*
X174507282Y-53334351D01*
X174577127Y-53243327D01*
X174633552Y-53202128D01*
X174703298Y-53197973D01*
X174764219Y-53232186D01*
X174796971Y-53293903D01*
X174799500Y-53318817D01*
X174799500Y-72706182D01*
X174779815Y-72773221D01*
X174727011Y-72818976D01*
X174657853Y-72828920D01*
X174594297Y-72799895D01*
X174577125Y-72781669D01*
X174507281Y-72690648D01*
X174507274Y-72690640D01*
X174321860Y-72505226D01*
X174321851Y-72505218D01*
X174113803Y-72345575D01*
X173886700Y-72214458D01*
X173886690Y-72214453D01*
X173644428Y-72114105D01*
X173644421Y-72114103D01*
X173644419Y-72114102D01*
X173391116Y-72046230D01*
X173333339Y-72038623D01*
X173131127Y-72012000D01*
X173131120Y-72012000D01*
X172868880Y-72012000D01*
X172868872Y-72012000D01*
X172637772Y-72042426D01*
X172608884Y-72046230D01*
X172355581Y-72114102D01*
X172355571Y-72114105D01*
X172113309Y-72214453D01*
X172113299Y-72214458D01*
X171886196Y-72345575D01*
X171678148Y-72505218D01*
X171492718Y-72690648D01*
X171333075Y-72898696D01*
X171201958Y-73125799D01*
X171201953Y-73125809D01*
X171101605Y-73368071D01*
X171101602Y-73368081D01*
X171033730Y-73621385D01*
X170999500Y-73881372D01*
X170999500Y-74143627D01*
X171026123Y-74345839D01*
X171033730Y-74403616D01*
X171101602Y-74656918D01*
X171101605Y-74656928D01*
X171201953Y-74899190D01*
X171201958Y-74899200D01*
X171333075Y-75126303D01*
X171492718Y-75334351D01*
X171492726Y-75334360D01*
X171678140Y-75519774D01*
X171678148Y-75519781D01*
X171752879Y-75577125D01*
X171794081Y-75633553D01*
X171798236Y-75703299D01*
X171764023Y-75764219D01*
X171702306Y-75796971D01*
X171677392Y-75799500D01*
X152322608Y-75799500D01*
X152255569Y-75779815D01*
X152209814Y-75727011D01*
X152199870Y-75657853D01*
X152228895Y-75594297D01*
X152247121Y-75577125D01*
X152261555Y-75566049D01*
X152321851Y-75519782D01*
X152321855Y-75519777D01*
X152321860Y-75519774D01*
X152507274Y-75334360D01*
X152507277Y-75334355D01*
X152507282Y-75334351D01*
X152666924Y-75126303D01*
X152798043Y-74899197D01*
X152898398Y-74656919D01*
X152966270Y-74403616D01*
X153000500Y-74143620D01*
X153000500Y-73881380D01*
X152966270Y-73621384D01*
X152898398Y-73368081D01*
X152799500Y-73129320D01*
X152798046Y-73125809D01*
X152798041Y-73125799D01*
X152666924Y-72898696D01*
X152544424Y-72739054D01*
X152507282Y-72690649D01*
X152507281Y-72690648D01*
X152507274Y-72690640D01*
X152321860Y-72505226D01*
X152321851Y-72505218D01*
X152113803Y-72345575D01*
X151886700Y-72214458D01*
X151886690Y-72214453D01*
X151644428Y-72114105D01*
X151644421Y-72114103D01*
X151644419Y-72114102D01*
X151391116Y-72046230D01*
X151333339Y-72038623D01*
X151131127Y-72012000D01*
X151131120Y-72012000D01*
X150868880Y-72012000D01*
X150868872Y-72012000D01*
X150637772Y-72042426D01*
X150608884Y-72046230D01*
X150355581Y-72114102D01*
X150355571Y-72114105D01*
X150113309Y-72214453D01*
X150113299Y-72214458D01*
X149886196Y-72345575D01*
X149678148Y-72505218D01*
X149492718Y-72690648D01*
X149422875Y-72781669D01*
X149366447Y-72822872D01*
X149296701Y-72827026D01*
X149235781Y-72792813D01*
X149203029Y-72731095D01*
X149200500Y-72706182D01*
X149200500Y-54804458D01*
X151928500Y-54804458D01*
X151928500Y-56155541D01*
X151931412Y-56192546D01*
X151931413Y-56192552D01*
X151977434Y-56350954D01*
X151977435Y-56350957D01*
X152061405Y-56492943D01*
X152061412Y-56492952D01*
X152178047Y-56609587D01*
X152178050Y-56609589D01*
X152178053Y-56609592D01*
X152234996Y-56643268D01*
X152282679Y-56694338D01*
X152295182Y-56763079D01*
X152268536Y-56827669D01*
X152234996Y-56856732D01*
X152178053Y-56890408D01*
X152178047Y-56890412D01*
X152061412Y-57007047D01*
X152061405Y-57007056D01*
X151977435Y-57149042D01*
X151977434Y-57149045D01*
X151931413Y-57307447D01*
X151931412Y-57307453D01*
X151928500Y-57344458D01*
X151928500Y-58695541D01*
X151931412Y-58732546D01*
X151931413Y-58732552D01*
X151977434Y-58890954D01*
X151977435Y-58890957D01*
X152061405Y-59032943D01*
X152061412Y-59032952D01*
X152178047Y-59149587D01*
X152178050Y-59149589D01*
X152178053Y-59149592D01*
X152234996Y-59183268D01*
X152282679Y-59234338D01*
X152295182Y-59303079D01*
X152268536Y-59367669D01*
X152234996Y-59396732D01*
X152178053Y-59430408D01*
X152178047Y-59430412D01*
X152061412Y-59547047D01*
X152061405Y-59547056D01*
X151977435Y-59689042D01*
X151977434Y-59689045D01*
X151931413Y-59847447D01*
X151931412Y-59847453D01*
X151928500Y-59884458D01*
X151928500Y-61235541D01*
X151931412Y-61272546D01*
X151931413Y-61272552D01*
X151977434Y-61430954D01*
X151977435Y-61430957D01*
X152061405Y-61572943D01*
X152061412Y-61572952D01*
X152178047Y-61689587D01*
X152178050Y-61689589D01*
X152178053Y-61689592D01*
X152234996Y-61723268D01*
X152282679Y-61774338D01*
X152295182Y-61843079D01*
X152268536Y-61907669D01*
X152234996Y-61936732D01*
X152178053Y-61970408D01*
X152178047Y-61970412D01*
X152061412Y-62087047D01*
X152061405Y-62087056D01*
X151977435Y-62229042D01*
X151977434Y-62229045D01*
X151931413Y-62387447D01*
X151931412Y-62387453D01*
X151928500Y-62424458D01*
X151928500Y-63775541D01*
X151931412Y-63812546D01*
X151931413Y-63812552D01*
X151977434Y-63970954D01*
X151977435Y-63970957D01*
X152061405Y-64112943D01*
X152061412Y-64112952D01*
X152178047Y-64229587D01*
X152178050Y-64229589D01*
X152178053Y-64229592D01*
X152234996Y-64263268D01*
X152282679Y-64314338D01*
X152295182Y-64383079D01*
X152268536Y-64447669D01*
X152234996Y-64476732D01*
X152178053Y-64510408D01*
X152178047Y-64510412D01*
X152061412Y-64627047D01*
X152061405Y-64627056D01*
X151977435Y-64769042D01*
X151977434Y-64769045D01*
X151931413Y-64927447D01*
X151931412Y-64927453D01*
X151928500Y-64964458D01*
X151928500Y-66315541D01*
X151931412Y-66352546D01*
X151931413Y-66352552D01*
X151977434Y-66510954D01*
X151977435Y-66510957D01*
X152061405Y-66652943D01*
X152061412Y-66652952D01*
X152178047Y-66769587D01*
X152178050Y-66769589D01*
X152178053Y-66769592D01*
X152234996Y-66803268D01*
X152282679Y-66854338D01*
X152295182Y-66923079D01*
X152268536Y-66987669D01*
X152234996Y-67016731D01*
X152178053Y-67050408D01*
X152178047Y-67050412D01*
X152061412Y-67167047D01*
X152061405Y-67167056D01*
X151977435Y-67309042D01*
X151977434Y-67309045D01*
X151931413Y-67467447D01*
X151931412Y-67467453D01*
X151928500Y-67504458D01*
X151928500Y-68855541D01*
X151931412Y-68892546D01*
X151931413Y-68892552D01*
X151977434Y-69050954D01*
X151977435Y-69050957D01*
X152061405Y-69192943D01*
X152061412Y-69192952D01*
X152178047Y-69309587D01*
X152178050Y-69309589D01*
X152178053Y-69309592D01*
X152234502Y-69342976D01*
X152234996Y-69343268D01*
X152282679Y-69394338D01*
X152295182Y-69463079D01*
X152268536Y-69527669D01*
X152234996Y-69556732D01*
X152178053Y-69590408D01*
X152178047Y-69590412D01*
X152061412Y-69707047D01*
X152061405Y-69707056D01*
X151977435Y-69849042D01*
X151977434Y-69849045D01*
X151931413Y-70007447D01*
X151931412Y-70007453D01*
X151928500Y-70044458D01*
X151928500Y-71395541D01*
X151931412Y-71432546D01*
X151931413Y-71432552D01*
X151977434Y-71590954D01*
X151977435Y-71590957D01*
X152061405Y-71732943D01*
X152061412Y-71732952D01*
X152178047Y-71849587D01*
X152178051Y-71849590D01*
X152178053Y-71849592D01*
X152320041Y-71933564D01*
X152361816Y-71945701D01*
X152478447Y-71979586D01*
X152478450Y-71979586D01*
X152478452Y-71979587D01*
X152515466Y-71982500D01*
X152515474Y-71982500D01*
X154774526Y-71982500D01*
X154774534Y-71982500D01*
X154811548Y-71979587D01*
X154811550Y-71979586D01*
X154811552Y-71979586D01*
X154853323Y-71967449D01*
X154969959Y-71933564D01*
X155111947Y-71849592D01*
X155208148Y-71753389D01*
X155222939Y-71740758D01*
X155302464Y-71682981D01*
X155442981Y-71542464D01*
X155559787Y-71381694D01*
X155650005Y-71204632D01*
X155711413Y-71015636D01*
X155742500Y-70819361D01*
X155742500Y-70620639D01*
X155711413Y-70424364D01*
X155650005Y-70235368D01*
X155650005Y-70235367D01*
X155559786Y-70058305D01*
X155442981Y-69897536D01*
X155302464Y-69757019D01*
X155222937Y-69699239D01*
X155216175Y-69693960D01*
X155212000Y-69690461D01*
X155111947Y-69590408D01*
X155046259Y-69551560D01*
X155038477Y-69545038D01*
X155024510Y-69524073D01*
X155007321Y-69505663D01*
X155005471Y-69495492D01*
X154999740Y-69486890D01*
X154999324Y-69461702D01*
X154994817Y-69436921D01*
X154998758Y-69427366D01*
X154998588Y-69417030D01*
X155011856Y-69395616D01*
X155021462Y-69372332D01*
X155031874Y-69363309D01*
X155035389Y-69357638D01*
X155042127Y-69354425D01*
X155055004Y-69343268D01*
X155055498Y-69342976D01*
X155111947Y-69309592D01*
X155208148Y-69213389D01*
X155222939Y-69200758D01*
X155302464Y-69142981D01*
X155442981Y-69002464D01*
X155559787Y-68841694D01*
X155650005Y-68664632D01*
X155711413Y-68475636D01*
X155742500Y-68279361D01*
X155742500Y-68080639D01*
X155711413Y-67884364D01*
X155650005Y-67695368D01*
X155650005Y-67695367D01*
X155559786Y-67518305D01*
X155549762Y-67504508D01*
X155442981Y-67357536D01*
X155302464Y-67217019D01*
X155222938Y-67159240D01*
X155216175Y-67153960D01*
X155212000Y-67150461D01*
X155111947Y-67050408D01*
X155046259Y-67011560D01*
X155038477Y-67005038D01*
X155024510Y-66984073D01*
X155007321Y-66965663D01*
X155005471Y-66955492D01*
X154999740Y-66946890D01*
X154999324Y-66921702D01*
X154994817Y-66896921D01*
X154998758Y-66887366D01*
X154998588Y-66877030D01*
X155011856Y-66855616D01*
X155021462Y-66832332D01*
X155031874Y-66823309D01*
X155035389Y-66817638D01*
X155042127Y-66814425D01*
X155055004Y-66803268D01*
X155111947Y-66769592D01*
X155208148Y-66673389D01*
X155222939Y-66660758D01*
X155302464Y-66602981D01*
X155442981Y-66462464D01*
X155559787Y-66301694D01*
X155650005Y-66124632D01*
X155711413Y-65935636D01*
X155742500Y-65739361D01*
X155742500Y-65621153D01*
X160099500Y-65621153D01*
X160099500Y-65778846D01*
X160130261Y-65933489D01*
X160130264Y-65933501D01*
X160190602Y-66079172D01*
X160190609Y-66079185D01*
X160278210Y-66210288D01*
X160278213Y-66210292D01*
X160389707Y-66321786D01*
X160389711Y-66321789D01*
X160520814Y-66409390D01*
X160520827Y-66409397D01*
X160648944Y-66462464D01*
X160666503Y-66469737D01*
X160821153Y-66500499D01*
X160821156Y-66500500D01*
X160821158Y-66500500D01*
X160978844Y-66500500D01*
X160978845Y-66500499D01*
X161133497Y-66469737D01*
X161279179Y-66409394D01*
X161279185Y-66409390D01*
X161410875Y-66321398D01*
X161477553Y-66300520D01*
X161479766Y-66300500D01*
X162220234Y-66300500D01*
X162287273Y-66320185D01*
X162289125Y-66321398D01*
X162420814Y-66409390D01*
X162420827Y-66409397D01*
X162548944Y-66462464D01*
X162566503Y-66469737D01*
X162721153Y-66500499D01*
X162721156Y-66500500D01*
X162721158Y-66500500D01*
X162878844Y-66500500D01*
X162878845Y-66500499D01*
X163033497Y-66469737D01*
X163179179Y-66409394D01*
X163310289Y-66321789D01*
X163421789Y-66210289D01*
X163509394Y-66079179D01*
X163569737Y-65933497D01*
X163600500Y-65778842D01*
X163600500Y-65621158D01*
X163600500Y-65621155D01*
X163600499Y-65621153D01*
X163569737Y-65466503D01*
X163519145Y-65344362D01*
X163509397Y-65320827D01*
X163509390Y-65320814D01*
X163421789Y-65189711D01*
X163421786Y-65189707D01*
X163310292Y-65078213D01*
X163310288Y-65078210D01*
X163179185Y-64990609D01*
X163179172Y-64990602D01*
X163033501Y-64930264D01*
X163033489Y-64930261D01*
X162878845Y-64899500D01*
X162878842Y-64899500D01*
X162721158Y-64899500D01*
X162721155Y-64899500D01*
X162566510Y-64930261D01*
X162566498Y-64930264D01*
X162420827Y-64990602D01*
X162420814Y-64990609D01*
X162289125Y-65078602D01*
X162222447Y-65099480D01*
X162220234Y-65099500D01*
X161479766Y-65099500D01*
X161412727Y-65079815D01*
X161410875Y-65078602D01*
X161279185Y-64990609D01*
X161279172Y-64990602D01*
X161133501Y-64930264D01*
X161133489Y-64930261D01*
X160978845Y-64899500D01*
X160978842Y-64899500D01*
X160821158Y-64899500D01*
X160821155Y-64899500D01*
X160666510Y-64930261D01*
X160666498Y-64930264D01*
X160520827Y-64990602D01*
X160520814Y-64990609D01*
X160389711Y-65078210D01*
X160389707Y-65078213D01*
X160278213Y-65189707D01*
X160278210Y-65189711D01*
X160190609Y-65320814D01*
X160190602Y-65320827D01*
X160130264Y-65466498D01*
X160130261Y-65466510D01*
X160099500Y-65621153D01*
X155742500Y-65621153D01*
X155742500Y-65540639D01*
X155711413Y-65344364D01*
X155661164Y-65189711D01*
X155650006Y-65155370D01*
X155650005Y-65155367D01*
X155604035Y-65065149D01*
X155559787Y-64978306D01*
X155442981Y-64817536D01*
X155302464Y-64677019D01*
X155222937Y-64619239D01*
X155216175Y-64613960D01*
X155212000Y-64610461D01*
X155111947Y-64510408D01*
X155046259Y-64471560D01*
X155038477Y-64465038D01*
X155024510Y-64444073D01*
X155007321Y-64425663D01*
X155005471Y-64415492D01*
X154999740Y-64406890D01*
X154999324Y-64381702D01*
X154994817Y-64356921D01*
X154998758Y-64347366D01*
X154998588Y-64337030D01*
X155011856Y-64315616D01*
X155021462Y-64292332D01*
X155031874Y-64283309D01*
X155035389Y-64277638D01*
X155042127Y-64274425D01*
X155055004Y-64263268D01*
X155111947Y-64229592D01*
X155208148Y-64133389D01*
X155222939Y-64120758D01*
X155302464Y-64062981D01*
X155442981Y-63922464D01*
X155559787Y-63761694D01*
X155650005Y-63584632D01*
X155711413Y-63395636D01*
X155742500Y-63199361D01*
X155742500Y-63000639D01*
X155711413Y-62804364D01*
X155650005Y-62615368D01*
X155650005Y-62615367D01*
X155559786Y-62438305D01*
X155442981Y-62277536D01*
X155302464Y-62137019D01*
X155222937Y-62079239D01*
X155216175Y-62073960D01*
X155212000Y-62070461D01*
X155111947Y-61970408D01*
X155046259Y-61931560D01*
X155038477Y-61925038D01*
X155024510Y-61904073D01*
X155007321Y-61885663D01*
X155005471Y-61875492D01*
X154999740Y-61866890D01*
X154999324Y-61841702D01*
X154994817Y-61816921D01*
X154998758Y-61807366D01*
X154998588Y-61797030D01*
X155011856Y-61775616D01*
X155021462Y-61752332D01*
X155031874Y-61743309D01*
X155035389Y-61737638D01*
X155042127Y-61734425D01*
X155055004Y-61723268D01*
X155111947Y-61689592D01*
X155208148Y-61593389D01*
X155222939Y-61580758D01*
X155302464Y-61522981D01*
X155442981Y-61382464D01*
X155559787Y-61221694D01*
X155650005Y-61044632D01*
X155711413Y-60855636D01*
X155742500Y-60659361D01*
X155742500Y-60460639D01*
X155711413Y-60264364D01*
X155680709Y-60169866D01*
X155650006Y-60075370D01*
X155650005Y-60075367D01*
X155559786Y-59898304D01*
X155552265Y-59887953D01*
X155552264Y-59887951D01*
X155503732Y-59821153D01*
X155899500Y-59821153D01*
X155899500Y-59978846D01*
X155930261Y-60133489D01*
X155930264Y-60133501D01*
X155990602Y-60279172D01*
X155990609Y-60279185D01*
X156078210Y-60410288D01*
X156078213Y-60410292D01*
X156189707Y-60521786D01*
X156189711Y-60521789D01*
X156320814Y-60609390D01*
X156320827Y-60609397D01*
X156441453Y-60659361D01*
X156466503Y-60669737D01*
X156621153Y-60700499D01*
X156621156Y-60700500D01*
X156621158Y-60700500D01*
X156778844Y-60700500D01*
X156778845Y-60700499D01*
X156933497Y-60669737D01*
X157079179Y-60609394D01*
X157210289Y-60521789D01*
X157321789Y-60410289D01*
X157409394Y-60279179D01*
X157469737Y-60133497D01*
X157500500Y-59978842D01*
X157500500Y-59821158D01*
X157500500Y-59821155D01*
X157500499Y-59821153D01*
X157469738Y-59666510D01*
X157469737Y-59666503D01*
X157420260Y-59547053D01*
X157409397Y-59520827D01*
X157409390Y-59520814D01*
X157321398Y-59389125D01*
X157315747Y-59371078D01*
X157305523Y-59355169D01*
X157301071Y-59324207D01*
X157300520Y-59322447D01*
X157300500Y-59320234D01*
X157300500Y-59300097D01*
X157320185Y-59233058D01*
X157336819Y-59212416D01*
X160112416Y-56436819D01*
X160173739Y-56403334D01*
X160200097Y-56400500D01*
X160750234Y-56400500D01*
X160817273Y-56420185D01*
X160819125Y-56421398D01*
X160950814Y-56509390D01*
X160950827Y-56509397D01*
X161096498Y-56569735D01*
X161096503Y-56569737D01*
X161251153Y-56600499D01*
X161251156Y-56600500D01*
X161251158Y-56600500D01*
X161408844Y-56600500D01*
X161408845Y-56600499D01*
X161563497Y-56569737D01*
X161709179Y-56509394D01*
X161840289Y-56421789D01*
X161951789Y-56310289D01*
X162039394Y-56179179D01*
X162099737Y-56033497D01*
X162130500Y-55878842D01*
X162130500Y-55721158D01*
X162130500Y-55721155D01*
X162130499Y-55721153D01*
X162099737Y-55566503D01*
X162039394Y-55420821D01*
X162039391Y-55420816D01*
X162039390Y-55420814D01*
X162012546Y-55380639D01*
X168457500Y-55380639D01*
X168457500Y-55579360D01*
X168488587Y-55775637D01*
X168549993Y-55964629D01*
X168549994Y-55964632D01*
X168640213Y-56141694D01*
X168757019Y-56302464D01*
X168757021Y-56302466D01*
X168897539Y-56442984D01*
X168977060Y-56500758D01*
X168983824Y-56506039D01*
X168987998Y-56509537D01*
X169088053Y-56609592D01*
X169153737Y-56648437D01*
X169161522Y-56654962D01*
X169175488Y-56675926D01*
X169192679Y-56694338D01*
X169194528Y-56704506D01*
X169200260Y-56713110D01*
X169200674Y-56738297D01*
X169205182Y-56763079D01*
X169201239Y-56772634D01*
X169201410Y-56782970D01*
X169188143Y-56804381D01*
X169178536Y-56827669D01*
X169168122Y-56836692D01*
X169164609Y-56842363D01*
X169157871Y-56845575D01*
X169144996Y-56856732D01*
X169088053Y-56890408D01*
X169088046Y-56890413D01*
X168991854Y-56986604D01*
X168977061Y-56999239D01*
X168897536Y-57057018D01*
X168757021Y-57197533D01*
X168640213Y-57358305D01*
X168549994Y-57535367D01*
X168549993Y-57535370D01*
X168488587Y-57724362D01*
X168457500Y-57920639D01*
X168457500Y-58119360D01*
X168488587Y-58315637D01*
X168549993Y-58504629D01*
X168549994Y-58504632D01*
X168614528Y-58631285D01*
X168640213Y-58681694D01*
X168757019Y-58842464D01*
X168757021Y-58842466D01*
X168897539Y-58982984D01*
X168977060Y-59040758D01*
X168983824Y-59046039D01*
X168987998Y-59049537D01*
X169088053Y-59149592D01*
X169153737Y-59188437D01*
X169161522Y-59194962D01*
X169175488Y-59215926D01*
X169192679Y-59234338D01*
X169194528Y-59244506D01*
X169200260Y-59253110D01*
X169200674Y-59278297D01*
X169205182Y-59303079D01*
X169201239Y-59312634D01*
X169201410Y-59322970D01*
X169188143Y-59344381D01*
X169178536Y-59367669D01*
X169168122Y-59376692D01*
X169164609Y-59382363D01*
X169157871Y-59385575D01*
X169144996Y-59396732D01*
X169088053Y-59430408D01*
X169088046Y-59430413D01*
X168991854Y-59526604D01*
X168977061Y-59539239D01*
X168897536Y-59597018D01*
X168757021Y-59737533D01*
X168640213Y-59898305D01*
X168549994Y-60075367D01*
X168549993Y-60075370D01*
X168488587Y-60264362D01*
X168465475Y-60410288D01*
X168457500Y-60460639D01*
X168457500Y-60659361D01*
X168459144Y-60669738D01*
X168488587Y-60855637D01*
X168549993Y-61044629D01*
X168549994Y-61044632D01*
X168640213Y-61221694D01*
X168757019Y-61382464D01*
X168757021Y-61382466D01*
X168897539Y-61522984D01*
X168977060Y-61580758D01*
X168983824Y-61586039D01*
X168987998Y-61589537D01*
X169088053Y-61689592D01*
X169153737Y-61728437D01*
X169161522Y-61734962D01*
X169175488Y-61755926D01*
X169192679Y-61774338D01*
X169194528Y-61784506D01*
X169200260Y-61793110D01*
X169200674Y-61818297D01*
X169205182Y-61843079D01*
X169201239Y-61852634D01*
X169201410Y-61862970D01*
X169188143Y-61884381D01*
X169178536Y-61907669D01*
X169168122Y-61916692D01*
X169164609Y-61922363D01*
X169157871Y-61925575D01*
X169144996Y-61936732D01*
X169088053Y-61970408D01*
X169088046Y-61970413D01*
X168991854Y-62066604D01*
X168977061Y-62079239D01*
X168897536Y-62137018D01*
X168757021Y-62277533D01*
X168640213Y-62438305D01*
X168549994Y-62615367D01*
X168549993Y-62615370D01*
X168488587Y-62804362D01*
X168457500Y-63000639D01*
X168457500Y-63199360D01*
X168488587Y-63395637D01*
X168549993Y-63584629D01*
X168549994Y-63584632D01*
X168640213Y-63761694D01*
X168757019Y-63922464D01*
X168757021Y-63922466D01*
X168897539Y-64062984D01*
X168977060Y-64120758D01*
X168983824Y-64126039D01*
X168987998Y-64129537D01*
X169088053Y-64229592D01*
X169153737Y-64268437D01*
X169161522Y-64274962D01*
X169175488Y-64295926D01*
X169192679Y-64314338D01*
X169194528Y-64324506D01*
X169200260Y-64333110D01*
X169200674Y-64358297D01*
X169205182Y-64383079D01*
X169201239Y-64392634D01*
X169201410Y-64402970D01*
X169188143Y-64424381D01*
X169178536Y-64447669D01*
X169168122Y-64456692D01*
X169164609Y-64462363D01*
X169157871Y-64465575D01*
X169144996Y-64476732D01*
X169088053Y-64510408D01*
X169088046Y-64510413D01*
X168991854Y-64606604D01*
X168977061Y-64619239D01*
X168897536Y-64677018D01*
X168757021Y-64817533D01*
X168640213Y-64978305D01*
X168549994Y-65155367D01*
X168549993Y-65155370D01*
X168488587Y-65344362D01*
X168457500Y-65540639D01*
X168457500Y-65739360D01*
X168488587Y-65935637D01*
X168549993Y-66124629D01*
X168549994Y-66124632D01*
X168593641Y-66210292D01*
X168640213Y-66301694D01*
X168757019Y-66462464D01*
X168757021Y-66462466D01*
X168897539Y-66602984D01*
X168977060Y-66660758D01*
X168983786Y-66666007D01*
X168987979Y-66669518D01*
X169088053Y-66769592D01*
X169154208Y-66808716D01*
X169161975Y-66815220D01*
X169175962Y-66836197D01*
X169193170Y-66854627D01*
X169195015Y-66864773D01*
X169200736Y-66873353D01*
X169201161Y-66898564D01*
X169205673Y-66923369D01*
X169201740Y-66932900D01*
X169201915Y-66943212D01*
X169188643Y-66964649D01*
X169179028Y-66987958D01*
X169168643Y-66996956D01*
X169165137Y-67002620D01*
X169158391Y-67005838D01*
X169145487Y-67017021D01*
X169088370Y-67050800D01*
X169088357Y-67050810D01*
X169016360Y-67122806D01*
X169016360Y-67122807D01*
X169635905Y-67742352D01*
X169548429Y-67765792D01*
X169447070Y-67824311D01*
X169364311Y-67907070D01*
X169305792Y-68008429D01*
X169282352Y-68095905D01*
X168667730Y-67481282D01*
X168667729Y-67481283D01*
X168640643Y-67518564D01*
X168550457Y-67695562D01*
X168489075Y-67884476D01*
X168489075Y-67884479D01*
X168458000Y-68080678D01*
X168458000Y-68279321D01*
X168489075Y-68475520D01*
X168489075Y-68475523D01*
X168550457Y-68664437D01*
X168640641Y-68841432D01*
X168667730Y-68878715D01*
X168667731Y-68878716D01*
X169282352Y-68264094D01*
X169305792Y-68351571D01*
X169364311Y-68452930D01*
X169447070Y-68535689D01*
X169548429Y-68594208D01*
X169635904Y-68617647D01*
X169016360Y-69237191D01*
X169088360Y-69309192D01*
X169088364Y-69309195D01*
X169145486Y-69342977D01*
X169193169Y-69394046D01*
X169205673Y-69462788D01*
X169179028Y-69527377D01*
X169161975Y-69544779D01*
X169154204Y-69551285D01*
X169088053Y-69590408D01*
X168987990Y-69690469D01*
X168983784Y-69693992D01*
X168982598Y-69694509D01*
X168977061Y-69699239D01*
X168897536Y-69757018D01*
X168757021Y-69897533D01*
X168640213Y-70058305D01*
X168549994Y-70235367D01*
X168549993Y-70235370D01*
X168488587Y-70424362D01*
X168457500Y-70620639D01*
X168457500Y-70819360D01*
X168488587Y-71015637D01*
X168549993Y-71204629D01*
X168549994Y-71204632D01*
X168640213Y-71381694D01*
X168757019Y-71542464D01*
X168757021Y-71542466D01*
X168897539Y-71682984D01*
X168977060Y-71740758D01*
X168991851Y-71753390D01*
X169088053Y-71849592D01*
X169230041Y-71933564D01*
X169271816Y-71945701D01*
X169388447Y-71979586D01*
X169388450Y-71979586D01*
X169388452Y-71979587D01*
X169425466Y-71982500D01*
X169425474Y-71982500D01*
X171684526Y-71982500D01*
X171684534Y-71982500D01*
X171721548Y-71979587D01*
X171721550Y-71979586D01*
X171721552Y-71979586D01*
X171763323Y-71967449D01*
X171879959Y-71933564D01*
X172021947Y-71849592D01*
X172138592Y-71732947D01*
X172222564Y-71590959D01*
X172268587Y-71432548D01*
X172271500Y-71395534D01*
X172271500Y-70044466D01*
X172268587Y-70007452D01*
X172222564Y-69849041D01*
X172138592Y-69707053D01*
X172138590Y-69707051D01*
X172138587Y-69707047D01*
X172021952Y-69590412D01*
X172021949Y-69590410D01*
X172021947Y-69590408D01*
X171964511Y-69556440D01*
X171916829Y-69505371D01*
X171904326Y-69436630D01*
X171930972Y-69372040D01*
X171964514Y-69342976D01*
X172021637Y-69309193D01*
X172021643Y-69309189D01*
X172138189Y-69192643D01*
X172138196Y-69192634D01*
X172222102Y-69050756D01*
X172222103Y-69050753D01*
X172268088Y-68892473D01*
X172268089Y-68892467D01*
X172270999Y-68855488D01*
X172270999Y-67504530D01*
X172270998Y-67504508D01*
X172268089Y-67467533D01*
X172222102Y-67309242D01*
X172138196Y-67167365D01*
X172138189Y-67167356D01*
X172021643Y-67050810D01*
X172021634Y-67050803D01*
X171964513Y-67017022D01*
X171916829Y-66965953D01*
X171904326Y-66897211D01*
X171930972Y-66832622D01*
X171964514Y-66803558D01*
X172021941Y-66769596D01*
X172021942Y-66769594D01*
X172021947Y-66769592D01*
X172138592Y-66652947D01*
X172222564Y-66510959D01*
X172268587Y-66352548D01*
X172271500Y-66315534D01*
X172271500Y-64964466D01*
X172268587Y-64927452D01*
X172222564Y-64769041D01*
X172138592Y-64627053D01*
X172138590Y-64627051D01*
X172138587Y-64627047D01*
X172021952Y-64510412D01*
X172021944Y-64510406D01*
X171965004Y-64476732D01*
X171917321Y-64425663D01*
X171904817Y-64356921D01*
X171931462Y-64292332D01*
X171965004Y-64263268D01*
X172021947Y-64229592D01*
X172138592Y-64112947D01*
X172222564Y-63970959D01*
X172268587Y-63812548D01*
X172271500Y-63775534D01*
X172271500Y-62424466D01*
X172268587Y-62387452D01*
X172222564Y-62229041D01*
X172138592Y-62087053D01*
X172138590Y-62087051D01*
X172138587Y-62087047D01*
X172021952Y-61970412D01*
X172021944Y-61970406D01*
X171965004Y-61936732D01*
X171917321Y-61885663D01*
X171904817Y-61816921D01*
X171931462Y-61752332D01*
X171965004Y-61723268D01*
X172021947Y-61689592D01*
X172138592Y-61572947D01*
X172222564Y-61430959D01*
X172268587Y-61272548D01*
X172271500Y-61235534D01*
X172271500Y-59884466D01*
X172268587Y-59847452D01*
X172260946Y-59821153D01*
X172222565Y-59689045D01*
X172222564Y-59689042D01*
X172222564Y-59689041D01*
X172138592Y-59547053D01*
X172138590Y-59547051D01*
X172138587Y-59547047D01*
X172021952Y-59430412D01*
X172021944Y-59430406D01*
X171965004Y-59396732D01*
X171917321Y-59345663D01*
X171904817Y-59276921D01*
X171931462Y-59212332D01*
X171965004Y-59183268D01*
X172021947Y-59149592D01*
X172138592Y-59032947D01*
X172222564Y-58890959D01*
X172268587Y-58732548D01*
X172271500Y-58695534D01*
X172271500Y-57344466D01*
X172268587Y-57307452D01*
X172222564Y-57149041D01*
X172138592Y-57007053D01*
X172138590Y-57007051D01*
X172138587Y-57007047D01*
X172021952Y-56890412D01*
X172021944Y-56890406D01*
X171965004Y-56856732D01*
X171917321Y-56805663D01*
X171904817Y-56736921D01*
X171931462Y-56672332D01*
X171965004Y-56643268D01*
X172021947Y-56609592D01*
X172138592Y-56492947D01*
X172222564Y-56350959D01*
X172268587Y-56192548D01*
X172271500Y-56155534D01*
X172271500Y-54804466D01*
X172268587Y-54767452D01*
X172222564Y-54609041D01*
X172138592Y-54467053D01*
X172138590Y-54467051D01*
X172138587Y-54467047D01*
X172021952Y-54350412D01*
X172021943Y-54350405D01*
X171879957Y-54266435D01*
X171879954Y-54266434D01*
X171721552Y-54220413D01*
X171721546Y-54220412D01*
X171684541Y-54217500D01*
X171684534Y-54217500D01*
X169425466Y-54217500D01*
X169425458Y-54217500D01*
X169388453Y-54220412D01*
X169388447Y-54220413D01*
X169230045Y-54266434D01*
X169230042Y-54266435D01*
X169088056Y-54350405D01*
X169088046Y-54350413D01*
X168991854Y-54446604D01*
X168977061Y-54459239D01*
X168897536Y-54517018D01*
X168757021Y-54657533D01*
X168640213Y-54818305D01*
X168549994Y-54995367D01*
X168549993Y-54995370D01*
X168488587Y-55184362D01*
X168457500Y-55380639D01*
X162012546Y-55380639D01*
X161951789Y-55289711D01*
X161951786Y-55289707D01*
X161840292Y-55178213D01*
X161840288Y-55178210D01*
X161709185Y-55090609D01*
X161709172Y-55090602D01*
X161563501Y-55030264D01*
X161563489Y-55030261D01*
X161408845Y-54999500D01*
X161408842Y-54999500D01*
X161251158Y-54999500D01*
X161251155Y-54999500D01*
X161096510Y-55030261D01*
X161096498Y-55030264D01*
X160950827Y-55090602D01*
X160950814Y-55090609D01*
X160819125Y-55178602D01*
X160752447Y-55199480D01*
X160750234Y-55199500D01*
X159820940Y-55199500D01*
X159780019Y-55210464D01*
X159780019Y-55210465D01*
X159742751Y-55220451D01*
X159668214Y-55240423D01*
X159668209Y-55240426D01*
X159531290Y-55319475D01*
X159531282Y-55319481D01*
X156219481Y-58631282D01*
X156219480Y-58631284D01*
X156190376Y-58681694D01*
X156140423Y-58768215D01*
X156099499Y-58920943D01*
X156099499Y-58920945D01*
X156099499Y-59089046D01*
X156099500Y-59089059D01*
X156099500Y-59320234D01*
X156079815Y-59387273D01*
X156078602Y-59389125D01*
X155990609Y-59520814D01*
X155990602Y-59520827D01*
X155930264Y-59666498D01*
X155930261Y-59666510D01*
X155899500Y-59821153D01*
X155503732Y-59821153D01*
X155442983Y-59737539D01*
X155442978Y-59737533D01*
X155302466Y-59597021D01*
X155302462Y-59597018D01*
X155222937Y-59539239D01*
X155216175Y-59533960D01*
X155212000Y-59530461D01*
X155111947Y-59430408D01*
X155046259Y-59391560D01*
X155038477Y-59385038D01*
X155024510Y-59364073D01*
X155007321Y-59345663D01*
X155005471Y-59335492D01*
X154999740Y-59326890D01*
X154999324Y-59301702D01*
X154994817Y-59276921D01*
X154998758Y-59267366D01*
X154998588Y-59257030D01*
X155011856Y-59235616D01*
X155021462Y-59212332D01*
X155031874Y-59203309D01*
X155035389Y-59197638D01*
X155042127Y-59194425D01*
X155055004Y-59183268D01*
X155111947Y-59149592D01*
X155208148Y-59053389D01*
X155222939Y-59040758D01*
X155302464Y-58982981D01*
X155442981Y-58842464D01*
X155559787Y-58681694D01*
X155650005Y-58504632D01*
X155711413Y-58315636D01*
X155742500Y-58119361D01*
X155742500Y-57920639D01*
X155711413Y-57724364D01*
X155650005Y-57535368D01*
X155650005Y-57535367D01*
X155559786Y-57358305D01*
X155442981Y-57197536D01*
X155302464Y-57057019D01*
X155222937Y-56999239D01*
X155216175Y-56993960D01*
X155212000Y-56990461D01*
X155111947Y-56890408D01*
X155046259Y-56851560D01*
X155038477Y-56845038D01*
X155024510Y-56824073D01*
X155007321Y-56805663D01*
X155005471Y-56795492D01*
X154999740Y-56786890D01*
X154999324Y-56761702D01*
X154994817Y-56736921D01*
X154998758Y-56727366D01*
X154998588Y-56717030D01*
X155011856Y-56695616D01*
X155021462Y-56672332D01*
X155031874Y-56663309D01*
X155035389Y-56657638D01*
X155042127Y-56654425D01*
X155055004Y-56643268D01*
X155111947Y-56609592D01*
X155208148Y-56513389D01*
X155222939Y-56500758D01*
X155302464Y-56442981D01*
X155442981Y-56302464D01*
X155559787Y-56141694D01*
X155650005Y-55964632D01*
X155711413Y-55775636D01*
X155742500Y-55579361D01*
X155742500Y-55380639D01*
X155711413Y-55184364D01*
X155680709Y-55089866D01*
X155650006Y-54995370D01*
X155650005Y-54995367D01*
X155559786Y-54818305D01*
X155442981Y-54657536D01*
X155302464Y-54517019D01*
X155222937Y-54459239D01*
X155208147Y-54446608D01*
X155111947Y-54350408D01*
X155111946Y-54350407D01*
X155111943Y-54350405D01*
X154969957Y-54266435D01*
X154969954Y-54266434D01*
X154811552Y-54220413D01*
X154811546Y-54220412D01*
X154774541Y-54217500D01*
X154774534Y-54217500D01*
X152515466Y-54217500D01*
X152515458Y-54217500D01*
X152478453Y-54220412D01*
X152478447Y-54220413D01*
X152320045Y-54266434D01*
X152320042Y-54266435D01*
X152178056Y-54350405D01*
X152178047Y-54350412D01*
X152061412Y-54467047D01*
X152061405Y-54467056D01*
X151977435Y-54609042D01*
X151977434Y-54609045D01*
X151931413Y-54767447D01*
X151931412Y-54767453D01*
X151928500Y-54804458D01*
X149200500Y-54804458D01*
X149200500Y-53318817D01*
X149220185Y-53251778D01*
X149272989Y-53206023D01*
X149342147Y-53196079D01*
X149405703Y-53225104D01*
X149422868Y-53243322D01*
X149492718Y-53334351D01*
X149492722Y-53334355D01*
X149492726Y-53334360D01*
X149678140Y-53519774D01*
X149678148Y-53519781D01*
X149886196Y-53679424D01*
X150113299Y-53810541D01*
X150113309Y-53810546D01*
X150355571Y-53910894D01*
X150355581Y-53910898D01*
X150608884Y-53978770D01*
X150868880Y-54013000D01*
X150868887Y-54013000D01*
X151131113Y-54013000D01*
X151131120Y-54013000D01*
X151391116Y-53978770D01*
X151644419Y-53910898D01*
X151886697Y-53810543D01*
X152113803Y-53679424D01*
X152321851Y-53519782D01*
X152321855Y-53519777D01*
X152321860Y-53519774D01*
X152507274Y-53334360D01*
X152507277Y-53334355D01*
X152507282Y-53334351D01*
X152666924Y-53126303D01*
X152798043Y-52899197D01*
X152898398Y-52656919D01*
X152966270Y-52403616D01*
X153000500Y-52143620D01*
X153000500Y-51881380D01*
X152984849Y-51762500D01*
X152980218Y-51727323D01*
X152975892Y-51694473D01*
X152966270Y-51621384D01*
X152898398Y-51368081D01*
X152836538Y-51218737D01*
X152798046Y-51125809D01*
X152798041Y-51125799D01*
X152666924Y-50898696D01*
X152544424Y-50739054D01*
X152507282Y-50690649D01*
X152507281Y-50690648D01*
X152507274Y-50690640D01*
X152321860Y-50505226D01*
X152321855Y-50505222D01*
X152321851Y-50505218D01*
X152214537Y-50422873D01*
X152173338Y-50366448D01*
X152169183Y-50296702D01*
X152203396Y-50235781D01*
X152265113Y-50203029D01*
X152290027Y-50200500D01*
X156981416Y-50200500D01*
X157048455Y-50220185D01*
G37*
%TD.AperFunction*%
%TD*%
M02*
