%TF.GenerationSoftware,KiCad,Pcbnew,9.0.6*%
%TF.CreationDate,2025-11-19T22:56:00-05:00*%
%TF.ProjectId,CubeTrackerPCB,43756265-5472-4616-936b-65725043422e,rev?*%
%TF.SameCoordinates,Original*%
%TF.FileFunction,Legend,Bot*%
%TF.FilePolarity,Positive*%
%FSLAX46Y46*%
G04 Gerber Fmt 4.6, Leading zero omitted, Abs format (unit mm)*
G04 Created by KiCad (PCBNEW 9.0.6) date 2025-11-19 22:56:00*
%MOMM*%
%LPD*%
G01*
G04 APERTURE LIST*
%ADD10C,0.101600*%
%ADD11C,0.127000*%
%ADD12C,0.100000*%
%ADD13C,0.504000*%
G04 APERTURE END LIST*
D10*
X151896190Y-72666520D02*
X151896190Y-72152473D01*
X151896190Y-72152473D02*
X151926428Y-72091997D01*
X151926428Y-72091997D02*
X151956666Y-72061759D01*
X151956666Y-72061759D02*
X152017142Y-72031520D01*
X152017142Y-72031520D02*
X152138095Y-72031520D01*
X152138095Y-72031520D02*
X152198571Y-72061759D01*
X152198571Y-72061759D02*
X152228809Y-72091997D01*
X152228809Y-72091997D02*
X152259047Y-72152473D01*
X152259047Y-72152473D02*
X152259047Y-72666520D01*
X152894047Y-72031520D02*
X152531190Y-72031520D01*
X152712618Y-72031520D02*
X152712618Y-72666520D01*
X152712618Y-72666520D02*
X152652142Y-72575806D01*
X152652142Y-72575806D02*
X152591666Y-72515330D01*
X152591666Y-72515330D02*
X152531190Y-72485092D01*
D11*
%TO.C,U1*%
X153210000Y-54591000D02*
X153210000Y-71736000D01*
X155115000Y-52686000D02*
X169085000Y-52686000D01*
X157605000Y-73641000D02*
X157608728Y-74551272D01*
X158108728Y-75051000D02*
X166104000Y-75051000D01*
X166604000Y-74551000D02*
X166604000Y-73641000D01*
D12*
X169085000Y-73641000D02*
X155115000Y-73641000D01*
D11*
X169085000Y-73641000D02*
X155115000Y-73641000D01*
X170990000Y-54591000D02*
X170990000Y-71736000D01*
X153210000Y-54591000D02*
G75*
G02*
X155115000Y-52686000I1905001J-1D01*
G01*
X155115000Y-73641000D02*
G75*
G02*
X153210000Y-71736000I1J1905001D01*
G01*
X158108728Y-75051000D02*
G75*
G02*
X157608727Y-74551272I18J500019D01*
G01*
X166604000Y-74551000D02*
G75*
G02*
X166104000Y-75051000I-500000J0D01*
G01*
X169085000Y-52686000D02*
G75*
G02*
X170990000Y-54591000I0J-1905000D01*
G01*
X170990000Y-71736000D02*
G75*
G02*
X169085000Y-73641000I-1905000J0D01*
G01*
D13*
X153402000Y-73400000D02*
G75*
G02*
X152898000Y-73400000I-252000J0D01*
G01*
X152898000Y-73400000D02*
G75*
G02*
X153402000Y-73400000I252000J0D01*
G01*
X154545000Y-72520000D02*
G75*
G02*
X154041000Y-72520000I-252000J0D01*
G01*
X154041000Y-72520000D02*
G75*
G02*
X154545000Y-72520000I252000J0D01*
G01*
%TD*%
M02*
