%TF.GenerationSoftware,KiCad,Pcbnew,9.0.6*%
%TF.CreationDate,2025-11-19T22:56:00-05:00*%
%TF.ProjectId,CubeTrackerPCB,43756265-5472-4616-936b-65725043422e,rev?*%
%TF.SameCoordinates,Original*%
%TF.FileFunction,Soldermask,Top*%
%TF.FilePolarity,Negative*%
%FSLAX46Y46*%
G04 Gerber Fmt 4.6, Leading zero omitted, Abs format (unit mm)*
G04 Created by KiCad (PCBNEW 9.0.6) date 2025-11-19 22:56:00*
%MOMM*%
%LPD*%
G01*
G04 APERTURE LIST*
G04 Aperture macros list*
%AMRoundRect*
0 Rectangle with rounded corners*
0 $1 Rounding radius*
0 $2 $3 $4 $5 $6 $7 $8 $9 X,Y pos of 4 corners*
0 Add a 4 corners polygon primitive as box body*
4,1,4,$2,$3,$4,$5,$6,$7,$8,$9,$2,$3,0*
0 Add four circle primitives for the rounded corners*
1,1,$1+$1,$2,$3*
1,1,$1+$1,$4,$5*
1,1,$1+$1,$6,$7*
1,1,$1+$1,$8,$9*
0 Add four rect primitives between the rounded corners*
20,1,$1+$1,$2,$3,$4,$5,0*
20,1,$1+$1,$4,$5,$6,$7,0*
20,1,$1+$1,$6,$7,$8,$9,0*
20,1,$1+$1,$8,$9,$2,$3,0*%
G04 Aperture macros list end*
%ADD10C,0.010000*%
%ADD11RoundRect,0.225000X-0.225000X-0.250000X0.225000X-0.250000X0.225000X0.250000X-0.225000X0.250000X0*%
%ADD12RoundRect,0.200000X0.200000X0.275000X-0.200000X0.275000X-0.200000X-0.275000X0.200000X-0.275000X0*%
%ADD13RoundRect,0.102000X-0.754000X-0.754000X0.754000X-0.754000X0.754000X0.754000X-0.754000X0.754000X0*%
%ADD14C,1.712000*%
%ADD15C,3.204000*%
%ADD16RoundRect,0.225000X0.225000X0.250000X-0.225000X0.250000X-0.225000X-0.250000X0.225000X-0.250000X0*%
%ADD17RoundRect,0.200000X-0.200000X-0.275000X0.200000X-0.275000X0.200000X0.275000X-0.200000X0.275000X0*%
%ADD18C,1.524000*%
G04 APERTURE END LIST*
D10*
%TO.C,U2*%
X161543000Y-62976000D02*
X161550000Y-62977000D01*
X161556000Y-62978000D01*
X161562000Y-62979000D01*
X161569000Y-62981000D01*
X161575000Y-62983000D01*
X161581000Y-62986000D01*
X161587000Y-62989000D01*
X161593000Y-62992000D01*
X161598000Y-62995000D01*
X161603000Y-62999000D01*
X161609000Y-63003000D01*
X161614000Y-63007000D01*
X161618000Y-63012000D01*
X161623000Y-63016000D01*
X161627000Y-63021000D01*
X161631000Y-63027000D01*
X161635000Y-63032000D01*
X161638000Y-63038000D01*
X161641000Y-63043000D01*
X161644000Y-63049000D01*
X161647000Y-63055000D01*
X161649000Y-63061000D01*
X161651000Y-63068000D01*
X161652000Y-63074000D01*
X161653000Y-63080000D01*
X161654000Y-63087000D01*
X161655000Y-63093000D01*
X161655000Y-63100000D01*
X161655000Y-63300000D01*
X161655000Y-63307000D01*
X161654000Y-63313000D01*
X161653000Y-63320000D01*
X161652000Y-63326000D01*
X161651000Y-63332000D01*
X161649000Y-63339000D01*
X161647000Y-63345000D01*
X161644000Y-63351000D01*
X161641000Y-63357000D01*
X161638000Y-63363000D01*
X161635000Y-63368000D01*
X161631000Y-63373000D01*
X161627000Y-63379000D01*
X161623000Y-63384000D01*
X161618000Y-63388000D01*
X161614000Y-63393000D01*
X161609000Y-63397000D01*
X161603000Y-63401000D01*
X161598000Y-63405000D01*
X161593000Y-63408000D01*
X161587000Y-63411000D01*
X161581000Y-63414000D01*
X161575000Y-63417000D01*
X161569000Y-63419000D01*
X161562000Y-63421000D01*
X161556000Y-63422000D01*
X161550000Y-63423000D01*
X161543000Y-63424000D01*
X161537000Y-63425000D01*
X161530000Y-63425000D01*
X161090000Y-63425000D01*
X161083000Y-63425000D01*
X161077000Y-63424000D01*
X161070000Y-63423000D01*
X161064000Y-63422000D01*
X161058000Y-63421000D01*
X161051000Y-63419000D01*
X161045000Y-63417000D01*
X161039000Y-63414000D01*
X161033000Y-63411000D01*
X161027000Y-63408000D01*
X161022000Y-63405000D01*
X161017000Y-63401000D01*
X161011000Y-63397000D01*
X161006000Y-63393000D01*
X161002000Y-63388000D01*
X160997000Y-63384000D01*
X160993000Y-63379000D01*
X160989000Y-63373000D01*
X160985000Y-63368000D01*
X160982000Y-63362000D01*
X160979000Y-63357000D01*
X160976000Y-63351000D01*
X160973000Y-63345000D01*
X160971000Y-63339000D01*
X160969000Y-63332000D01*
X160968000Y-63326000D01*
X160967000Y-63320000D01*
X160966000Y-63313000D01*
X160965000Y-63307000D01*
X160965000Y-63300000D01*
X160965000Y-63100000D01*
X160965000Y-63093000D01*
X160966000Y-63087000D01*
X160967000Y-63080000D01*
X160968000Y-63074000D01*
X160969000Y-63068000D01*
X160971000Y-63061000D01*
X160973000Y-63055000D01*
X160976000Y-63049000D01*
X160979000Y-63043000D01*
X160982000Y-63038000D01*
X160985000Y-63032000D01*
X160989000Y-63027000D01*
X160993000Y-63021000D01*
X160997000Y-63016000D01*
X161002000Y-63012000D01*
X161006000Y-63007000D01*
X161011000Y-63003000D01*
X161017000Y-62999000D01*
X161022000Y-62995000D01*
X161027000Y-62992000D01*
X161033000Y-62989000D01*
X161039000Y-62986000D01*
X161045000Y-62983000D01*
X161051000Y-62981000D01*
X161058000Y-62979000D01*
X161064000Y-62978000D01*
X161070000Y-62977000D01*
X161077000Y-62976000D01*
X161083000Y-62975000D01*
X161090000Y-62975000D01*
X161530000Y-62975000D01*
X161537000Y-62975000D01*
X161543000Y-62976000D01*
G36*
X161543000Y-62976000D02*
G01*
X161550000Y-62977000D01*
X161556000Y-62978000D01*
X161562000Y-62979000D01*
X161569000Y-62981000D01*
X161575000Y-62983000D01*
X161581000Y-62986000D01*
X161587000Y-62989000D01*
X161593000Y-62992000D01*
X161598000Y-62995000D01*
X161603000Y-62999000D01*
X161609000Y-63003000D01*
X161614000Y-63007000D01*
X161618000Y-63012000D01*
X161623000Y-63016000D01*
X161627000Y-63021000D01*
X161631000Y-63027000D01*
X161635000Y-63032000D01*
X161638000Y-63038000D01*
X161641000Y-63043000D01*
X161644000Y-63049000D01*
X161647000Y-63055000D01*
X161649000Y-63061000D01*
X161651000Y-63068000D01*
X161652000Y-63074000D01*
X161653000Y-63080000D01*
X161654000Y-63087000D01*
X161655000Y-63093000D01*
X161655000Y-63100000D01*
X161655000Y-63300000D01*
X161655000Y-63307000D01*
X161654000Y-63313000D01*
X161653000Y-63320000D01*
X161652000Y-63326000D01*
X161651000Y-63332000D01*
X161649000Y-63339000D01*
X161647000Y-63345000D01*
X161644000Y-63351000D01*
X161641000Y-63357000D01*
X161638000Y-63363000D01*
X161635000Y-63368000D01*
X161631000Y-63373000D01*
X161627000Y-63379000D01*
X161623000Y-63384000D01*
X161618000Y-63388000D01*
X161614000Y-63393000D01*
X161609000Y-63397000D01*
X161603000Y-63401000D01*
X161598000Y-63405000D01*
X161593000Y-63408000D01*
X161587000Y-63411000D01*
X161581000Y-63414000D01*
X161575000Y-63417000D01*
X161569000Y-63419000D01*
X161562000Y-63421000D01*
X161556000Y-63422000D01*
X161550000Y-63423000D01*
X161543000Y-63424000D01*
X161537000Y-63425000D01*
X161530000Y-63425000D01*
X161090000Y-63425000D01*
X161083000Y-63425000D01*
X161077000Y-63424000D01*
X161070000Y-63423000D01*
X161064000Y-63422000D01*
X161058000Y-63421000D01*
X161051000Y-63419000D01*
X161045000Y-63417000D01*
X161039000Y-63414000D01*
X161033000Y-63411000D01*
X161027000Y-63408000D01*
X161022000Y-63405000D01*
X161017000Y-63401000D01*
X161011000Y-63397000D01*
X161006000Y-63393000D01*
X161002000Y-63388000D01*
X160997000Y-63384000D01*
X160993000Y-63379000D01*
X160989000Y-63373000D01*
X160985000Y-63368000D01*
X160982000Y-63362000D01*
X160979000Y-63357000D01*
X160976000Y-63351000D01*
X160973000Y-63345000D01*
X160971000Y-63339000D01*
X160969000Y-63332000D01*
X160968000Y-63326000D01*
X160967000Y-63320000D01*
X160966000Y-63313000D01*
X160965000Y-63307000D01*
X160965000Y-63300000D01*
X160965000Y-63100000D01*
X160965000Y-63093000D01*
X160966000Y-63087000D01*
X160967000Y-63080000D01*
X160968000Y-63074000D01*
X160969000Y-63068000D01*
X160971000Y-63061000D01*
X160973000Y-63055000D01*
X160976000Y-63049000D01*
X160979000Y-63043000D01*
X160982000Y-63038000D01*
X160985000Y-63032000D01*
X160989000Y-63027000D01*
X160993000Y-63021000D01*
X160997000Y-63016000D01*
X161002000Y-63012000D01*
X161006000Y-63007000D01*
X161011000Y-63003000D01*
X161017000Y-62999000D01*
X161022000Y-62995000D01*
X161027000Y-62992000D01*
X161033000Y-62989000D01*
X161039000Y-62986000D01*
X161045000Y-62983000D01*
X161051000Y-62981000D01*
X161058000Y-62979000D01*
X161064000Y-62978000D01*
X161070000Y-62977000D01*
X161077000Y-62976000D01*
X161083000Y-62975000D01*
X161090000Y-62975000D01*
X161530000Y-62975000D01*
X161537000Y-62975000D01*
X161543000Y-62976000D01*
G37*
X161543000Y-63476000D02*
X161550000Y-63477000D01*
X161556000Y-63478000D01*
X161562000Y-63479000D01*
X161569000Y-63481000D01*
X161575000Y-63483000D01*
X161581000Y-63486000D01*
X161587000Y-63489000D01*
X161593000Y-63492000D01*
X161598000Y-63495000D01*
X161603000Y-63499000D01*
X161609000Y-63503000D01*
X161614000Y-63507000D01*
X161618000Y-63512000D01*
X161623000Y-63516000D01*
X161627000Y-63521000D01*
X161631000Y-63527000D01*
X161635000Y-63532000D01*
X161638000Y-63537000D01*
X161641000Y-63543000D01*
X161644000Y-63549000D01*
X161647000Y-63555000D01*
X161649000Y-63561000D01*
X161651000Y-63568000D01*
X161652000Y-63574000D01*
X161653000Y-63580000D01*
X161654000Y-63587000D01*
X161655000Y-63593000D01*
X161655000Y-63600000D01*
X161655000Y-63800000D01*
X161655000Y-63807000D01*
X161654000Y-63813000D01*
X161653000Y-63820000D01*
X161652000Y-63826000D01*
X161651000Y-63832000D01*
X161649000Y-63839000D01*
X161647000Y-63845000D01*
X161644000Y-63851000D01*
X161641000Y-63857000D01*
X161638000Y-63863000D01*
X161635000Y-63868000D01*
X161631000Y-63873000D01*
X161627000Y-63879000D01*
X161623000Y-63884000D01*
X161618000Y-63888000D01*
X161614000Y-63893000D01*
X161609000Y-63897000D01*
X161603000Y-63901000D01*
X161598000Y-63905000D01*
X161593000Y-63908000D01*
X161587000Y-63911000D01*
X161581000Y-63914000D01*
X161575000Y-63917000D01*
X161569000Y-63919000D01*
X161562000Y-63921000D01*
X161556000Y-63922000D01*
X161550000Y-63923000D01*
X161543000Y-63924000D01*
X161537000Y-63925000D01*
X161530000Y-63925000D01*
X161090000Y-63925000D01*
X161083000Y-63925000D01*
X161077000Y-63924000D01*
X161070000Y-63923000D01*
X161064000Y-63922000D01*
X161058000Y-63921000D01*
X161051000Y-63919000D01*
X161045000Y-63917000D01*
X161039000Y-63914000D01*
X161033000Y-63911000D01*
X161027000Y-63908000D01*
X161022000Y-63905000D01*
X161017000Y-63901000D01*
X161011000Y-63897000D01*
X161006000Y-63893000D01*
X161002000Y-63888000D01*
X160997000Y-63884000D01*
X160993000Y-63879000D01*
X160989000Y-63873000D01*
X160985000Y-63868000D01*
X160982000Y-63862000D01*
X160979000Y-63857000D01*
X160976000Y-63851000D01*
X160973000Y-63845000D01*
X160971000Y-63839000D01*
X160969000Y-63832000D01*
X160968000Y-63826000D01*
X160967000Y-63820000D01*
X160966000Y-63813000D01*
X160965000Y-63807000D01*
X160965000Y-63800000D01*
X160965000Y-63600000D01*
X160965000Y-63593000D01*
X160966000Y-63587000D01*
X160967000Y-63580000D01*
X160968000Y-63574000D01*
X160969000Y-63568000D01*
X160971000Y-63561000D01*
X160973000Y-63555000D01*
X160976000Y-63549000D01*
X160979000Y-63543000D01*
X160982000Y-63537000D01*
X160985000Y-63532000D01*
X160989000Y-63527000D01*
X160993000Y-63521000D01*
X160997000Y-63516000D01*
X161002000Y-63512000D01*
X161006000Y-63507000D01*
X161011000Y-63503000D01*
X161017000Y-63499000D01*
X161022000Y-63495000D01*
X161027000Y-63492000D01*
X161033000Y-63489000D01*
X161039000Y-63486000D01*
X161045000Y-63483000D01*
X161051000Y-63481000D01*
X161058000Y-63479000D01*
X161064000Y-63478000D01*
X161070000Y-63477000D01*
X161077000Y-63476000D01*
X161083000Y-63475000D01*
X161090000Y-63475000D01*
X161530000Y-63475000D01*
X161537000Y-63475000D01*
X161543000Y-63476000D01*
G36*
X161543000Y-63476000D02*
G01*
X161550000Y-63477000D01*
X161556000Y-63478000D01*
X161562000Y-63479000D01*
X161569000Y-63481000D01*
X161575000Y-63483000D01*
X161581000Y-63486000D01*
X161587000Y-63489000D01*
X161593000Y-63492000D01*
X161598000Y-63495000D01*
X161603000Y-63499000D01*
X161609000Y-63503000D01*
X161614000Y-63507000D01*
X161618000Y-63512000D01*
X161623000Y-63516000D01*
X161627000Y-63521000D01*
X161631000Y-63527000D01*
X161635000Y-63532000D01*
X161638000Y-63537000D01*
X161641000Y-63543000D01*
X161644000Y-63549000D01*
X161647000Y-63555000D01*
X161649000Y-63561000D01*
X161651000Y-63568000D01*
X161652000Y-63574000D01*
X161653000Y-63580000D01*
X161654000Y-63587000D01*
X161655000Y-63593000D01*
X161655000Y-63600000D01*
X161655000Y-63800000D01*
X161655000Y-63807000D01*
X161654000Y-63813000D01*
X161653000Y-63820000D01*
X161652000Y-63826000D01*
X161651000Y-63832000D01*
X161649000Y-63839000D01*
X161647000Y-63845000D01*
X161644000Y-63851000D01*
X161641000Y-63857000D01*
X161638000Y-63863000D01*
X161635000Y-63868000D01*
X161631000Y-63873000D01*
X161627000Y-63879000D01*
X161623000Y-63884000D01*
X161618000Y-63888000D01*
X161614000Y-63893000D01*
X161609000Y-63897000D01*
X161603000Y-63901000D01*
X161598000Y-63905000D01*
X161593000Y-63908000D01*
X161587000Y-63911000D01*
X161581000Y-63914000D01*
X161575000Y-63917000D01*
X161569000Y-63919000D01*
X161562000Y-63921000D01*
X161556000Y-63922000D01*
X161550000Y-63923000D01*
X161543000Y-63924000D01*
X161537000Y-63925000D01*
X161530000Y-63925000D01*
X161090000Y-63925000D01*
X161083000Y-63925000D01*
X161077000Y-63924000D01*
X161070000Y-63923000D01*
X161064000Y-63922000D01*
X161058000Y-63921000D01*
X161051000Y-63919000D01*
X161045000Y-63917000D01*
X161039000Y-63914000D01*
X161033000Y-63911000D01*
X161027000Y-63908000D01*
X161022000Y-63905000D01*
X161017000Y-63901000D01*
X161011000Y-63897000D01*
X161006000Y-63893000D01*
X161002000Y-63888000D01*
X160997000Y-63884000D01*
X160993000Y-63879000D01*
X160989000Y-63873000D01*
X160985000Y-63868000D01*
X160982000Y-63862000D01*
X160979000Y-63857000D01*
X160976000Y-63851000D01*
X160973000Y-63845000D01*
X160971000Y-63839000D01*
X160969000Y-63832000D01*
X160968000Y-63826000D01*
X160967000Y-63820000D01*
X160966000Y-63813000D01*
X160965000Y-63807000D01*
X160965000Y-63800000D01*
X160965000Y-63600000D01*
X160965000Y-63593000D01*
X160966000Y-63587000D01*
X160967000Y-63580000D01*
X160968000Y-63574000D01*
X160969000Y-63568000D01*
X160971000Y-63561000D01*
X160973000Y-63555000D01*
X160976000Y-63549000D01*
X160979000Y-63543000D01*
X160982000Y-63537000D01*
X160985000Y-63532000D01*
X160989000Y-63527000D01*
X160993000Y-63521000D01*
X160997000Y-63516000D01*
X161002000Y-63512000D01*
X161006000Y-63507000D01*
X161011000Y-63503000D01*
X161017000Y-63499000D01*
X161022000Y-63495000D01*
X161027000Y-63492000D01*
X161033000Y-63489000D01*
X161039000Y-63486000D01*
X161045000Y-63483000D01*
X161051000Y-63481000D01*
X161058000Y-63479000D01*
X161064000Y-63478000D01*
X161070000Y-63477000D01*
X161077000Y-63476000D01*
X161083000Y-63475000D01*
X161090000Y-63475000D01*
X161530000Y-63475000D01*
X161537000Y-63475000D01*
X161543000Y-63476000D01*
G37*
X161543000Y-63976000D02*
X161550000Y-63977000D01*
X161556000Y-63978000D01*
X161562000Y-63979000D01*
X161569000Y-63981000D01*
X161575000Y-63983000D01*
X161581000Y-63986000D01*
X161587000Y-63989000D01*
X161593000Y-63992000D01*
X161598000Y-63995000D01*
X161603000Y-63999000D01*
X161609000Y-64003000D01*
X161614000Y-64007000D01*
X161618000Y-64012000D01*
X161623000Y-64016000D01*
X161627000Y-64021000D01*
X161631000Y-64027000D01*
X161635000Y-64032000D01*
X161638000Y-64038000D01*
X161641000Y-64043000D01*
X161644000Y-64049000D01*
X161647000Y-64055000D01*
X161649000Y-64061000D01*
X161651000Y-64068000D01*
X161652000Y-64074000D01*
X161653000Y-64080000D01*
X161654000Y-64087000D01*
X161655000Y-64093000D01*
X161655000Y-64100000D01*
X161655000Y-64300000D01*
X161655000Y-64307000D01*
X161654000Y-64313000D01*
X161653000Y-64320000D01*
X161652000Y-64326000D01*
X161651000Y-64332000D01*
X161649000Y-64339000D01*
X161647000Y-64345000D01*
X161644000Y-64351000D01*
X161641000Y-64357000D01*
X161638000Y-64363000D01*
X161635000Y-64368000D01*
X161631000Y-64373000D01*
X161627000Y-64379000D01*
X161623000Y-64384000D01*
X161618000Y-64388000D01*
X161614000Y-64393000D01*
X161609000Y-64397000D01*
X161603000Y-64401000D01*
X161598000Y-64405000D01*
X161593000Y-64408000D01*
X161587000Y-64411000D01*
X161581000Y-64414000D01*
X161575000Y-64417000D01*
X161569000Y-64419000D01*
X161562000Y-64421000D01*
X161556000Y-64422000D01*
X161550000Y-64423000D01*
X161543000Y-64424000D01*
X161537000Y-64425000D01*
X161530000Y-64425000D01*
X161090000Y-64425000D01*
X161083000Y-64425000D01*
X161077000Y-64424000D01*
X161070000Y-64423000D01*
X161064000Y-64422000D01*
X161058000Y-64421000D01*
X161051000Y-64419000D01*
X161045000Y-64417000D01*
X161039000Y-64414000D01*
X161033000Y-64411000D01*
X161027000Y-64408000D01*
X161022000Y-64405000D01*
X161017000Y-64401000D01*
X161011000Y-64397000D01*
X161006000Y-64393000D01*
X161002000Y-64388000D01*
X160997000Y-64384000D01*
X160993000Y-64379000D01*
X160989000Y-64373000D01*
X160985000Y-64368000D01*
X160982000Y-64362000D01*
X160979000Y-64357000D01*
X160976000Y-64351000D01*
X160973000Y-64345000D01*
X160971000Y-64339000D01*
X160969000Y-64332000D01*
X160968000Y-64326000D01*
X160967000Y-64320000D01*
X160966000Y-64313000D01*
X160965000Y-64307000D01*
X160965000Y-64300000D01*
X160965000Y-64100000D01*
X160965000Y-64093000D01*
X160966000Y-64087000D01*
X160967000Y-64080000D01*
X160968000Y-64074000D01*
X160969000Y-64068000D01*
X160971000Y-64061000D01*
X160973000Y-64055000D01*
X160976000Y-64049000D01*
X160979000Y-64043000D01*
X160982000Y-64038000D01*
X160985000Y-64032000D01*
X160989000Y-64027000D01*
X160993000Y-64021000D01*
X160997000Y-64016000D01*
X161002000Y-64012000D01*
X161006000Y-64007000D01*
X161011000Y-64003000D01*
X161017000Y-63999000D01*
X161022000Y-63995000D01*
X161027000Y-63992000D01*
X161033000Y-63989000D01*
X161039000Y-63986000D01*
X161045000Y-63983000D01*
X161051000Y-63981000D01*
X161058000Y-63979000D01*
X161064000Y-63978000D01*
X161070000Y-63977000D01*
X161077000Y-63976000D01*
X161083000Y-63975000D01*
X161090000Y-63975000D01*
X161530000Y-63975000D01*
X161537000Y-63975000D01*
X161543000Y-63976000D01*
G36*
X161543000Y-63976000D02*
G01*
X161550000Y-63977000D01*
X161556000Y-63978000D01*
X161562000Y-63979000D01*
X161569000Y-63981000D01*
X161575000Y-63983000D01*
X161581000Y-63986000D01*
X161587000Y-63989000D01*
X161593000Y-63992000D01*
X161598000Y-63995000D01*
X161603000Y-63999000D01*
X161609000Y-64003000D01*
X161614000Y-64007000D01*
X161618000Y-64012000D01*
X161623000Y-64016000D01*
X161627000Y-64021000D01*
X161631000Y-64027000D01*
X161635000Y-64032000D01*
X161638000Y-64038000D01*
X161641000Y-64043000D01*
X161644000Y-64049000D01*
X161647000Y-64055000D01*
X161649000Y-64061000D01*
X161651000Y-64068000D01*
X161652000Y-64074000D01*
X161653000Y-64080000D01*
X161654000Y-64087000D01*
X161655000Y-64093000D01*
X161655000Y-64100000D01*
X161655000Y-64300000D01*
X161655000Y-64307000D01*
X161654000Y-64313000D01*
X161653000Y-64320000D01*
X161652000Y-64326000D01*
X161651000Y-64332000D01*
X161649000Y-64339000D01*
X161647000Y-64345000D01*
X161644000Y-64351000D01*
X161641000Y-64357000D01*
X161638000Y-64363000D01*
X161635000Y-64368000D01*
X161631000Y-64373000D01*
X161627000Y-64379000D01*
X161623000Y-64384000D01*
X161618000Y-64388000D01*
X161614000Y-64393000D01*
X161609000Y-64397000D01*
X161603000Y-64401000D01*
X161598000Y-64405000D01*
X161593000Y-64408000D01*
X161587000Y-64411000D01*
X161581000Y-64414000D01*
X161575000Y-64417000D01*
X161569000Y-64419000D01*
X161562000Y-64421000D01*
X161556000Y-64422000D01*
X161550000Y-64423000D01*
X161543000Y-64424000D01*
X161537000Y-64425000D01*
X161530000Y-64425000D01*
X161090000Y-64425000D01*
X161083000Y-64425000D01*
X161077000Y-64424000D01*
X161070000Y-64423000D01*
X161064000Y-64422000D01*
X161058000Y-64421000D01*
X161051000Y-64419000D01*
X161045000Y-64417000D01*
X161039000Y-64414000D01*
X161033000Y-64411000D01*
X161027000Y-64408000D01*
X161022000Y-64405000D01*
X161017000Y-64401000D01*
X161011000Y-64397000D01*
X161006000Y-64393000D01*
X161002000Y-64388000D01*
X160997000Y-64384000D01*
X160993000Y-64379000D01*
X160989000Y-64373000D01*
X160985000Y-64368000D01*
X160982000Y-64362000D01*
X160979000Y-64357000D01*
X160976000Y-64351000D01*
X160973000Y-64345000D01*
X160971000Y-64339000D01*
X160969000Y-64332000D01*
X160968000Y-64326000D01*
X160967000Y-64320000D01*
X160966000Y-64313000D01*
X160965000Y-64307000D01*
X160965000Y-64300000D01*
X160965000Y-64100000D01*
X160965000Y-64093000D01*
X160966000Y-64087000D01*
X160967000Y-64080000D01*
X160968000Y-64074000D01*
X160969000Y-64068000D01*
X160971000Y-64061000D01*
X160973000Y-64055000D01*
X160976000Y-64049000D01*
X160979000Y-64043000D01*
X160982000Y-64038000D01*
X160985000Y-64032000D01*
X160989000Y-64027000D01*
X160993000Y-64021000D01*
X160997000Y-64016000D01*
X161002000Y-64012000D01*
X161006000Y-64007000D01*
X161011000Y-64003000D01*
X161017000Y-63999000D01*
X161022000Y-63995000D01*
X161027000Y-63992000D01*
X161033000Y-63989000D01*
X161039000Y-63986000D01*
X161045000Y-63983000D01*
X161051000Y-63981000D01*
X161058000Y-63979000D01*
X161064000Y-63978000D01*
X161070000Y-63977000D01*
X161077000Y-63976000D01*
X161083000Y-63975000D01*
X161090000Y-63975000D01*
X161530000Y-63975000D01*
X161537000Y-63975000D01*
X161543000Y-63976000D01*
G37*
X161588000Y-62191000D02*
X161595000Y-62192000D01*
X161601000Y-62193000D01*
X161607000Y-62194000D01*
X161614000Y-62196000D01*
X161620000Y-62198000D01*
X161626000Y-62201000D01*
X161632000Y-62204000D01*
X161637000Y-62207000D01*
X161643000Y-62210000D01*
X161648000Y-62214000D01*
X161654000Y-62218000D01*
X161659000Y-62222000D01*
X161663000Y-62227000D01*
X161668000Y-62231000D01*
X161672000Y-62236000D01*
X161676000Y-62242000D01*
X161680000Y-62247000D01*
X161683000Y-62252000D01*
X161686000Y-62258000D01*
X161689000Y-62264000D01*
X161692000Y-62270000D01*
X161694000Y-62276000D01*
X161696000Y-62283000D01*
X161697000Y-62289000D01*
X161698000Y-62295000D01*
X161699000Y-62302000D01*
X161700000Y-62308000D01*
X161700000Y-62315000D01*
X161700000Y-62755000D01*
X161700000Y-62762000D01*
X161699000Y-62768000D01*
X161698000Y-62775000D01*
X161697000Y-62781000D01*
X161696000Y-62787000D01*
X161694000Y-62794000D01*
X161692000Y-62800000D01*
X161689000Y-62806000D01*
X161686000Y-62812000D01*
X161683000Y-62818000D01*
X161680000Y-62823000D01*
X161676000Y-62828000D01*
X161672000Y-62834000D01*
X161668000Y-62839000D01*
X161663000Y-62843000D01*
X161659000Y-62848000D01*
X161654000Y-62852000D01*
X161648000Y-62856000D01*
X161643000Y-62860000D01*
X161637000Y-62863000D01*
X161632000Y-62866000D01*
X161626000Y-62869000D01*
X161620000Y-62872000D01*
X161614000Y-62874000D01*
X161607000Y-62876000D01*
X161601000Y-62877000D01*
X161595000Y-62878000D01*
X161588000Y-62879000D01*
X161582000Y-62880000D01*
X161575000Y-62880000D01*
X161375000Y-62880000D01*
X161368000Y-62880000D01*
X161362000Y-62879000D01*
X161355000Y-62878000D01*
X161349000Y-62877000D01*
X161343000Y-62876000D01*
X161336000Y-62874000D01*
X161330000Y-62872000D01*
X161324000Y-62869000D01*
X161318000Y-62866000D01*
X161313000Y-62863000D01*
X161307000Y-62860000D01*
X161302000Y-62856000D01*
X161296000Y-62852000D01*
X161291000Y-62848000D01*
X161287000Y-62843000D01*
X161282000Y-62839000D01*
X161278000Y-62834000D01*
X161274000Y-62828000D01*
X161270000Y-62823000D01*
X161267000Y-62818000D01*
X161264000Y-62812000D01*
X161261000Y-62806000D01*
X161258000Y-62800000D01*
X161256000Y-62794000D01*
X161254000Y-62787000D01*
X161253000Y-62781000D01*
X161252000Y-62775000D01*
X161251000Y-62768000D01*
X161250000Y-62762000D01*
X161250000Y-62755000D01*
X161250000Y-62315000D01*
X161250000Y-62308000D01*
X161251000Y-62302000D01*
X161252000Y-62295000D01*
X161253000Y-62289000D01*
X161254000Y-62283000D01*
X161256000Y-62276000D01*
X161258000Y-62270000D01*
X161261000Y-62264000D01*
X161264000Y-62258000D01*
X161267000Y-62252000D01*
X161270000Y-62247000D01*
X161274000Y-62242000D01*
X161278000Y-62236000D01*
X161282000Y-62231000D01*
X161287000Y-62227000D01*
X161291000Y-62222000D01*
X161296000Y-62218000D01*
X161302000Y-62214000D01*
X161307000Y-62210000D01*
X161313000Y-62207000D01*
X161318000Y-62204000D01*
X161324000Y-62201000D01*
X161330000Y-62198000D01*
X161336000Y-62196000D01*
X161343000Y-62194000D01*
X161349000Y-62193000D01*
X161355000Y-62192000D01*
X161362000Y-62191000D01*
X161368000Y-62190000D01*
X161375000Y-62190000D01*
X161575000Y-62190000D01*
X161582000Y-62190000D01*
X161588000Y-62191000D01*
G36*
X161588000Y-62191000D02*
G01*
X161595000Y-62192000D01*
X161601000Y-62193000D01*
X161607000Y-62194000D01*
X161614000Y-62196000D01*
X161620000Y-62198000D01*
X161626000Y-62201000D01*
X161632000Y-62204000D01*
X161637000Y-62207000D01*
X161643000Y-62210000D01*
X161648000Y-62214000D01*
X161654000Y-62218000D01*
X161659000Y-62222000D01*
X161663000Y-62227000D01*
X161668000Y-62231000D01*
X161672000Y-62236000D01*
X161676000Y-62242000D01*
X161680000Y-62247000D01*
X161683000Y-62252000D01*
X161686000Y-62258000D01*
X161689000Y-62264000D01*
X161692000Y-62270000D01*
X161694000Y-62276000D01*
X161696000Y-62283000D01*
X161697000Y-62289000D01*
X161698000Y-62295000D01*
X161699000Y-62302000D01*
X161700000Y-62308000D01*
X161700000Y-62315000D01*
X161700000Y-62755000D01*
X161700000Y-62762000D01*
X161699000Y-62768000D01*
X161698000Y-62775000D01*
X161697000Y-62781000D01*
X161696000Y-62787000D01*
X161694000Y-62794000D01*
X161692000Y-62800000D01*
X161689000Y-62806000D01*
X161686000Y-62812000D01*
X161683000Y-62818000D01*
X161680000Y-62823000D01*
X161676000Y-62828000D01*
X161672000Y-62834000D01*
X161668000Y-62839000D01*
X161663000Y-62843000D01*
X161659000Y-62848000D01*
X161654000Y-62852000D01*
X161648000Y-62856000D01*
X161643000Y-62860000D01*
X161637000Y-62863000D01*
X161632000Y-62866000D01*
X161626000Y-62869000D01*
X161620000Y-62872000D01*
X161614000Y-62874000D01*
X161607000Y-62876000D01*
X161601000Y-62877000D01*
X161595000Y-62878000D01*
X161588000Y-62879000D01*
X161582000Y-62880000D01*
X161575000Y-62880000D01*
X161375000Y-62880000D01*
X161368000Y-62880000D01*
X161362000Y-62879000D01*
X161355000Y-62878000D01*
X161349000Y-62877000D01*
X161343000Y-62876000D01*
X161336000Y-62874000D01*
X161330000Y-62872000D01*
X161324000Y-62869000D01*
X161318000Y-62866000D01*
X161313000Y-62863000D01*
X161307000Y-62860000D01*
X161302000Y-62856000D01*
X161296000Y-62852000D01*
X161291000Y-62848000D01*
X161287000Y-62843000D01*
X161282000Y-62839000D01*
X161278000Y-62834000D01*
X161274000Y-62828000D01*
X161270000Y-62823000D01*
X161267000Y-62818000D01*
X161264000Y-62812000D01*
X161261000Y-62806000D01*
X161258000Y-62800000D01*
X161256000Y-62794000D01*
X161254000Y-62787000D01*
X161253000Y-62781000D01*
X161252000Y-62775000D01*
X161251000Y-62768000D01*
X161250000Y-62762000D01*
X161250000Y-62755000D01*
X161250000Y-62315000D01*
X161250000Y-62308000D01*
X161251000Y-62302000D01*
X161252000Y-62295000D01*
X161253000Y-62289000D01*
X161254000Y-62283000D01*
X161256000Y-62276000D01*
X161258000Y-62270000D01*
X161261000Y-62264000D01*
X161264000Y-62258000D01*
X161267000Y-62252000D01*
X161270000Y-62247000D01*
X161274000Y-62242000D01*
X161278000Y-62236000D01*
X161282000Y-62231000D01*
X161287000Y-62227000D01*
X161291000Y-62222000D01*
X161296000Y-62218000D01*
X161302000Y-62214000D01*
X161307000Y-62210000D01*
X161313000Y-62207000D01*
X161318000Y-62204000D01*
X161324000Y-62201000D01*
X161330000Y-62198000D01*
X161336000Y-62196000D01*
X161343000Y-62194000D01*
X161349000Y-62193000D01*
X161355000Y-62192000D01*
X161362000Y-62191000D01*
X161368000Y-62190000D01*
X161375000Y-62190000D01*
X161575000Y-62190000D01*
X161582000Y-62190000D01*
X161588000Y-62191000D01*
G37*
X161588000Y-64521000D02*
X161595000Y-64522000D01*
X161601000Y-64523000D01*
X161607000Y-64524000D01*
X161614000Y-64526000D01*
X161620000Y-64528000D01*
X161626000Y-64531000D01*
X161632000Y-64534000D01*
X161637000Y-64537000D01*
X161643000Y-64540000D01*
X161648000Y-64544000D01*
X161654000Y-64548000D01*
X161659000Y-64552000D01*
X161663000Y-64557000D01*
X161668000Y-64561000D01*
X161672000Y-64566000D01*
X161676000Y-64572000D01*
X161680000Y-64577000D01*
X161683000Y-64582000D01*
X161686000Y-64588000D01*
X161689000Y-64594000D01*
X161692000Y-64600000D01*
X161694000Y-64606000D01*
X161696000Y-64613000D01*
X161697000Y-64619000D01*
X161698000Y-64625000D01*
X161699000Y-64632000D01*
X161700000Y-64638000D01*
X161700000Y-64645000D01*
X161700000Y-65085000D01*
X161700000Y-65092000D01*
X161699000Y-65098000D01*
X161698000Y-65105000D01*
X161697000Y-65111000D01*
X161696000Y-65117000D01*
X161694000Y-65124000D01*
X161692000Y-65130000D01*
X161689000Y-65136000D01*
X161686000Y-65142000D01*
X161683000Y-65148000D01*
X161680000Y-65153000D01*
X161676000Y-65158000D01*
X161672000Y-65164000D01*
X161668000Y-65169000D01*
X161663000Y-65173000D01*
X161659000Y-65178000D01*
X161654000Y-65182000D01*
X161648000Y-65186000D01*
X161643000Y-65190000D01*
X161637000Y-65193000D01*
X161632000Y-65196000D01*
X161626000Y-65199000D01*
X161620000Y-65202000D01*
X161614000Y-65204000D01*
X161607000Y-65206000D01*
X161601000Y-65207000D01*
X161595000Y-65208000D01*
X161588000Y-65209000D01*
X161582000Y-65210000D01*
X161575000Y-65210000D01*
X161375000Y-65210000D01*
X161368000Y-65210000D01*
X161362000Y-65209000D01*
X161355000Y-65208000D01*
X161349000Y-65207000D01*
X161343000Y-65206000D01*
X161336000Y-65204000D01*
X161330000Y-65202000D01*
X161324000Y-65199000D01*
X161318000Y-65196000D01*
X161313000Y-65193000D01*
X161307000Y-65190000D01*
X161302000Y-65186000D01*
X161296000Y-65182000D01*
X161291000Y-65178000D01*
X161287000Y-65173000D01*
X161282000Y-65169000D01*
X161278000Y-65164000D01*
X161274000Y-65158000D01*
X161270000Y-65153000D01*
X161267000Y-65148000D01*
X161264000Y-65142000D01*
X161261000Y-65136000D01*
X161258000Y-65130000D01*
X161256000Y-65124000D01*
X161254000Y-65117000D01*
X161253000Y-65111000D01*
X161252000Y-65105000D01*
X161251000Y-65098000D01*
X161250000Y-65092000D01*
X161250000Y-65085000D01*
X161250000Y-64645000D01*
X161250000Y-64638000D01*
X161251000Y-64632000D01*
X161252000Y-64625000D01*
X161253000Y-64619000D01*
X161254000Y-64613000D01*
X161256000Y-64606000D01*
X161258000Y-64600000D01*
X161261000Y-64594000D01*
X161264000Y-64588000D01*
X161267000Y-64582000D01*
X161270000Y-64577000D01*
X161274000Y-64572000D01*
X161278000Y-64566000D01*
X161282000Y-64561000D01*
X161287000Y-64557000D01*
X161291000Y-64552000D01*
X161296000Y-64548000D01*
X161302000Y-64544000D01*
X161307000Y-64540000D01*
X161313000Y-64537000D01*
X161318000Y-64534000D01*
X161324000Y-64531000D01*
X161330000Y-64528000D01*
X161336000Y-64526000D01*
X161343000Y-64524000D01*
X161349000Y-64523000D01*
X161355000Y-64522000D01*
X161362000Y-64521000D01*
X161368000Y-64520000D01*
X161375000Y-64520000D01*
X161575000Y-64520000D01*
X161582000Y-64520000D01*
X161588000Y-64521000D01*
G36*
X161588000Y-64521000D02*
G01*
X161595000Y-64522000D01*
X161601000Y-64523000D01*
X161607000Y-64524000D01*
X161614000Y-64526000D01*
X161620000Y-64528000D01*
X161626000Y-64531000D01*
X161632000Y-64534000D01*
X161637000Y-64537000D01*
X161643000Y-64540000D01*
X161648000Y-64544000D01*
X161654000Y-64548000D01*
X161659000Y-64552000D01*
X161663000Y-64557000D01*
X161668000Y-64561000D01*
X161672000Y-64566000D01*
X161676000Y-64572000D01*
X161680000Y-64577000D01*
X161683000Y-64582000D01*
X161686000Y-64588000D01*
X161689000Y-64594000D01*
X161692000Y-64600000D01*
X161694000Y-64606000D01*
X161696000Y-64613000D01*
X161697000Y-64619000D01*
X161698000Y-64625000D01*
X161699000Y-64632000D01*
X161700000Y-64638000D01*
X161700000Y-64645000D01*
X161700000Y-65085000D01*
X161700000Y-65092000D01*
X161699000Y-65098000D01*
X161698000Y-65105000D01*
X161697000Y-65111000D01*
X161696000Y-65117000D01*
X161694000Y-65124000D01*
X161692000Y-65130000D01*
X161689000Y-65136000D01*
X161686000Y-65142000D01*
X161683000Y-65148000D01*
X161680000Y-65153000D01*
X161676000Y-65158000D01*
X161672000Y-65164000D01*
X161668000Y-65169000D01*
X161663000Y-65173000D01*
X161659000Y-65178000D01*
X161654000Y-65182000D01*
X161648000Y-65186000D01*
X161643000Y-65190000D01*
X161637000Y-65193000D01*
X161632000Y-65196000D01*
X161626000Y-65199000D01*
X161620000Y-65202000D01*
X161614000Y-65204000D01*
X161607000Y-65206000D01*
X161601000Y-65207000D01*
X161595000Y-65208000D01*
X161588000Y-65209000D01*
X161582000Y-65210000D01*
X161575000Y-65210000D01*
X161375000Y-65210000D01*
X161368000Y-65210000D01*
X161362000Y-65209000D01*
X161355000Y-65208000D01*
X161349000Y-65207000D01*
X161343000Y-65206000D01*
X161336000Y-65204000D01*
X161330000Y-65202000D01*
X161324000Y-65199000D01*
X161318000Y-65196000D01*
X161313000Y-65193000D01*
X161307000Y-65190000D01*
X161302000Y-65186000D01*
X161296000Y-65182000D01*
X161291000Y-65178000D01*
X161287000Y-65173000D01*
X161282000Y-65169000D01*
X161278000Y-65164000D01*
X161274000Y-65158000D01*
X161270000Y-65153000D01*
X161267000Y-65148000D01*
X161264000Y-65142000D01*
X161261000Y-65136000D01*
X161258000Y-65130000D01*
X161256000Y-65124000D01*
X161254000Y-65117000D01*
X161253000Y-65111000D01*
X161252000Y-65105000D01*
X161251000Y-65098000D01*
X161250000Y-65092000D01*
X161250000Y-65085000D01*
X161250000Y-64645000D01*
X161250000Y-64638000D01*
X161251000Y-64632000D01*
X161252000Y-64625000D01*
X161253000Y-64619000D01*
X161254000Y-64613000D01*
X161256000Y-64606000D01*
X161258000Y-64600000D01*
X161261000Y-64594000D01*
X161264000Y-64588000D01*
X161267000Y-64582000D01*
X161270000Y-64577000D01*
X161274000Y-64572000D01*
X161278000Y-64566000D01*
X161282000Y-64561000D01*
X161287000Y-64557000D01*
X161291000Y-64552000D01*
X161296000Y-64548000D01*
X161302000Y-64544000D01*
X161307000Y-64540000D01*
X161313000Y-64537000D01*
X161318000Y-64534000D01*
X161324000Y-64531000D01*
X161330000Y-64528000D01*
X161336000Y-64526000D01*
X161343000Y-64524000D01*
X161349000Y-64523000D01*
X161355000Y-64522000D01*
X161362000Y-64521000D01*
X161368000Y-64520000D01*
X161375000Y-64520000D01*
X161575000Y-64520000D01*
X161582000Y-64520000D01*
X161588000Y-64521000D01*
G37*
X162088000Y-62191000D02*
X162095000Y-62192000D01*
X162101000Y-62193000D01*
X162107000Y-62194000D01*
X162114000Y-62196000D01*
X162120000Y-62198000D01*
X162126000Y-62201000D01*
X162132000Y-62204000D01*
X162137000Y-62207000D01*
X162143000Y-62210000D01*
X162148000Y-62214000D01*
X162154000Y-62218000D01*
X162159000Y-62222000D01*
X162163000Y-62227000D01*
X162168000Y-62231000D01*
X162172000Y-62236000D01*
X162176000Y-62242000D01*
X162180000Y-62247000D01*
X162183000Y-62252000D01*
X162186000Y-62258000D01*
X162189000Y-62264000D01*
X162192000Y-62270000D01*
X162194000Y-62276000D01*
X162196000Y-62283000D01*
X162197000Y-62289000D01*
X162198000Y-62295000D01*
X162199000Y-62302000D01*
X162200000Y-62308000D01*
X162200000Y-62315000D01*
X162200000Y-62755000D01*
X162200000Y-62762000D01*
X162199000Y-62768000D01*
X162198000Y-62775000D01*
X162197000Y-62781000D01*
X162196000Y-62787000D01*
X162194000Y-62794000D01*
X162192000Y-62800000D01*
X162189000Y-62806000D01*
X162186000Y-62812000D01*
X162183000Y-62818000D01*
X162180000Y-62823000D01*
X162176000Y-62828000D01*
X162172000Y-62834000D01*
X162168000Y-62839000D01*
X162163000Y-62843000D01*
X162159000Y-62848000D01*
X162154000Y-62852000D01*
X162148000Y-62856000D01*
X162143000Y-62860000D01*
X162137000Y-62863000D01*
X162132000Y-62866000D01*
X162126000Y-62869000D01*
X162120000Y-62872000D01*
X162114000Y-62874000D01*
X162107000Y-62876000D01*
X162101000Y-62877000D01*
X162095000Y-62878000D01*
X162088000Y-62879000D01*
X162082000Y-62880000D01*
X162075000Y-62880000D01*
X161875000Y-62880000D01*
X161868000Y-62880000D01*
X161862000Y-62879000D01*
X161855000Y-62878000D01*
X161849000Y-62877000D01*
X161843000Y-62876000D01*
X161836000Y-62874000D01*
X161830000Y-62872000D01*
X161824000Y-62869000D01*
X161818000Y-62866000D01*
X161813000Y-62863000D01*
X161807000Y-62860000D01*
X161802000Y-62856000D01*
X161796000Y-62852000D01*
X161791000Y-62848000D01*
X161787000Y-62843000D01*
X161782000Y-62839000D01*
X161778000Y-62834000D01*
X161774000Y-62828000D01*
X161770000Y-62823000D01*
X161767000Y-62818000D01*
X161764000Y-62812000D01*
X161761000Y-62806000D01*
X161758000Y-62800000D01*
X161756000Y-62794000D01*
X161754000Y-62787000D01*
X161753000Y-62781000D01*
X161752000Y-62775000D01*
X161751000Y-62768000D01*
X161750000Y-62762000D01*
X161750000Y-62755000D01*
X161750000Y-62315000D01*
X161750000Y-62308000D01*
X161751000Y-62302000D01*
X161752000Y-62295000D01*
X161753000Y-62289000D01*
X161754000Y-62283000D01*
X161756000Y-62276000D01*
X161758000Y-62270000D01*
X161761000Y-62264000D01*
X161764000Y-62258000D01*
X161767000Y-62252000D01*
X161770000Y-62247000D01*
X161774000Y-62242000D01*
X161778000Y-62236000D01*
X161782000Y-62231000D01*
X161787000Y-62227000D01*
X161791000Y-62222000D01*
X161796000Y-62218000D01*
X161802000Y-62214000D01*
X161807000Y-62210000D01*
X161813000Y-62207000D01*
X161818000Y-62204000D01*
X161824000Y-62201000D01*
X161830000Y-62198000D01*
X161836000Y-62196000D01*
X161843000Y-62194000D01*
X161849000Y-62193000D01*
X161855000Y-62192000D01*
X161862000Y-62191000D01*
X161868000Y-62190000D01*
X161875000Y-62190000D01*
X162075000Y-62190000D01*
X162082000Y-62190000D01*
X162088000Y-62191000D01*
G36*
X162088000Y-62191000D02*
G01*
X162095000Y-62192000D01*
X162101000Y-62193000D01*
X162107000Y-62194000D01*
X162114000Y-62196000D01*
X162120000Y-62198000D01*
X162126000Y-62201000D01*
X162132000Y-62204000D01*
X162137000Y-62207000D01*
X162143000Y-62210000D01*
X162148000Y-62214000D01*
X162154000Y-62218000D01*
X162159000Y-62222000D01*
X162163000Y-62227000D01*
X162168000Y-62231000D01*
X162172000Y-62236000D01*
X162176000Y-62242000D01*
X162180000Y-62247000D01*
X162183000Y-62252000D01*
X162186000Y-62258000D01*
X162189000Y-62264000D01*
X162192000Y-62270000D01*
X162194000Y-62276000D01*
X162196000Y-62283000D01*
X162197000Y-62289000D01*
X162198000Y-62295000D01*
X162199000Y-62302000D01*
X162200000Y-62308000D01*
X162200000Y-62315000D01*
X162200000Y-62755000D01*
X162200000Y-62762000D01*
X162199000Y-62768000D01*
X162198000Y-62775000D01*
X162197000Y-62781000D01*
X162196000Y-62787000D01*
X162194000Y-62794000D01*
X162192000Y-62800000D01*
X162189000Y-62806000D01*
X162186000Y-62812000D01*
X162183000Y-62818000D01*
X162180000Y-62823000D01*
X162176000Y-62828000D01*
X162172000Y-62834000D01*
X162168000Y-62839000D01*
X162163000Y-62843000D01*
X162159000Y-62848000D01*
X162154000Y-62852000D01*
X162148000Y-62856000D01*
X162143000Y-62860000D01*
X162137000Y-62863000D01*
X162132000Y-62866000D01*
X162126000Y-62869000D01*
X162120000Y-62872000D01*
X162114000Y-62874000D01*
X162107000Y-62876000D01*
X162101000Y-62877000D01*
X162095000Y-62878000D01*
X162088000Y-62879000D01*
X162082000Y-62880000D01*
X162075000Y-62880000D01*
X161875000Y-62880000D01*
X161868000Y-62880000D01*
X161862000Y-62879000D01*
X161855000Y-62878000D01*
X161849000Y-62877000D01*
X161843000Y-62876000D01*
X161836000Y-62874000D01*
X161830000Y-62872000D01*
X161824000Y-62869000D01*
X161818000Y-62866000D01*
X161813000Y-62863000D01*
X161807000Y-62860000D01*
X161802000Y-62856000D01*
X161796000Y-62852000D01*
X161791000Y-62848000D01*
X161787000Y-62843000D01*
X161782000Y-62839000D01*
X161778000Y-62834000D01*
X161774000Y-62828000D01*
X161770000Y-62823000D01*
X161767000Y-62818000D01*
X161764000Y-62812000D01*
X161761000Y-62806000D01*
X161758000Y-62800000D01*
X161756000Y-62794000D01*
X161754000Y-62787000D01*
X161753000Y-62781000D01*
X161752000Y-62775000D01*
X161751000Y-62768000D01*
X161750000Y-62762000D01*
X161750000Y-62755000D01*
X161750000Y-62315000D01*
X161750000Y-62308000D01*
X161751000Y-62302000D01*
X161752000Y-62295000D01*
X161753000Y-62289000D01*
X161754000Y-62283000D01*
X161756000Y-62276000D01*
X161758000Y-62270000D01*
X161761000Y-62264000D01*
X161764000Y-62258000D01*
X161767000Y-62252000D01*
X161770000Y-62247000D01*
X161774000Y-62242000D01*
X161778000Y-62236000D01*
X161782000Y-62231000D01*
X161787000Y-62227000D01*
X161791000Y-62222000D01*
X161796000Y-62218000D01*
X161802000Y-62214000D01*
X161807000Y-62210000D01*
X161813000Y-62207000D01*
X161818000Y-62204000D01*
X161824000Y-62201000D01*
X161830000Y-62198000D01*
X161836000Y-62196000D01*
X161843000Y-62194000D01*
X161849000Y-62193000D01*
X161855000Y-62192000D01*
X161862000Y-62191000D01*
X161868000Y-62190000D01*
X161875000Y-62190000D01*
X162075000Y-62190000D01*
X162082000Y-62190000D01*
X162088000Y-62191000D01*
G37*
X162088000Y-64521000D02*
X162095000Y-64522000D01*
X162101000Y-64523000D01*
X162107000Y-64524000D01*
X162114000Y-64526000D01*
X162120000Y-64528000D01*
X162126000Y-64531000D01*
X162132000Y-64534000D01*
X162137000Y-64537000D01*
X162143000Y-64540000D01*
X162148000Y-64544000D01*
X162154000Y-64548000D01*
X162159000Y-64552000D01*
X162163000Y-64557000D01*
X162168000Y-64561000D01*
X162172000Y-64566000D01*
X162176000Y-64572000D01*
X162180000Y-64577000D01*
X162183000Y-64582000D01*
X162186000Y-64588000D01*
X162189000Y-64594000D01*
X162192000Y-64600000D01*
X162194000Y-64606000D01*
X162196000Y-64613000D01*
X162197000Y-64619000D01*
X162198000Y-64625000D01*
X162199000Y-64632000D01*
X162200000Y-64638000D01*
X162200000Y-64645000D01*
X162200000Y-65085000D01*
X162200000Y-65092000D01*
X162199000Y-65098000D01*
X162198000Y-65105000D01*
X162197000Y-65111000D01*
X162196000Y-65117000D01*
X162194000Y-65124000D01*
X162192000Y-65130000D01*
X162189000Y-65136000D01*
X162186000Y-65142000D01*
X162183000Y-65148000D01*
X162180000Y-65153000D01*
X162176000Y-65158000D01*
X162172000Y-65164000D01*
X162168000Y-65169000D01*
X162163000Y-65173000D01*
X162159000Y-65178000D01*
X162154000Y-65182000D01*
X162148000Y-65186000D01*
X162143000Y-65190000D01*
X162137000Y-65193000D01*
X162132000Y-65196000D01*
X162126000Y-65199000D01*
X162120000Y-65202000D01*
X162114000Y-65204000D01*
X162107000Y-65206000D01*
X162101000Y-65207000D01*
X162095000Y-65208000D01*
X162088000Y-65209000D01*
X162082000Y-65210000D01*
X162075000Y-65210000D01*
X161875000Y-65210000D01*
X161868000Y-65210000D01*
X161862000Y-65209000D01*
X161855000Y-65208000D01*
X161849000Y-65207000D01*
X161843000Y-65206000D01*
X161836000Y-65204000D01*
X161830000Y-65202000D01*
X161824000Y-65199000D01*
X161818000Y-65196000D01*
X161813000Y-65193000D01*
X161807000Y-65190000D01*
X161802000Y-65186000D01*
X161796000Y-65182000D01*
X161791000Y-65178000D01*
X161787000Y-65173000D01*
X161782000Y-65169000D01*
X161778000Y-65164000D01*
X161774000Y-65158000D01*
X161770000Y-65153000D01*
X161767000Y-65148000D01*
X161764000Y-65142000D01*
X161761000Y-65136000D01*
X161758000Y-65130000D01*
X161756000Y-65124000D01*
X161754000Y-65117000D01*
X161753000Y-65111000D01*
X161752000Y-65105000D01*
X161751000Y-65098000D01*
X161750000Y-65092000D01*
X161750000Y-65085000D01*
X161750000Y-64645000D01*
X161750000Y-64638000D01*
X161751000Y-64632000D01*
X161752000Y-64625000D01*
X161753000Y-64619000D01*
X161754000Y-64613000D01*
X161756000Y-64606000D01*
X161758000Y-64600000D01*
X161761000Y-64594000D01*
X161764000Y-64588000D01*
X161767000Y-64582000D01*
X161770000Y-64577000D01*
X161774000Y-64572000D01*
X161778000Y-64566000D01*
X161782000Y-64561000D01*
X161787000Y-64557000D01*
X161791000Y-64552000D01*
X161796000Y-64548000D01*
X161802000Y-64544000D01*
X161807000Y-64540000D01*
X161813000Y-64537000D01*
X161818000Y-64534000D01*
X161824000Y-64531000D01*
X161830000Y-64528000D01*
X161836000Y-64526000D01*
X161843000Y-64524000D01*
X161849000Y-64523000D01*
X161855000Y-64522000D01*
X161862000Y-64521000D01*
X161868000Y-64520000D01*
X161875000Y-64520000D01*
X162075000Y-64520000D01*
X162082000Y-64520000D01*
X162088000Y-64521000D01*
G36*
X162088000Y-64521000D02*
G01*
X162095000Y-64522000D01*
X162101000Y-64523000D01*
X162107000Y-64524000D01*
X162114000Y-64526000D01*
X162120000Y-64528000D01*
X162126000Y-64531000D01*
X162132000Y-64534000D01*
X162137000Y-64537000D01*
X162143000Y-64540000D01*
X162148000Y-64544000D01*
X162154000Y-64548000D01*
X162159000Y-64552000D01*
X162163000Y-64557000D01*
X162168000Y-64561000D01*
X162172000Y-64566000D01*
X162176000Y-64572000D01*
X162180000Y-64577000D01*
X162183000Y-64582000D01*
X162186000Y-64588000D01*
X162189000Y-64594000D01*
X162192000Y-64600000D01*
X162194000Y-64606000D01*
X162196000Y-64613000D01*
X162197000Y-64619000D01*
X162198000Y-64625000D01*
X162199000Y-64632000D01*
X162200000Y-64638000D01*
X162200000Y-64645000D01*
X162200000Y-65085000D01*
X162200000Y-65092000D01*
X162199000Y-65098000D01*
X162198000Y-65105000D01*
X162197000Y-65111000D01*
X162196000Y-65117000D01*
X162194000Y-65124000D01*
X162192000Y-65130000D01*
X162189000Y-65136000D01*
X162186000Y-65142000D01*
X162183000Y-65148000D01*
X162180000Y-65153000D01*
X162176000Y-65158000D01*
X162172000Y-65164000D01*
X162168000Y-65169000D01*
X162163000Y-65173000D01*
X162159000Y-65178000D01*
X162154000Y-65182000D01*
X162148000Y-65186000D01*
X162143000Y-65190000D01*
X162137000Y-65193000D01*
X162132000Y-65196000D01*
X162126000Y-65199000D01*
X162120000Y-65202000D01*
X162114000Y-65204000D01*
X162107000Y-65206000D01*
X162101000Y-65207000D01*
X162095000Y-65208000D01*
X162088000Y-65209000D01*
X162082000Y-65210000D01*
X162075000Y-65210000D01*
X161875000Y-65210000D01*
X161868000Y-65210000D01*
X161862000Y-65209000D01*
X161855000Y-65208000D01*
X161849000Y-65207000D01*
X161843000Y-65206000D01*
X161836000Y-65204000D01*
X161830000Y-65202000D01*
X161824000Y-65199000D01*
X161818000Y-65196000D01*
X161813000Y-65193000D01*
X161807000Y-65190000D01*
X161802000Y-65186000D01*
X161796000Y-65182000D01*
X161791000Y-65178000D01*
X161787000Y-65173000D01*
X161782000Y-65169000D01*
X161778000Y-65164000D01*
X161774000Y-65158000D01*
X161770000Y-65153000D01*
X161767000Y-65148000D01*
X161764000Y-65142000D01*
X161761000Y-65136000D01*
X161758000Y-65130000D01*
X161756000Y-65124000D01*
X161754000Y-65117000D01*
X161753000Y-65111000D01*
X161752000Y-65105000D01*
X161751000Y-65098000D01*
X161750000Y-65092000D01*
X161750000Y-65085000D01*
X161750000Y-64645000D01*
X161750000Y-64638000D01*
X161751000Y-64632000D01*
X161752000Y-64625000D01*
X161753000Y-64619000D01*
X161754000Y-64613000D01*
X161756000Y-64606000D01*
X161758000Y-64600000D01*
X161761000Y-64594000D01*
X161764000Y-64588000D01*
X161767000Y-64582000D01*
X161770000Y-64577000D01*
X161774000Y-64572000D01*
X161778000Y-64566000D01*
X161782000Y-64561000D01*
X161787000Y-64557000D01*
X161791000Y-64552000D01*
X161796000Y-64548000D01*
X161802000Y-64544000D01*
X161807000Y-64540000D01*
X161813000Y-64537000D01*
X161818000Y-64534000D01*
X161824000Y-64531000D01*
X161830000Y-64528000D01*
X161836000Y-64526000D01*
X161843000Y-64524000D01*
X161849000Y-64523000D01*
X161855000Y-64522000D01*
X161862000Y-64521000D01*
X161868000Y-64520000D01*
X161875000Y-64520000D01*
X162075000Y-64520000D01*
X162082000Y-64520000D01*
X162088000Y-64521000D01*
G37*
X162588000Y-62191000D02*
X162595000Y-62192000D01*
X162601000Y-62193000D01*
X162607000Y-62194000D01*
X162614000Y-62196000D01*
X162620000Y-62198000D01*
X162626000Y-62201000D01*
X162632000Y-62204000D01*
X162637000Y-62207000D01*
X162643000Y-62210000D01*
X162648000Y-62214000D01*
X162654000Y-62218000D01*
X162659000Y-62222000D01*
X162663000Y-62227000D01*
X162668000Y-62231000D01*
X162672000Y-62236000D01*
X162676000Y-62242000D01*
X162680000Y-62247000D01*
X162683000Y-62252000D01*
X162686000Y-62258000D01*
X162689000Y-62264000D01*
X162692000Y-62270000D01*
X162694000Y-62276000D01*
X162696000Y-62283000D01*
X162697000Y-62289000D01*
X162698000Y-62295000D01*
X162699000Y-62302000D01*
X162700000Y-62308000D01*
X162700000Y-62315000D01*
X162700000Y-62755000D01*
X162700000Y-62762000D01*
X162699000Y-62768000D01*
X162698000Y-62775000D01*
X162697000Y-62781000D01*
X162696000Y-62787000D01*
X162694000Y-62794000D01*
X162692000Y-62800000D01*
X162689000Y-62806000D01*
X162686000Y-62812000D01*
X162683000Y-62818000D01*
X162680000Y-62823000D01*
X162676000Y-62828000D01*
X162672000Y-62834000D01*
X162668000Y-62839000D01*
X162663000Y-62843000D01*
X162659000Y-62848000D01*
X162654000Y-62852000D01*
X162648000Y-62856000D01*
X162643000Y-62860000D01*
X162637000Y-62863000D01*
X162632000Y-62866000D01*
X162626000Y-62869000D01*
X162620000Y-62872000D01*
X162614000Y-62874000D01*
X162607000Y-62876000D01*
X162601000Y-62877000D01*
X162595000Y-62878000D01*
X162588000Y-62879000D01*
X162582000Y-62880000D01*
X162575000Y-62880000D01*
X162375000Y-62880000D01*
X162368000Y-62880000D01*
X162362000Y-62879000D01*
X162355000Y-62878000D01*
X162349000Y-62877000D01*
X162343000Y-62876000D01*
X162336000Y-62874000D01*
X162330000Y-62872000D01*
X162324000Y-62869000D01*
X162318000Y-62866000D01*
X162313000Y-62863000D01*
X162307000Y-62860000D01*
X162302000Y-62856000D01*
X162296000Y-62852000D01*
X162291000Y-62848000D01*
X162287000Y-62843000D01*
X162282000Y-62839000D01*
X162278000Y-62834000D01*
X162274000Y-62828000D01*
X162270000Y-62823000D01*
X162267000Y-62818000D01*
X162264000Y-62812000D01*
X162261000Y-62806000D01*
X162258000Y-62800000D01*
X162256000Y-62794000D01*
X162254000Y-62787000D01*
X162253000Y-62781000D01*
X162252000Y-62775000D01*
X162251000Y-62768000D01*
X162250000Y-62762000D01*
X162250000Y-62755000D01*
X162250000Y-62315000D01*
X162250000Y-62308000D01*
X162251000Y-62302000D01*
X162252000Y-62295000D01*
X162253000Y-62289000D01*
X162254000Y-62283000D01*
X162256000Y-62276000D01*
X162258000Y-62270000D01*
X162261000Y-62264000D01*
X162264000Y-62258000D01*
X162267000Y-62252000D01*
X162270000Y-62247000D01*
X162274000Y-62242000D01*
X162278000Y-62236000D01*
X162282000Y-62231000D01*
X162287000Y-62227000D01*
X162291000Y-62222000D01*
X162296000Y-62218000D01*
X162302000Y-62214000D01*
X162307000Y-62210000D01*
X162313000Y-62207000D01*
X162318000Y-62204000D01*
X162324000Y-62201000D01*
X162330000Y-62198000D01*
X162336000Y-62196000D01*
X162343000Y-62194000D01*
X162349000Y-62193000D01*
X162355000Y-62192000D01*
X162362000Y-62191000D01*
X162368000Y-62190000D01*
X162375000Y-62190000D01*
X162575000Y-62190000D01*
X162582000Y-62190000D01*
X162588000Y-62191000D01*
G36*
X162588000Y-62191000D02*
G01*
X162595000Y-62192000D01*
X162601000Y-62193000D01*
X162607000Y-62194000D01*
X162614000Y-62196000D01*
X162620000Y-62198000D01*
X162626000Y-62201000D01*
X162632000Y-62204000D01*
X162637000Y-62207000D01*
X162643000Y-62210000D01*
X162648000Y-62214000D01*
X162654000Y-62218000D01*
X162659000Y-62222000D01*
X162663000Y-62227000D01*
X162668000Y-62231000D01*
X162672000Y-62236000D01*
X162676000Y-62242000D01*
X162680000Y-62247000D01*
X162683000Y-62252000D01*
X162686000Y-62258000D01*
X162689000Y-62264000D01*
X162692000Y-62270000D01*
X162694000Y-62276000D01*
X162696000Y-62283000D01*
X162697000Y-62289000D01*
X162698000Y-62295000D01*
X162699000Y-62302000D01*
X162700000Y-62308000D01*
X162700000Y-62315000D01*
X162700000Y-62755000D01*
X162700000Y-62762000D01*
X162699000Y-62768000D01*
X162698000Y-62775000D01*
X162697000Y-62781000D01*
X162696000Y-62787000D01*
X162694000Y-62794000D01*
X162692000Y-62800000D01*
X162689000Y-62806000D01*
X162686000Y-62812000D01*
X162683000Y-62818000D01*
X162680000Y-62823000D01*
X162676000Y-62828000D01*
X162672000Y-62834000D01*
X162668000Y-62839000D01*
X162663000Y-62843000D01*
X162659000Y-62848000D01*
X162654000Y-62852000D01*
X162648000Y-62856000D01*
X162643000Y-62860000D01*
X162637000Y-62863000D01*
X162632000Y-62866000D01*
X162626000Y-62869000D01*
X162620000Y-62872000D01*
X162614000Y-62874000D01*
X162607000Y-62876000D01*
X162601000Y-62877000D01*
X162595000Y-62878000D01*
X162588000Y-62879000D01*
X162582000Y-62880000D01*
X162575000Y-62880000D01*
X162375000Y-62880000D01*
X162368000Y-62880000D01*
X162362000Y-62879000D01*
X162355000Y-62878000D01*
X162349000Y-62877000D01*
X162343000Y-62876000D01*
X162336000Y-62874000D01*
X162330000Y-62872000D01*
X162324000Y-62869000D01*
X162318000Y-62866000D01*
X162313000Y-62863000D01*
X162307000Y-62860000D01*
X162302000Y-62856000D01*
X162296000Y-62852000D01*
X162291000Y-62848000D01*
X162287000Y-62843000D01*
X162282000Y-62839000D01*
X162278000Y-62834000D01*
X162274000Y-62828000D01*
X162270000Y-62823000D01*
X162267000Y-62818000D01*
X162264000Y-62812000D01*
X162261000Y-62806000D01*
X162258000Y-62800000D01*
X162256000Y-62794000D01*
X162254000Y-62787000D01*
X162253000Y-62781000D01*
X162252000Y-62775000D01*
X162251000Y-62768000D01*
X162250000Y-62762000D01*
X162250000Y-62755000D01*
X162250000Y-62315000D01*
X162250000Y-62308000D01*
X162251000Y-62302000D01*
X162252000Y-62295000D01*
X162253000Y-62289000D01*
X162254000Y-62283000D01*
X162256000Y-62276000D01*
X162258000Y-62270000D01*
X162261000Y-62264000D01*
X162264000Y-62258000D01*
X162267000Y-62252000D01*
X162270000Y-62247000D01*
X162274000Y-62242000D01*
X162278000Y-62236000D01*
X162282000Y-62231000D01*
X162287000Y-62227000D01*
X162291000Y-62222000D01*
X162296000Y-62218000D01*
X162302000Y-62214000D01*
X162307000Y-62210000D01*
X162313000Y-62207000D01*
X162318000Y-62204000D01*
X162324000Y-62201000D01*
X162330000Y-62198000D01*
X162336000Y-62196000D01*
X162343000Y-62194000D01*
X162349000Y-62193000D01*
X162355000Y-62192000D01*
X162362000Y-62191000D01*
X162368000Y-62190000D01*
X162375000Y-62190000D01*
X162575000Y-62190000D01*
X162582000Y-62190000D01*
X162588000Y-62191000D01*
G37*
X162588000Y-64521000D02*
X162595000Y-64522000D01*
X162601000Y-64523000D01*
X162607000Y-64524000D01*
X162614000Y-64526000D01*
X162620000Y-64528000D01*
X162626000Y-64531000D01*
X162632000Y-64534000D01*
X162637000Y-64537000D01*
X162643000Y-64540000D01*
X162648000Y-64544000D01*
X162654000Y-64548000D01*
X162659000Y-64552000D01*
X162663000Y-64557000D01*
X162668000Y-64561000D01*
X162672000Y-64566000D01*
X162676000Y-64572000D01*
X162680000Y-64577000D01*
X162683000Y-64582000D01*
X162686000Y-64588000D01*
X162689000Y-64594000D01*
X162692000Y-64600000D01*
X162694000Y-64606000D01*
X162696000Y-64613000D01*
X162697000Y-64619000D01*
X162698000Y-64625000D01*
X162699000Y-64632000D01*
X162700000Y-64638000D01*
X162700000Y-64645000D01*
X162700000Y-65085000D01*
X162700000Y-65092000D01*
X162699000Y-65098000D01*
X162698000Y-65105000D01*
X162697000Y-65111000D01*
X162696000Y-65117000D01*
X162694000Y-65124000D01*
X162692000Y-65130000D01*
X162689000Y-65136000D01*
X162686000Y-65142000D01*
X162683000Y-65148000D01*
X162680000Y-65153000D01*
X162676000Y-65158000D01*
X162672000Y-65164000D01*
X162668000Y-65169000D01*
X162663000Y-65173000D01*
X162659000Y-65178000D01*
X162654000Y-65182000D01*
X162648000Y-65186000D01*
X162643000Y-65190000D01*
X162637000Y-65193000D01*
X162632000Y-65196000D01*
X162626000Y-65199000D01*
X162620000Y-65202000D01*
X162614000Y-65204000D01*
X162607000Y-65206000D01*
X162601000Y-65207000D01*
X162595000Y-65208000D01*
X162588000Y-65209000D01*
X162582000Y-65210000D01*
X162575000Y-65210000D01*
X162375000Y-65210000D01*
X162368000Y-65210000D01*
X162362000Y-65209000D01*
X162355000Y-65208000D01*
X162349000Y-65207000D01*
X162343000Y-65206000D01*
X162336000Y-65204000D01*
X162330000Y-65202000D01*
X162324000Y-65199000D01*
X162318000Y-65196000D01*
X162313000Y-65193000D01*
X162307000Y-65190000D01*
X162302000Y-65186000D01*
X162296000Y-65182000D01*
X162291000Y-65178000D01*
X162287000Y-65173000D01*
X162282000Y-65169000D01*
X162278000Y-65164000D01*
X162274000Y-65158000D01*
X162270000Y-65153000D01*
X162267000Y-65148000D01*
X162264000Y-65142000D01*
X162261000Y-65136000D01*
X162258000Y-65130000D01*
X162256000Y-65124000D01*
X162254000Y-65117000D01*
X162253000Y-65111000D01*
X162252000Y-65105000D01*
X162251000Y-65098000D01*
X162250000Y-65092000D01*
X162250000Y-65085000D01*
X162250000Y-64645000D01*
X162250000Y-64638000D01*
X162251000Y-64632000D01*
X162252000Y-64625000D01*
X162253000Y-64619000D01*
X162254000Y-64613000D01*
X162256000Y-64606000D01*
X162258000Y-64600000D01*
X162261000Y-64594000D01*
X162264000Y-64588000D01*
X162267000Y-64582000D01*
X162270000Y-64577000D01*
X162274000Y-64572000D01*
X162278000Y-64566000D01*
X162282000Y-64561000D01*
X162287000Y-64557000D01*
X162291000Y-64552000D01*
X162296000Y-64548000D01*
X162302000Y-64544000D01*
X162307000Y-64540000D01*
X162313000Y-64537000D01*
X162318000Y-64534000D01*
X162324000Y-64531000D01*
X162330000Y-64528000D01*
X162336000Y-64526000D01*
X162343000Y-64524000D01*
X162349000Y-64523000D01*
X162355000Y-64522000D01*
X162362000Y-64521000D01*
X162368000Y-64520000D01*
X162375000Y-64520000D01*
X162575000Y-64520000D01*
X162582000Y-64520000D01*
X162588000Y-64521000D01*
G36*
X162588000Y-64521000D02*
G01*
X162595000Y-64522000D01*
X162601000Y-64523000D01*
X162607000Y-64524000D01*
X162614000Y-64526000D01*
X162620000Y-64528000D01*
X162626000Y-64531000D01*
X162632000Y-64534000D01*
X162637000Y-64537000D01*
X162643000Y-64540000D01*
X162648000Y-64544000D01*
X162654000Y-64548000D01*
X162659000Y-64552000D01*
X162663000Y-64557000D01*
X162668000Y-64561000D01*
X162672000Y-64566000D01*
X162676000Y-64572000D01*
X162680000Y-64577000D01*
X162683000Y-64582000D01*
X162686000Y-64588000D01*
X162689000Y-64594000D01*
X162692000Y-64600000D01*
X162694000Y-64606000D01*
X162696000Y-64613000D01*
X162697000Y-64619000D01*
X162698000Y-64625000D01*
X162699000Y-64632000D01*
X162700000Y-64638000D01*
X162700000Y-64645000D01*
X162700000Y-65085000D01*
X162700000Y-65092000D01*
X162699000Y-65098000D01*
X162698000Y-65105000D01*
X162697000Y-65111000D01*
X162696000Y-65117000D01*
X162694000Y-65124000D01*
X162692000Y-65130000D01*
X162689000Y-65136000D01*
X162686000Y-65142000D01*
X162683000Y-65148000D01*
X162680000Y-65153000D01*
X162676000Y-65158000D01*
X162672000Y-65164000D01*
X162668000Y-65169000D01*
X162663000Y-65173000D01*
X162659000Y-65178000D01*
X162654000Y-65182000D01*
X162648000Y-65186000D01*
X162643000Y-65190000D01*
X162637000Y-65193000D01*
X162632000Y-65196000D01*
X162626000Y-65199000D01*
X162620000Y-65202000D01*
X162614000Y-65204000D01*
X162607000Y-65206000D01*
X162601000Y-65207000D01*
X162595000Y-65208000D01*
X162588000Y-65209000D01*
X162582000Y-65210000D01*
X162575000Y-65210000D01*
X162375000Y-65210000D01*
X162368000Y-65210000D01*
X162362000Y-65209000D01*
X162355000Y-65208000D01*
X162349000Y-65207000D01*
X162343000Y-65206000D01*
X162336000Y-65204000D01*
X162330000Y-65202000D01*
X162324000Y-65199000D01*
X162318000Y-65196000D01*
X162313000Y-65193000D01*
X162307000Y-65190000D01*
X162302000Y-65186000D01*
X162296000Y-65182000D01*
X162291000Y-65178000D01*
X162287000Y-65173000D01*
X162282000Y-65169000D01*
X162278000Y-65164000D01*
X162274000Y-65158000D01*
X162270000Y-65153000D01*
X162267000Y-65148000D01*
X162264000Y-65142000D01*
X162261000Y-65136000D01*
X162258000Y-65130000D01*
X162256000Y-65124000D01*
X162254000Y-65117000D01*
X162253000Y-65111000D01*
X162252000Y-65105000D01*
X162251000Y-65098000D01*
X162250000Y-65092000D01*
X162250000Y-65085000D01*
X162250000Y-64645000D01*
X162250000Y-64638000D01*
X162251000Y-64632000D01*
X162252000Y-64625000D01*
X162253000Y-64619000D01*
X162254000Y-64613000D01*
X162256000Y-64606000D01*
X162258000Y-64600000D01*
X162261000Y-64594000D01*
X162264000Y-64588000D01*
X162267000Y-64582000D01*
X162270000Y-64577000D01*
X162274000Y-64572000D01*
X162278000Y-64566000D01*
X162282000Y-64561000D01*
X162287000Y-64557000D01*
X162291000Y-64552000D01*
X162296000Y-64548000D01*
X162302000Y-64544000D01*
X162307000Y-64540000D01*
X162313000Y-64537000D01*
X162318000Y-64534000D01*
X162324000Y-64531000D01*
X162330000Y-64528000D01*
X162336000Y-64526000D01*
X162343000Y-64524000D01*
X162349000Y-64523000D01*
X162355000Y-64522000D01*
X162362000Y-64521000D01*
X162368000Y-64520000D01*
X162375000Y-64520000D01*
X162575000Y-64520000D01*
X162582000Y-64520000D01*
X162588000Y-64521000D01*
G37*
X163373000Y-62976000D02*
X163380000Y-62977000D01*
X163386000Y-62978000D01*
X163392000Y-62979000D01*
X163399000Y-62981000D01*
X163405000Y-62983000D01*
X163411000Y-62986000D01*
X163417000Y-62989000D01*
X163423000Y-62992000D01*
X163428000Y-62995000D01*
X163433000Y-62999000D01*
X163439000Y-63003000D01*
X163444000Y-63007000D01*
X163448000Y-63012000D01*
X163453000Y-63016000D01*
X163457000Y-63021000D01*
X163461000Y-63027000D01*
X163465000Y-63032000D01*
X163468000Y-63038000D01*
X163471000Y-63043000D01*
X163474000Y-63049000D01*
X163477000Y-63055000D01*
X163479000Y-63061000D01*
X163481000Y-63068000D01*
X163482000Y-63074000D01*
X163483000Y-63080000D01*
X163484000Y-63087000D01*
X163485000Y-63093000D01*
X163485000Y-63100000D01*
X163485000Y-63300000D01*
X163485000Y-63307000D01*
X163484000Y-63313000D01*
X163483000Y-63320000D01*
X163482000Y-63326000D01*
X163481000Y-63332000D01*
X163479000Y-63339000D01*
X163477000Y-63345000D01*
X163474000Y-63351000D01*
X163471000Y-63357000D01*
X163468000Y-63363000D01*
X163465000Y-63368000D01*
X163461000Y-63373000D01*
X163457000Y-63379000D01*
X163453000Y-63384000D01*
X163448000Y-63388000D01*
X163444000Y-63393000D01*
X163439000Y-63397000D01*
X163433000Y-63401000D01*
X163428000Y-63405000D01*
X163423000Y-63408000D01*
X163417000Y-63411000D01*
X163411000Y-63414000D01*
X163405000Y-63417000D01*
X163399000Y-63419000D01*
X163392000Y-63421000D01*
X163386000Y-63422000D01*
X163380000Y-63423000D01*
X163373000Y-63424000D01*
X163367000Y-63425000D01*
X163360000Y-63425000D01*
X162920000Y-63425000D01*
X162913000Y-63425000D01*
X162907000Y-63424000D01*
X162900000Y-63423000D01*
X162894000Y-63422000D01*
X162888000Y-63421000D01*
X162881000Y-63419000D01*
X162875000Y-63417000D01*
X162869000Y-63414000D01*
X162863000Y-63411000D01*
X162857000Y-63408000D01*
X162852000Y-63405000D01*
X162847000Y-63401000D01*
X162841000Y-63397000D01*
X162836000Y-63393000D01*
X162832000Y-63388000D01*
X162827000Y-63384000D01*
X162823000Y-63379000D01*
X162819000Y-63373000D01*
X162815000Y-63368000D01*
X162812000Y-63362000D01*
X162809000Y-63357000D01*
X162806000Y-63351000D01*
X162803000Y-63345000D01*
X162801000Y-63339000D01*
X162799000Y-63332000D01*
X162798000Y-63326000D01*
X162797000Y-63320000D01*
X162796000Y-63313000D01*
X162795000Y-63307000D01*
X162795000Y-63300000D01*
X162795000Y-63100000D01*
X162795000Y-63093000D01*
X162796000Y-63087000D01*
X162797000Y-63080000D01*
X162798000Y-63074000D01*
X162799000Y-63068000D01*
X162801000Y-63061000D01*
X162803000Y-63055000D01*
X162806000Y-63049000D01*
X162809000Y-63043000D01*
X162812000Y-63038000D01*
X162815000Y-63032000D01*
X162819000Y-63027000D01*
X162823000Y-63021000D01*
X162827000Y-63016000D01*
X162832000Y-63012000D01*
X162836000Y-63007000D01*
X162841000Y-63003000D01*
X162847000Y-62999000D01*
X162852000Y-62995000D01*
X162857000Y-62992000D01*
X162863000Y-62989000D01*
X162869000Y-62986000D01*
X162875000Y-62983000D01*
X162881000Y-62981000D01*
X162888000Y-62979000D01*
X162894000Y-62978000D01*
X162900000Y-62977000D01*
X162907000Y-62976000D01*
X162913000Y-62975000D01*
X162920000Y-62975000D01*
X163360000Y-62975000D01*
X163367000Y-62975000D01*
X163373000Y-62976000D01*
G36*
X163373000Y-62976000D02*
G01*
X163380000Y-62977000D01*
X163386000Y-62978000D01*
X163392000Y-62979000D01*
X163399000Y-62981000D01*
X163405000Y-62983000D01*
X163411000Y-62986000D01*
X163417000Y-62989000D01*
X163423000Y-62992000D01*
X163428000Y-62995000D01*
X163433000Y-62999000D01*
X163439000Y-63003000D01*
X163444000Y-63007000D01*
X163448000Y-63012000D01*
X163453000Y-63016000D01*
X163457000Y-63021000D01*
X163461000Y-63027000D01*
X163465000Y-63032000D01*
X163468000Y-63038000D01*
X163471000Y-63043000D01*
X163474000Y-63049000D01*
X163477000Y-63055000D01*
X163479000Y-63061000D01*
X163481000Y-63068000D01*
X163482000Y-63074000D01*
X163483000Y-63080000D01*
X163484000Y-63087000D01*
X163485000Y-63093000D01*
X163485000Y-63100000D01*
X163485000Y-63300000D01*
X163485000Y-63307000D01*
X163484000Y-63313000D01*
X163483000Y-63320000D01*
X163482000Y-63326000D01*
X163481000Y-63332000D01*
X163479000Y-63339000D01*
X163477000Y-63345000D01*
X163474000Y-63351000D01*
X163471000Y-63357000D01*
X163468000Y-63363000D01*
X163465000Y-63368000D01*
X163461000Y-63373000D01*
X163457000Y-63379000D01*
X163453000Y-63384000D01*
X163448000Y-63388000D01*
X163444000Y-63393000D01*
X163439000Y-63397000D01*
X163433000Y-63401000D01*
X163428000Y-63405000D01*
X163423000Y-63408000D01*
X163417000Y-63411000D01*
X163411000Y-63414000D01*
X163405000Y-63417000D01*
X163399000Y-63419000D01*
X163392000Y-63421000D01*
X163386000Y-63422000D01*
X163380000Y-63423000D01*
X163373000Y-63424000D01*
X163367000Y-63425000D01*
X163360000Y-63425000D01*
X162920000Y-63425000D01*
X162913000Y-63425000D01*
X162907000Y-63424000D01*
X162900000Y-63423000D01*
X162894000Y-63422000D01*
X162888000Y-63421000D01*
X162881000Y-63419000D01*
X162875000Y-63417000D01*
X162869000Y-63414000D01*
X162863000Y-63411000D01*
X162857000Y-63408000D01*
X162852000Y-63405000D01*
X162847000Y-63401000D01*
X162841000Y-63397000D01*
X162836000Y-63393000D01*
X162832000Y-63388000D01*
X162827000Y-63384000D01*
X162823000Y-63379000D01*
X162819000Y-63373000D01*
X162815000Y-63368000D01*
X162812000Y-63362000D01*
X162809000Y-63357000D01*
X162806000Y-63351000D01*
X162803000Y-63345000D01*
X162801000Y-63339000D01*
X162799000Y-63332000D01*
X162798000Y-63326000D01*
X162797000Y-63320000D01*
X162796000Y-63313000D01*
X162795000Y-63307000D01*
X162795000Y-63300000D01*
X162795000Y-63100000D01*
X162795000Y-63093000D01*
X162796000Y-63087000D01*
X162797000Y-63080000D01*
X162798000Y-63074000D01*
X162799000Y-63068000D01*
X162801000Y-63061000D01*
X162803000Y-63055000D01*
X162806000Y-63049000D01*
X162809000Y-63043000D01*
X162812000Y-63038000D01*
X162815000Y-63032000D01*
X162819000Y-63027000D01*
X162823000Y-63021000D01*
X162827000Y-63016000D01*
X162832000Y-63012000D01*
X162836000Y-63007000D01*
X162841000Y-63003000D01*
X162847000Y-62999000D01*
X162852000Y-62995000D01*
X162857000Y-62992000D01*
X162863000Y-62989000D01*
X162869000Y-62986000D01*
X162875000Y-62983000D01*
X162881000Y-62981000D01*
X162888000Y-62979000D01*
X162894000Y-62978000D01*
X162900000Y-62977000D01*
X162907000Y-62976000D01*
X162913000Y-62975000D01*
X162920000Y-62975000D01*
X163360000Y-62975000D01*
X163367000Y-62975000D01*
X163373000Y-62976000D01*
G37*
X163373000Y-63476000D02*
X163380000Y-63477000D01*
X163386000Y-63478000D01*
X163392000Y-63479000D01*
X163399000Y-63481000D01*
X163405000Y-63483000D01*
X163411000Y-63486000D01*
X163417000Y-63489000D01*
X163423000Y-63492000D01*
X163428000Y-63495000D01*
X163433000Y-63499000D01*
X163439000Y-63503000D01*
X163444000Y-63507000D01*
X163448000Y-63512000D01*
X163453000Y-63516000D01*
X163457000Y-63521000D01*
X163461000Y-63527000D01*
X163465000Y-63532000D01*
X163468000Y-63537000D01*
X163471000Y-63543000D01*
X163474000Y-63549000D01*
X163477000Y-63555000D01*
X163479000Y-63561000D01*
X163481000Y-63568000D01*
X163482000Y-63574000D01*
X163483000Y-63580000D01*
X163484000Y-63587000D01*
X163485000Y-63593000D01*
X163485000Y-63600000D01*
X163485000Y-63800000D01*
X163485000Y-63807000D01*
X163484000Y-63813000D01*
X163483000Y-63820000D01*
X163482000Y-63826000D01*
X163481000Y-63832000D01*
X163479000Y-63839000D01*
X163477000Y-63845000D01*
X163474000Y-63851000D01*
X163471000Y-63857000D01*
X163468000Y-63863000D01*
X163465000Y-63868000D01*
X163461000Y-63873000D01*
X163457000Y-63879000D01*
X163453000Y-63884000D01*
X163448000Y-63888000D01*
X163444000Y-63893000D01*
X163439000Y-63897000D01*
X163433000Y-63901000D01*
X163428000Y-63905000D01*
X163423000Y-63908000D01*
X163417000Y-63911000D01*
X163411000Y-63914000D01*
X163405000Y-63917000D01*
X163399000Y-63919000D01*
X163392000Y-63921000D01*
X163386000Y-63922000D01*
X163380000Y-63923000D01*
X163373000Y-63924000D01*
X163367000Y-63925000D01*
X163360000Y-63925000D01*
X162920000Y-63925000D01*
X162913000Y-63925000D01*
X162907000Y-63924000D01*
X162900000Y-63923000D01*
X162894000Y-63922000D01*
X162888000Y-63921000D01*
X162881000Y-63919000D01*
X162875000Y-63917000D01*
X162869000Y-63914000D01*
X162863000Y-63911000D01*
X162857000Y-63908000D01*
X162852000Y-63905000D01*
X162847000Y-63901000D01*
X162841000Y-63897000D01*
X162836000Y-63893000D01*
X162832000Y-63888000D01*
X162827000Y-63884000D01*
X162823000Y-63879000D01*
X162819000Y-63873000D01*
X162815000Y-63868000D01*
X162812000Y-63862000D01*
X162809000Y-63857000D01*
X162806000Y-63851000D01*
X162803000Y-63845000D01*
X162801000Y-63839000D01*
X162799000Y-63832000D01*
X162798000Y-63826000D01*
X162797000Y-63820000D01*
X162796000Y-63813000D01*
X162795000Y-63807000D01*
X162795000Y-63800000D01*
X162795000Y-63600000D01*
X162795000Y-63593000D01*
X162796000Y-63587000D01*
X162797000Y-63580000D01*
X162798000Y-63574000D01*
X162799000Y-63568000D01*
X162801000Y-63561000D01*
X162803000Y-63555000D01*
X162806000Y-63549000D01*
X162809000Y-63543000D01*
X162812000Y-63537000D01*
X162815000Y-63532000D01*
X162819000Y-63527000D01*
X162823000Y-63521000D01*
X162827000Y-63516000D01*
X162832000Y-63512000D01*
X162836000Y-63507000D01*
X162841000Y-63503000D01*
X162847000Y-63499000D01*
X162852000Y-63495000D01*
X162857000Y-63492000D01*
X162863000Y-63489000D01*
X162869000Y-63486000D01*
X162875000Y-63483000D01*
X162881000Y-63481000D01*
X162888000Y-63479000D01*
X162894000Y-63478000D01*
X162900000Y-63477000D01*
X162907000Y-63476000D01*
X162913000Y-63475000D01*
X162920000Y-63475000D01*
X163360000Y-63475000D01*
X163367000Y-63475000D01*
X163373000Y-63476000D01*
G36*
X163373000Y-63476000D02*
G01*
X163380000Y-63477000D01*
X163386000Y-63478000D01*
X163392000Y-63479000D01*
X163399000Y-63481000D01*
X163405000Y-63483000D01*
X163411000Y-63486000D01*
X163417000Y-63489000D01*
X163423000Y-63492000D01*
X163428000Y-63495000D01*
X163433000Y-63499000D01*
X163439000Y-63503000D01*
X163444000Y-63507000D01*
X163448000Y-63512000D01*
X163453000Y-63516000D01*
X163457000Y-63521000D01*
X163461000Y-63527000D01*
X163465000Y-63532000D01*
X163468000Y-63537000D01*
X163471000Y-63543000D01*
X163474000Y-63549000D01*
X163477000Y-63555000D01*
X163479000Y-63561000D01*
X163481000Y-63568000D01*
X163482000Y-63574000D01*
X163483000Y-63580000D01*
X163484000Y-63587000D01*
X163485000Y-63593000D01*
X163485000Y-63600000D01*
X163485000Y-63800000D01*
X163485000Y-63807000D01*
X163484000Y-63813000D01*
X163483000Y-63820000D01*
X163482000Y-63826000D01*
X163481000Y-63832000D01*
X163479000Y-63839000D01*
X163477000Y-63845000D01*
X163474000Y-63851000D01*
X163471000Y-63857000D01*
X163468000Y-63863000D01*
X163465000Y-63868000D01*
X163461000Y-63873000D01*
X163457000Y-63879000D01*
X163453000Y-63884000D01*
X163448000Y-63888000D01*
X163444000Y-63893000D01*
X163439000Y-63897000D01*
X163433000Y-63901000D01*
X163428000Y-63905000D01*
X163423000Y-63908000D01*
X163417000Y-63911000D01*
X163411000Y-63914000D01*
X163405000Y-63917000D01*
X163399000Y-63919000D01*
X163392000Y-63921000D01*
X163386000Y-63922000D01*
X163380000Y-63923000D01*
X163373000Y-63924000D01*
X163367000Y-63925000D01*
X163360000Y-63925000D01*
X162920000Y-63925000D01*
X162913000Y-63925000D01*
X162907000Y-63924000D01*
X162900000Y-63923000D01*
X162894000Y-63922000D01*
X162888000Y-63921000D01*
X162881000Y-63919000D01*
X162875000Y-63917000D01*
X162869000Y-63914000D01*
X162863000Y-63911000D01*
X162857000Y-63908000D01*
X162852000Y-63905000D01*
X162847000Y-63901000D01*
X162841000Y-63897000D01*
X162836000Y-63893000D01*
X162832000Y-63888000D01*
X162827000Y-63884000D01*
X162823000Y-63879000D01*
X162819000Y-63873000D01*
X162815000Y-63868000D01*
X162812000Y-63862000D01*
X162809000Y-63857000D01*
X162806000Y-63851000D01*
X162803000Y-63845000D01*
X162801000Y-63839000D01*
X162799000Y-63832000D01*
X162798000Y-63826000D01*
X162797000Y-63820000D01*
X162796000Y-63813000D01*
X162795000Y-63807000D01*
X162795000Y-63800000D01*
X162795000Y-63600000D01*
X162795000Y-63593000D01*
X162796000Y-63587000D01*
X162797000Y-63580000D01*
X162798000Y-63574000D01*
X162799000Y-63568000D01*
X162801000Y-63561000D01*
X162803000Y-63555000D01*
X162806000Y-63549000D01*
X162809000Y-63543000D01*
X162812000Y-63537000D01*
X162815000Y-63532000D01*
X162819000Y-63527000D01*
X162823000Y-63521000D01*
X162827000Y-63516000D01*
X162832000Y-63512000D01*
X162836000Y-63507000D01*
X162841000Y-63503000D01*
X162847000Y-63499000D01*
X162852000Y-63495000D01*
X162857000Y-63492000D01*
X162863000Y-63489000D01*
X162869000Y-63486000D01*
X162875000Y-63483000D01*
X162881000Y-63481000D01*
X162888000Y-63479000D01*
X162894000Y-63478000D01*
X162900000Y-63477000D01*
X162907000Y-63476000D01*
X162913000Y-63475000D01*
X162920000Y-63475000D01*
X163360000Y-63475000D01*
X163367000Y-63475000D01*
X163373000Y-63476000D01*
G37*
X163373000Y-63976000D02*
X163380000Y-63977000D01*
X163386000Y-63978000D01*
X163392000Y-63979000D01*
X163399000Y-63981000D01*
X163405000Y-63983000D01*
X163411000Y-63986000D01*
X163417000Y-63989000D01*
X163423000Y-63992000D01*
X163428000Y-63995000D01*
X163433000Y-63999000D01*
X163439000Y-64003000D01*
X163444000Y-64007000D01*
X163448000Y-64012000D01*
X163453000Y-64016000D01*
X163457000Y-64021000D01*
X163461000Y-64027000D01*
X163465000Y-64032000D01*
X163468000Y-64038000D01*
X163471000Y-64043000D01*
X163474000Y-64049000D01*
X163477000Y-64055000D01*
X163479000Y-64061000D01*
X163481000Y-64068000D01*
X163482000Y-64074000D01*
X163483000Y-64080000D01*
X163484000Y-64087000D01*
X163485000Y-64093000D01*
X163485000Y-64100000D01*
X163485000Y-64300000D01*
X163485000Y-64307000D01*
X163484000Y-64313000D01*
X163483000Y-64320000D01*
X163482000Y-64326000D01*
X163481000Y-64332000D01*
X163479000Y-64339000D01*
X163477000Y-64345000D01*
X163474000Y-64351000D01*
X163471000Y-64357000D01*
X163468000Y-64363000D01*
X163465000Y-64368000D01*
X163461000Y-64373000D01*
X163457000Y-64379000D01*
X163453000Y-64384000D01*
X163448000Y-64388000D01*
X163444000Y-64393000D01*
X163439000Y-64397000D01*
X163433000Y-64401000D01*
X163428000Y-64405000D01*
X163423000Y-64408000D01*
X163417000Y-64411000D01*
X163411000Y-64414000D01*
X163405000Y-64417000D01*
X163399000Y-64419000D01*
X163392000Y-64421000D01*
X163386000Y-64422000D01*
X163380000Y-64423000D01*
X163373000Y-64424000D01*
X163367000Y-64425000D01*
X163360000Y-64425000D01*
X162920000Y-64425000D01*
X162913000Y-64425000D01*
X162907000Y-64424000D01*
X162900000Y-64423000D01*
X162894000Y-64422000D01*
X162888000Y-64421000D01*
X162881000Y-64419000D01*
X162875000Y-64417000D01*
X162869000Y-64414000D01*
X162863000Y-64411000D01*
X162857000Y-64408000D01*
X162852000Y-64405000D01*
X162847000Y-64401000D01*
X162841000Y-64397000D01*
X162836000Y-64393000D01*
X162832000Y-64388000D01*
X162827000Y-64384000D01*
X162823000Y-64379000D01*
X162819000Y-64373000D01*
X162815000Y-64368000D01*
X162812000Y-64362000D01*
X162809000Y-64357000D01*
X162806000Y-64351000D01*
X162803000Y-64345000D01*
X162801000Y-64339000D01*
X162799000Y-64332000D01*
X162798000Y-64326000D01*
X162797000Y-64320000D01*
X162796000Y-64313000D01*
X162795000Y-64307000D01*
X162795000Y-64300000D01*
X162795000Y-64100000D01*
X162795000Y-64093000D01*
X162796000Y-64087000D01*
X162797000Y-64080000D01*
X162798000Y-64074000D01*
X162799000Y-64068000D01*
X162801000Y-64061000D01*
X162803000Y-64055000D01*
X162806000Y-64049000D01*
X162809000Y-64043000D01*
X162812000Y-64038000D01*
X162815000Y-64032000D01*
X162819000Y-64027000D01*
X162823000Y-64021000D01*
X162827000Y-64016000D01*
X162832000Y-64012000D01*
X162836000Y-64007000D01*
X162841000Y-64003000D01*
X162847000Y-63999000D01*
X162852000Y-63995000D01*
X162857000Y-63992000D01*
X162863000Y-63989000D01*
X162869000Y-63986000D01*
X162875000Y-63983000D01*
X162881000Y-63981000D01*
X162888000Y-63979000D01*
X162894000Y-63978000D01*
X162900000Y-63977000D01*
X162907000Y-63976000D01*
X162913000Y-63975000D01*
X162920000Y-63975000D01*
X163360000Y-63975000D01*
X163367000Y-63975000D01*
X163373000Y-63976000D01*
G36*
X163373000Y-63976000D02*
G01*
X163380000Y-63977000D01*
X163386000Y-63978000D01*
X163392000Y-63979000D01*
X163399000Y-63981000D01*
X163405000Y-63983000D01*
X163411000Y-63986000D01*
X163417000Y-63989000D01*
X163423000Y-63992000D01*
X163428000Y-63995000D01*
X163433000Y-63999000D01*
X163439000Y-64003000D01*
X163444000Y-64007000D01*
X163448000Y-64012000D01*
X163453000Y-64016000D01*
X163457000Y-64021000D01*
X163461000Y-64027000D01*
X163465000Y-64032000D01*
X163468000Y-64038000D01*
X163471000Y-64043000D01*
X163474000Y-64049000D01*
X163477000Y-64055000D01*
X163479000Y-64061000D01*
X163481000Y-64068000D01*
X163482000Y-64074000D01*
X163483000Y-64080000D01*
X163484000Y-64087000D01*
X163485000Y-64093000D01*
X163485000Y-64100000D01*
X163485000Y-64300000D01*
X163485000Y-64307000D01*
X163484000Y-64313000D01*
X163483000Y-64320000D01*
X163482000Y-64326000D01*
X163481000Y-64332000D01*
X163479000Y-64339000D01*
X163477000Y-64345000D01*
X163474000Y-64351000D01*
X163471000Y-64357000D01*
X163468000Y-64363000D01*
X163465000Y-64368000D01*
X163461000Y-64373000D01*
X163457000Y-64379000D01*
X163453000Y-64384000D01*
X163448000Y-64388000D01*
X163444000Y-64393000D01*
X163439000Y-64397000D01*
X163433000Y-64401000D01*
X163428000Y-64405000D01*
X163423000Y-64408000D01*
X163417000Y-64411000D01*
X163411000Y-64414000D01*
X163405000Y-64417000D01*
X163399000Y-64419000D01*
X163392000Y-64421000D01*
X163386000Y-64422000D01*
X163380000Y-64423000D01*
X163373000Y-64424000D01*
X163367000Y-64425000D01*
X163360000Y-64425000D01*
X162920000Y-64425000D01*
X162913000Y-64425000D01*
X162907000Y-64424000D01*
X162900000Y-64423000D01*
X162894000Y-64422000D01*
X162888000Y-64421000D01*
X162881000Y-64419000D01*
X162875000Y-64417000D01*
X162869000Y-64414000D01*
X162863000Y-64411000D01*
X162857000Y-64408000D01*
X162852000Y-64405000D01*
X162847000Y-64401000D01*
X162841000Y-64397000D01*
X162836000Y-64393000D01*
X162832000Y-64388000D01*
X162827000Y-64384000D01*
X162823000Y-64379000D01*
X162819000Y-64373000D01*
X162815000Y-64368000D01*
X162812000Y-64362000D01*
X162809000Y-64357000D01*
X162806000Y-64351000D01*
X162803000Y-64345000D01*
X162801000Y-64339000D01*
X162799000Y-64332000D01*
X162798000Y-64326000D01*
X162797000Y-64320000D01*
X162796000Y-64313000D01*
X162795000Y-64307000D01*
X162795000Y-64300000D01*
X162795000Y-64100000D01*
X162795000Y-64093000D01*
X162796000Y-64087000D01*
X162797000Y-64080000D01*
X162798000Y-64074000D01*
X162799000Y-64068000D01*
X162801000Y-64061000D01*
X162803000Y-64055000D01*
X162806000Y-64049000D01*
X162809000Y-64043000D01*
X162812000Y-64038000D01*
X162815000Y-64032000D01*
X162819000Y-64027000D01*
X162823000Y-64021000D01*
X162827000Y-64016000D01*
X162832000Y-64012000D01*
X162836000Y-64007000D01*
X162841000Y-64003000D01*
X162847000Y-63999000D01*
X162852000Y-63995000D01*
X162857000Y-63992000D01*
X162863000Y-63989000D01*
X162869000Y-63986000D01*
X162875000Y-63983000D01*
X162881000Y-63981000D01*
X162888000Y-63979000D01*
X162894000Y-63978000D01*
X162900000Y-63977000D01*
X162907000Y-63976000D01*
X162913000Y-63975000D01*
X162920000Y-63975000D01*
X163360000Y-63975000D01*
X163367000Y-63975000D01*
X163373000Y-63976000D01*
G37*
X163088000Y-62191000D02*
X163095000Y-62192000D01*
X163101000Y-62193000D01*
X163107000Y-62194000D01*
X163114000Y-62196000D01*
X163120000Y-62198000D01*
X163126000Y-62201000D01*
X163132000Y-62204000D01*
X163137000Y-62207000D01*
X163143000Y-62210000D01*
X163148000Y-62214000D01*
X163154000Y-62218000D01*
X163159000Y-62222000D01*
X163163000Y-62227000D01*
X163168000Y-62231000D01*
X163172000Y-62236000D01*
X163176000Y-62242000D01*
X163180000Y-62247000D01*
X163183000Y-62252000D01*
X163186000Y-62258000D01*
X163189000Y-62264000D01*
X163192000Y-62270000D01*
X163194000Y-62276000D01*
X163196000Y-62283000D01*
X163197000Y-62289000D01*
X163198000Y-62295000D01*
X163199000Y-62302000D01*
X163200000Y-62308000D01*
X163200000Y-62315000D01*
X163200000Y-62755000D01*
X163200000Y-62762000D01*
X163199000Y-62768000D01*
X163198000Y-62775000D01*
X163197000Y-62781000D01*
X163196000Y-62787000D01*
X163194000Y-62794000D01*
X163192000Y-62800000D01*
X163189000Y-62806000D01*
X163186000Y-62812000D01*
X163183000Y-62818000D01*
X163180000Y-62823000D01*
X163176000Y-62828000D01*
X163172000Y-62834000D01*
X163168000Y-62839000D01*
X163163000Y-62843000D01*
X163159000Y-62848000D01*
X163154000Y-62852000D01*
X163148000Y-62856000D01*
X163143000Y-62860000D01*
X163137000Y-62863000D01*
X163132000Y-62866000D01*
X163126000Y-62869000D01*
X163120000Y-62872000D01*
X163114000Y-62874000D01*
X163107000Y-62876000D01*
X163101000Y-62877000D01*
X163095000Y-62878000D01*
X163088000Y-62879000D01*
X163082000Y-62880000D01*
X163075000Y-62880000D01*
X162875000Y-62880000D01*
X162868000Y-62880000D01*
X162862000Y-62879000D01*
X162855000Y-62878000D01*
X162849000Y-62877000D01*
X162843000Y-62876000D01*
X162836000Y-62874000D01*
X162830000Y-62872000D01*
X162824000Y-62869000D01*
X162818000Y-62866000D01*
X162813000Y-62863000D01*
X162807000Y-62860000D01*
X162802000Y-62856000D01*
X162796000Y-62852000D01*
X162791000Y-62848000D01*
X162787000Y-62843000D01*
X162782000Y-62839000D01*
X162778000Y-62834000D01*
X162774000Y-62828000D01*
X162770000Y-62823000D01*
X162767000Y-62818000D01*
X162764000Y-62812000D01*
X162761000Y-62806000D01*
X162758000Y-62800000D01*
X162756000Y-62794000D01*
X162754000Y-62787000D01*
X162753000Y-62781000D01*
X162752000Y-62775000D01*
X162751000Y-62768000D01*
X162750000Y-62762000D01*
X162750000Y-62755000D01*
X162750000Y-62315000D01*
X162750000Y-62308000D01*
X162751000Y-62302000D01*
X162752000Y-62295000D01*
X162753000Y-62289000D01*
X162754000Y-62283000D01*
X162756000Y-62276000D01*
X162758000Y-62270000D01*
X162761000Y-62264000D01*
X162764000Y-62258000D01*
X162767000Y-62252000D01*
X162770000Y-62247000D01*
X162774000Y-62242000D01*
X162778000Y-62236000D01*
X162782000Y-62231000D01*
X162787000Y-62227000D01*
X162791000Y-62222000D01*
X162796000Y-62218000D01*
X162802000Y-62214000D01*
X162807000Y-62210000D01*
X162813000Y-62207000D01*
X162818000Y-62204000D01*
X162824000Y-62201000D01*
X162830000Y-62198000D01*
X162836000Y-62196000D01*
X162843000Y-62194000D01*
X162849000Y-62193000D01*
X162855000Y-62192000D01*
X162862000Y-62191000D01*
X162868000Y-62190000D01*
X162875000Y-62190000D01*
X163075000Y-62190000D01*
X163082000Y-62190000D01*
X163088000Y-62191000D01*
G36*
X163088000Y-62191000D02*
G01*
X163095000Y-62192000D01*
X163101000Y-62193000D01*
X163107000Y-62194000D01*
X163114000Y-62196000D01*
X163120000Y-62198000D01*
X163126000Y-62201000D01*
X163132000Y-62204000D01*
X163137000Y-62207000D01*
X163143000Y-62210000D01*
X163148000Y-62214000D01*
X163154000Y-62218000D01*
X163159000Y-62222000D01*
X163163000Y-62227000D01*
X163168000Y-62231000D01*
X163172000Y-62236000D01*
X163176000Y-62242000D01*
X163180000Y-62247000D01*
X163183000Y-62252000D01*
X163186000Y-62258000D01*
X163189000Y-62264000D01*
X163192000Y-62270000D01*
X163194000Y-62276000D01*
X163196000Y-62283000D01*
X163197000Y-62289000D01*
X163198000Y-62295000D01*
X163199000Y-62302000D01*
X163200000Y-62308000D01*
X163200000Y-62315000D01*
X163200000Y-62755000D01*
X163200000Y-62762000D01*
X163199000Y-62768000D01*
X163198000Y-62775000D01*
X163197000Y-62781000D01*
X163196000Y-62787000D01*
X163194000Y-62794000D01*
X163192000Y-62800000D01*
X163189000Y-62806000D01*
X163186000Y-62812000D01*
X163183000Y-62818000D01*
X163180000Y-62823000D01*
X163176000Y-62828000D01*
X163172000Y-62834000D01*
X163168000Y-62839000D01*
X163163000Y-62843000D01*
X163159000Y-62848000D01*
X163154000Y-62852000D01*
X163148000Y-62856000D01*
X163143000Y-62860000D01*
X163137000Y-62863000D01*
X163132000Y-62866000D01*
X163126000Y-62869000D01*
X163120000Y-62872000D01*
X163114000Y-62874000D01*
X163107000Y-62876000D01*
X163101000Y-62877000D01*
X163095000Y-62878000D01*
X163088000Y-62879000D01*
X163082000Y-62880000D01*
X163075000Y-62880000D01*
X162875000Y-62880000D01*
X162868000Y-62880000D01*
X162862000Y-62879000D01*
X162855000Y-62878000D01*
X162849000Y-62877000D01*
X162843000Y-62876000D01*
X162836000Y-62874000D01*
X162830000Y-62872000D01*
X162824000Y-62869000D01*
X162818000Y-62866000D01*
X162813000Y-62863000D01*
X162807000Y-62860000D01*
X162802000Y-62856000D01*
X162796000Y-62852000D01*
X162791000Y-62848000D01*
X162787000Y-62843000D01*
X162782000Y-62839000D01*
X162778000Y-62834000D01*
X162774000Y-62828000D01*
X162770000Y-62823000D01*
X162767000Y-62818000D01*
X162764000Y-62812000D01*
X162761000Y-62806000D01*
X162758000Y-62800000D01*
X162756000Y-62794000D01*
X162754000Y-62787000D01*
X162753000Y-62781000D01*
X162752000Y-62775000D01*
X162751000Y-62768000D01*
X162750000Y-62762000D01*
X162750000Y-62755000D01*
X162750000Y-62315000D01*
X162750000Y-62308000D01*
X162751000Y-62302000D01*
X162752000Y-62295000D01*
X162753000Y-62289000D01*
X162754000Y-62283000D01*
X162756000Y-62276000D01*
X162758000Y-62270000D01*
X162761000Y-62264000D01*
X162764000Y-62258000D01*
X162767000Y-62252000D01*
X162770000Y-62247000D01*
X162774000Y-62242000D01*
X162778000Y-62236000D01*
X162782000Y-62231000D01*
X162787000Y-62227000D01*
X162791000Y-62222000D01*
X162796000Y-62218000D01*
X162802000Y-62214000D01*
X162807000Y-62210000D01*
X162813000Y-62207000D01*
X162818000Y-62204000D01*
X162824000Y-62201000D01*
X162830000Y-62198000D01*
X162836000Y-62196000D01*
X162843000Y-62194000D01*
X162849000Y-62193000D01*
X162855000Y-62192000D01*
X162862000Y-62191000D01*
X162868000Y-62190000D01*
X162875000Y-62190000D01*
X163075000Y-62190000D01*
X163082000Y-62190000D01*
X163088000Y-62191000D01*
G37*
X163088000Y-64521000D02*
X163095000Y-64522000D01*
X163101000Y-64523000D01*
X163107000Y-64524000D01*
X163114000Y-64526000D01*
X163120000Y-64528000D01*
X163126000Y-64531000D01*
X163132000Y-64534000D01*
X163137000Y-64537000D01*
X163143000Y-64540000D01*
X163148000Y-64544000D01*
X163154000Y-64548000D01*
X163159000Y-64552000D01*
X163163000Y-64557000D01*
X163168000Y-64561000D01*
X163172000Y-64566000D01*
X163176000Y-64572000D01*
X163180000Y-64577000D01*
X163183000Y-64582000D01*
X163186000Y-64588000D01*
X163189000Y-64594000D01*
X163192000Y-64600000D01*
X163194000Y-64606000D01*
X163196000Y-64613000D01*
X163197000Y-64619000D01*
X163198000Y-64625000D01*
X163199000Y-64632000D01*
X163200000Y-64638000D01*
X163200000Y-64645000D01*
X163200000Y-65085000D01*
X163200000Y-65092000D01*
X163199000Y-65098000D01*
X163198000Y-65105000D01*
X163197000Y-65111000D01*
X163196000Y-65117000D01*
X163194000Y-65124000D01*
X163192000Y-65130000D01*
X163189000Y-65136000D01*
X163186000Y-65142000D01*
X163183000Y-65148000D01*
X163180000Y-65153000D01*
X163176000Y-65158000D01*
X163172000Y-65164000D01*
X163168000Y-65169000D01*
X163163000Y-65173000D01*
X163159000Y-65178000D01*
X163154000Y-65182000D01*
X163148000Y-65186000D01*
X163143000Y-65190000D01*
X163137000Y-65193000D01*
X163132000Y-65196000D01*
X163126000Y-65199000D01*
X163120000Y-65202000D01*
X163114000Y-65204000D01*
X163107000Y-65206000D01*
X163101000Y-65207000D01*
X163095000Y-65208000D01*
X163088000Y-65209000D01*
X163082000Y-65210000D01*
X163075000Y-65210000D01*
X162875000Y-65210000D01*
X162868000Y-65210000D01*
X162862000Y-65209000D01*
X162855000Y-65208000D01*
X162849000Y-65207000D01*
X162843000Y-65206000D01*
X162836000Y-65204000D01*
X162830000Y-65202000D01*
X162824000Y-65199000D01*
X162818000Y-65196000D01*
X162813000Y-65193000D01*
X162807000Y-65190000D01*
X162802000Y-65186000D01*
X162796000Y-65182000D01*
X162791000Y-65178000D01*
X162787000Y-65173000D01*
X162782000Y-65169000D01*
X162778000Y-65164000D01*
X162774000Y-65158000D01*
X162770000Y-65153000D01*
X162767000Y-65148000D01*
X162764000Y-65142000D01*
X162761000Y-65136000D01*
X162758000Y-65130000D01*
X162756000Y-65124000D01*
X162754000Y-65117000D01*
X162753000Y-65111000D01*
X162752000Y-65105000D01*
X162751000Y-65098000D01*
X162750000Y-65092000D01*
X162750000Y-65085000D01*
X162750000Y-64645000D01*
X162750000Y-64638000D01*
X162751000Y-64632000D01*
X162752000Y-64625000D01*
X162753000Y-64619000D01*
X162754000Y-64613000D01*
X162756000Y-64606000D01*
X162758000Y-64600000D01*
X162761000Y-64594000D01*
X162764000Y-64588000D01*
X162767000Y-64582000D01*
X162770000Y-64577000D01*
X162774000Y-64572000D01*
X162778000Y-64566000D01*
X162782000Y-64561000D01*
X162787000Y-64557000D01*
X162791000Y-64552000D01*
X162796000Y-64548000D01*
X162802000Y-64544000D01*
X162807000Y-64540000D01*
X162813000Y-64537000D01*
X162818000Y-64534000D01*
X162824000Y-64531000D01*
X162830000Y-64528000D01*
X162836000Y-64526000D01*
X162843000Y-64524000D01*
X162849000Y-64523000D01*
X162855000Y-64522000D01*
X162862000Y-64521000D01*
X162868000Y-64520000D01*
X162875000Y-64520000D01*
X163075000Y-64520000D01*
X163082000Y-64520000D01*
X163088000Y-64521000D01*
G36*
X163088000Y-64521000D02*
G01*
X163095000Y-64522000D01*
X163101000Y-64523000D01*
X163107000Y-64524000D01*
X163114000Y-64526000D01*
X163120000Y-64528000D01*
X163126000Y-64531000D01*
X163132000Y-64534000D01*
X163137000Y-64537000D01*
X163143000Y-64540000D01*
X163148000Y-64544000D01*
X163154000Y-64548000D01*
X163159000Y-64552000D01*
X163163000Y-64557000D01*
X163168000Y-64561000D01*
X163172000Y-64566000D01*
X163176000Y-64572000D01*
X163180000Y-64577000D01*
X163183000Y-64582000D01*
X163186000Y-64588000D01*
X163189000Y-64594000D01*
X163192000Y-64600000D01*
X163194000Y-64606000D01*
X163196000Y-64613000D01*
X163197000Y-64619000D01*
X163198000Y-64625000D01*
X163199000Y-64632000D01*
X163200000Y-64638000D01*
X163200000Y-64645000D01*
X163200000Y-65085000D01*
X163200000Y-65092000D01*
X163199000Y-65098000D01*
X163198000Y-65105000D01*
X163197000Y-65111000D01*
X163196000Y-65117000D01*
X163194000Y-65124000D01*
X163192000Y-65130000D01*
X163189000Y-65136000D01*
X163186000Y-65142000D01*
X163183000Y-65148000D01*
X163180000Y-65153000D01*
X163176000Y-65158000D01*
X163172000Y-65164000D01*
X163168000Y-65169000D01*
X163163000Y-65173000D01*
X163159000Y-65178000D01*
X163154000Y-65182000D01*
X163148000Y-65186000D01*
X163143000Y-65190000D01*
X163137000Y-65193000D01*
X163132000Y-65196000D01*
X163126000Y-65199000D01*
X163120000Y-65202000D01*
X163114000Y-65204000D01*
X163107000Y-65206000D01*
X163101000Y-65207000D01*
X163095000Y-65208000D01*
X163088000Y-65209000D01*
X163082000Y-65210000D01*
X163075000Y-65210000D01*
X162875000Y-65210000D01*
X162868000Y-65210000D01*
X162862000Y-65209000D01*
X162855000Y-65208000D01*
X162849000Y-65207000D01*
X162843000Y-65206000D01*
X162836000Y-65204000D01*
X162830000Y-65202000D01*
X162824000Y-65199000D01*
X162818000Y-65196000D01*
X162813000Y-65193000D01*
X162807000Y-65190000D01*
X162802000Y-65186000D01*
X162796000Y-65182000D01*
X162791000Y-65178000D01*
X162787000Y-65173000D01*
X162782000Y-65169000D01*
X162778000Y-65164000D01*
X162774000Y-65158000D01*
X162770000Y-65153000D01*
X162767000Y-65148000D01*
X162764000Y-65142000D01*
X162761000Y-65136000D01*
X162758000Y-65130000D01*
X162756000Y-65124000D01*
X162754000Y-65117000D01*
X162753000Y-65111000D01*
X162752000Y-65105000D01*
X162751000Y-65098000D01*
X162750000Y-65092000D01*
X162750000Y-65085000D01*
X162750000Y-64645000D01*
X162750000Y-64638000D01*
X162751000Y-64632000D01*
X162752000Y-64625000D01*
X162753000Y-64619000D01*
X162754000Y-64613000D01*
X162756000Y-64606000D01*
X162758000Y-64600000D01*
X162761000Y-64594000D01*
X162764000Y-64588000D01*
X162767000Y-64582000D01*
X162770000Y-64577000D01*
X162774000Y-64572000D01*
X162778000Y-64566000D01*
X162782000Y-64561000D01*
X162787000Y-64557000D01*
X162791000Y-64552000D01*
X162796000Y-64548000D01*
X162802000Y-64544000D01*
X162807000Y-64540000D01*
X162813000Y-64537000D01*
X162818000Y-64534000D01*
X162824000Y-64531000D01*
X162830000Y-64528000D01*
X162836000Y-64526000D01*
X162843000Y-64524000D01*
X162849000Y-64523000D01*
X162855000Y-64522000D01*
X162862000Y-64521000D01*
X162868000Y-64520000D01*
X162875000Y-64520000D01*
X163075000Y-64520000D01*
X163082000Y-64520000D01*
X163088000Y-64521000D01*
G37*
%TD*%
D11*
%TO.C,C2*%
X161450000Y-58700000D03*
X163000000Y-58700000D03*
%TD*%
D12*
%TO.C,R2*%
X158325000Y-60900000D03*
X156675000Y-60900000D03*
%TD*%
D13*
%TO.C,U3*%
X158190000Y-51512500D03*
D14*
X160730000Y-51512500D03*
X163270000Y-51512500D03*
X165810000Y-51512500D03*
D15*
X151000000Y-52012500D03*
X173000000Y-52012500D03*
X173000000Y-74012500D03*
X151000000Y-74012500D03*
%TD*%
D16*
%TO.C,C1*%
X163000000Y-66800000D03*
X161450000Y-66800000D03*
%TD*%
D17*
%TO.C,R1*%
X156675000Y-58300000D03*
X158325000Y-58300000D03*
%TD*%
D16*
%TO.C,C3*%
X163000000Y-60700000D03*
X161450000Y-60700000D03*
%TD*%
D18*
%TO.C,U1*%
X154480000Y-70720000D03*
X154480000Y-68180000D03*
X154480000Y-65640000D03*
X154480000Y-63100000D03*
X154480000Y-60560000D03*
X154480000Y-58020000D03*
X154480000Y-55480000D03*
X169720000Y-55480000D03*
X169720000Y-58020000D03*
X169720000Y-60560000D03*
X169720000Y-63100000D03*
X169720000Y-65640000D03*
X169720000Y-68180000D03*
X169720000Y-70720000D03*
%TD*%
M02*
