%TF.GenerationSoftware,KiCad,Pcbnew,9.0.2*%
%TF.CreationDate,2025-07-30T21:05:43-04:00*%
%TF.ProjectId,Hermes,4865726d-6573-42e6-9b69-6361645f7063,rev?*%
%TF.SameCoordinates,Original*%
%TF.FileFunction,Soldermask,Top*%
%TF.FilePolarity,Negative*%
%FSLAX46Y46*%
G04 Gerber Fmt 4.6, Leading zero omitted, Abs format (unit mm)*
G04 Created by KiCad (PCBNEW 9.0.2) date 2025-07-30 21:05:43*
%MOMM*%
%LPD*%
G01*
G04 APERTURE LIST*
G04 Aperture macros list*
%AMRoundRect*
0 Rectangle with rounded corners*
0 $1 Rounding radius*
0 $2 $3 $4 $5 $6 $7 $8 $9 X,Y pos of 4 corners*
0 Add a 4 corners polygon primitive as box body*
4,1,4,$2,$3,$4,$5,$6,$7,$8,$9,$2,$3,0*
0 Add four circle primitives for the rounded corners*
1,1,$1+$1,$2,$3*
1,1,$1+$1,$4,$5*
1,1,$1+$1,$6,$7*
1,1,$1+$1,$8,$9*
0 Add four rect primitives between the rounded corners*
20,1,$1+$1,$2,$3,$4,$5,0*
20,1,$1+$1,$4,$5,$6,$7,0*
20,1,$1+$1,$6,$7,$8,$9,0*
20,1,$1+$1,$8,$9,$2,$3,0*%
G04 Aperture macros list end*
%ADD10C,0.010000*%
%ADD11RoundRect,0.225000X-0.225000X-0.250000X0.225000X-0.250000X0.225000X0.250000X-0.225000X0.250000X0*%
%ADD12RoundRect,0.200000X0.200000X0.275000X-0.200000X0.275000X-0.200000X-0.275000X0.200000X-0.275000X0*%
%ADD13RoundRect,0.102000X-0.754000X-0.754000X0.754000X-0.754000X0.754000X0.754000X-0.754000X0.754000X0*%
%ADD14C,1.712000*%
%ADD15C,3.204000*%
%ADD16RoundRect,0.152400X0.609600X-1.063600X0.609600X1.063600X-0.609600X1.063600X-0.609600X-1.063600X0*%
%ADD17C,1.524000*%
%ADD18RoundRect,0.152400X-0.609600X1.063600X-0.609600X-1.063600X0.609600X-1.063600X0.609600X1.063600X0*%
%ADD19RoundRect,0.225000X0.225000X0.250000X-0.225000X0.250000X-0.225000X-0.250000X0.225000X-0.250000X0*%
G04 APERTURE END LIST*
D10*
%TO.C,U2*%
X151318000Y-82476000D02*
X151325000Y-82477000D01*
X151331000Y-82478000D01*
X151337000Y-82479000D01*
X151344000Y-82481000D01*
X151350000Y-82483000D01*
X151356000Y-82486000D01*
X151362000Y-82489000D01*
X151368000Y-82492000D01*
X151373000Y-82495000D01*
X151378000Y-82499000D01*
X151384000Y-82503000D01*
X151389000Y-82507000D01*
X151393000Y-82512000D01*
X151398000Y-82516000D01*
X151402000Y-82521000D01*
X151406000Y-82527000D01*
X151410000Y-82532000D01*
X151413000Y-82538000D01*
X151416000Y-82543000D01*
X151419000Y-82549000D01*
X151422000Y-82555000D01*
X151424000Y-82561000D01*
X151426000Y-82568000D01*
X151427000Y-82574000D01*
X151428000Y-82580000D01*
X151429000Y-82587000D01*
X151430000Y-82593000D01*
X151430000Y-82600000D01*
X151430000Y-82800000D01*
X151430000Y-82807000D01*
X151429000Y-82813000D01*
X151428000Y-82820000D01*
X151427000Y-82826000D01*
X151426000Y-82832000D01*
X151424000Y-82839000D01*
X151422000Y-82845000D01*
X151419000Y-82851000D01*
X151416000Y-82857000D01*
X151413000Y-82863000D01*
X151410000Y-82868000D01*
X151406000Y-82873000D01*
X151402000Y-82879000D01*
X151398000Y-82884000D01*
X151393000Y-82888000D01*
X151389000Y-82893000D01*
X151384000Y-82897000D01*
X151378000Y-82901000D01*
X151373000Y-82905000D01*
X151368000Y-82908000D01*
X151362000Y-82911000D01*
X151356000Y-82914000D01*
X151350000Y-82917000D01*
X151344000Y-82919000D01*
X151337000Y-82921000D01*
X151331000Y-82922000D01*
X151325000Y-82923000D01*
X151318000Y-82924000D01*
X151312000Y-82925000D01*
X151305000Y-82925000D01*
X150865000Y-82925000D01*
X150858000Y-82925000D01*
X150852000Y-82924000D01*
X150845000Y-82923000D01*
X150839000Y-82922000D01*
X150833000Y-82921000D01*
X150826000Y-82919000D01*
X150820000Y-82917000D01*
X150814000Y-82914000D01*
X150808000Y-82911000D01*
X150802000Y-82908000D01*
X150797000Y-82905000D01*
X150792000Y-82901000D01*
X150786000Y-82897000D01*
X150781000Y-82893000D01*
X150777000Y-82888000D01*
X150772000Y-82884000D01*
X150768000Y-82879000D01*
X150764000Y-82873000D01*
X150760000Y-82868000D01*
X150757000Y-82862000D01*
X150754000Y-82857000D01*
X150751000Y-82851000D01*
X150748000Y-82845000D01*
X150746000Y-82839000D01*
X150744000Y-82832000D01*
X150743000Y-82826000D01*
X150742000Y-82820000D01*
X150741000Y-82813000D01*
X150740000Y-82807000D01*
X150740000Y-82800000D01*
X150740000Y-82600000D01*
X150740000Y-82593000D01*
X150741000Y-82587000D01*
X150742000Y-82580000D01*
X150743000Y-82574000D01*
X150744000Y-82568000D01*
X150746000Y-82561000D01*
X150748000Y-82555000D01*
X150751000Y-82549000D01*
X150754000Y-82543000D01*
X150757000Y-82538000D01*
X150760000Y-82532000D01*
X150764000Y-82527000D01*
X150768000Y-82521000D01*
X150772000Y-82516000D01*
X150777000Y-82512000D01*
X150781000Y-82507000D01*
X150786000Y-82503000D01*
X150792000Y-82499000D01*
X150797000Y-82495000D01*
X150802000Y-82492000D01*
X150808000Y-82489000D01*
X150814000Y-82486000D01*
X150820000Y-82483000D01*
X150826000Y-82481000D01*
X150833000Y-82479000D01*
X150839000Y-82478000D01*
X150845000Y-82477000D01*
X150852000Y-82476000D01*
X150858000Y-82475000D01*
X150865000Y-82475000D01*
X151305000Y-82475000D01*
X151312000Y-82475000D01*
X151318000Y-82476000D01*
G36*
X151318000Y-82476000D02*
G01*
X151325000Y-82477000D01*
X151331000Y-82478000D01*
X151337000Y-82479000D01*
X151344000Y-82481000D01*
X151350000Y-82483000D01*
X151356000Y-82486000D01*
X151362000Y-82489000D01*
X151368000Y-82492000D01*
X151373000Y-82495000D01*
X151378000Y-82499000D01*
X151384000Y-82503000D01*
X151389000Y-82507000D01*
X151393000Y-82512000D01*
X151398000Y-82516000D01*
X151402000Y-82521000D01*
X151406000Y-82527000D01*
X151410000Y-82532000D01*
X151413000Y-82538000D01*
X151416000Y-82543000D01*
X151419000Y-82549000D01*
X151422000Y-82555000D01*
X151424000Y-82561000D01*
X151426000Y-82568000D01*
X151427000Y-82574000D01*
X151428000Y-82580000D01*
X151429000Y-82587000D01*
X151430000Y-82593000D01*
X151430000Y-82600000D01*
X151430000Y-82800000D01*
X151430000Y-82807000D01*
X151429000Y-82813000D01*
X151428000Y-82820000D01*
X151427000Y-82826000D01*
X151426000Y-82832000D01*
X151424000Y-82839000D01*
X151422000Y-82845000D01*
X151419000Y-82851000D01*
X151416000Y-82857000D01*
X151413000Y-82863000D01*
X151410000Y-82868000D01*
X151406000Y-82873000D01*
X151402000Y-82879000D01*
X151398000Y-82884000D01*
X151393000Y-82888000D01*
X151389000Y-82893000D01*
X151384000Y-82897000D01*
X151378000Y-82901000D01*
X151373000Y-82905000D01*
X151368000Y-82908000D01*
X151362000Y-82911000D01*
X151356000Y-82914000D01*
X151350000Y-82917000D01*
X151344000Y-82919000D01*
X151337000Y-82921000D01*
X151331000Y-82922000D01*
X151325000Y-82923000D01*
X151318000Y-82924000D01*
X151312000Y-82925000D01*
X151305000Y-82925000D01*
X150865000Y-82925000D01*
X150858000Y-82925000D01*
X150852000Y-82924000D01*
X150845000Y-82923000D01*
X150839000Y-82922000D01*
X150833000Y-82921000D01*
X150826000Y-82919000D01*
X150820000Y-82917000D01*
X150814000Y-82914000D01*
X150808000Y-82911000D01*
X150802000Y-82908000D01*
X150797000Y-82905000D01*
X150792000Y-82901000D01*
X150786000Y-82897000D01*
X150781000Y-82893000D01*
X150777000Y-82888000D01*
X150772000Y-82884000D01*
X150768000Y-82879000D01*
X150764000Y-82873000D01*
X150760000Y-82868000D01*
X150757000Y-82862000D01*
X150754000Y-82857000D01*
X150751000Y-82851000D01*
X150748000Y-82845000D01*
X150746000Y-82839000D01*
X150744000Y-82832000D01*
X150743000Y-82826000D01*
X150742000Y-82820000D01*
X150741000Y-82813000D01*
X150740000Y-82807000D01*
X150740000Y-82800000D01*
X150740000Y-82600000D01*
X150740000Y-82593000D01*
X150741000Y-82587000D01*
X150742000Y-82580000D01*
X150743000Y-82574000D01*
X150744000Y-82568000D01*
X150746000Y-82561000D01*
X150748000Y-82555000D01*
X150751000Y-82549000D01*
X150754000Y-82543000D01*
X150757000Y-82538000D01*
X150760000Y-82532000D01*
X150764000Y-82527000D01*
X150768000Y-82521000D01*
X150772000Y-82516000D01*
X150777000Y-82512000D01*
X150781000Y-82507000D01*
X150786000Y-82503000D01*
X150792000Y-82499000D01*
X150797000Y-82495000D01*
X150802000Y-82492000D01*
X150808000Y-82489000D01*
X150814000Y-82486000D01*
X150820000Y-82483000D01*
X150826000Y-82481000D01*
X150833000Y-82479000D01*
X150839000Y-82478000D01*
X150845000Y-82477000D01*
X150852000Y-82476000D01*
X150858000Y-82475000D01*
X150865000Y-82475000D01*
X151305000Y-82475000D01*
X151312000Y-82475000D01*
X151318000Y-82476000D01*
G37*
X151318000Y-82976000D02*
X151325000Y-82977000D01*
X151331000Y-82978000D01*
X151337000Y-82979000D01*
X151344000Y-82981000D01*
X151350000Y-82983000D01*
X151356000Y-82986000D01*
X151362000Y-82989000D01*
X151368000Y-82992000D01*
X151373000Y-82995000D01*
X151378000Y-82999000D01*
X151384000Y-83003000D01*
X151389000Y-83007000D01*
X151393000Y-83012000D01*
X151398000Y-83016000D01*
X151402000Y-83021000D01*
X151406000Y-83027000D01*
X151410000Y-83032000D01*
X151413000Y-83037000D01*
X151416000Y-83043000D01*
X151419000Y-83049000D01*
X151422000Y-83055000D01*
X151424000Y-83061000D01*
X151426000Y-83068000D01*
X151427000Y-83074000D01*
X151428000Y-83080000D01*
X151429000Y-83087000D01*
X151430000Y-83093000D01*
X151430000Y-83100000D01*
X151430000Y-83300000D01*
X151430000Y-83307000D01*
X151429000Y-83313000D01*
X151428000Y-83320000D01*
X151427000Y-83326000D01*
X151426000Y-83332000D01*
X151424000Y-83339000D01*
X151422000Y-83345000D01*
X151419000Y-83351000D01*
X151416000Y-83357000D01*
X151413000Y-83363000D01*
X151410000Y-83368000D01*
X151406000Y-83373000D01*
X151402000Y-83379000D01*
X151398000Y-83384000D01*
X151393000Y-83388000D01*
X151389000Y-83393000D01*
X151384000Y-83397000D01*
X151378000Y-83401000D01*
X151373000Y-83405000D01*
X151368000Y-83408000D01*
X151362000Y-83411000D01*
X151356000Y-83414000D01*
X151350000Y-83417000D01*
X151344000Y-83419000D01*
X151337000Y-83421000D01*
X151331000Y-83422000D01*
X151325000Y-83423000D01*
X151318000Y-83424000D01*
X151312000Y-83425000D01*
X151305000Y-83425000D01*
X150865000Y-83425000D01*
X150858000Y-83425000D01*
X150852000Y-83424000D01*
X150845000Y-83423000D01*
X150839000Y-83422000D01*
X150833000Y-83421000D01*
X150826000Y-83419000D01*
X150820000Y-83417000D01*
X150814000Y-83414000D01*
X150808000Y-83411000D01*
X150802000Y-83408000D01*
X150797000Y-83405000D01*
X150792000Y-83401000D01*
X150786000Y-83397000D01*
X150781000Y-83393000D01*
X150777000Y-83388000D01*
X150772000Y-83384000D01*
X150768000Y-83379000D01*
X150764000Y-83373000D01*
X150760000Y-83368000D01*
X150757000Y-83362000D01*
X150754000Y-83357000D01*
X150751000Y-83351000D01*
X150748000Y-83345000D01*
X150746000Y-83339000D01*
X150744000Y-83332000D01*
X150743000Y-83326000D01*
X150742000Y-83320000D01*
X150741000Y-83313000D01*
X150740000Y-83307000D01*
X150740000Y-83300000D01*
X150740000Y-83100000D01*
X150740000Y-83093000D01*
X150741000Y-83087000D01*
X150742000Y-83080000D01*
X150743000Y-83074000D01*
X150744000Y-83068000D01*
X150746000Y-83061000D01*
X150748000Y-83055000D01*
X150751000Y-83049000D01*
X150754000Y-83043000D01*
X150757000Y-83037000D01*
X150760000Y-83032000D01*
X150764000Y-83027000D01*
X150768000Y-83021000D01*
X150772000Y-83016000D01*
X150777000Y-83012000D01*
X150781000Y-83007000D01*
X150786000Y-83003000D01*
X150792000Y-82999000D01*
X150797000Y-82995000D01*
X150802000Y-82992000D01*
X150808000Y-82989000D01*
X150814000Y-82986000D01*
X150820000Y-82983000D01*
X150826000Y-82981000D01*
X150833000Y-82979000D01*
X150839000Y-82978000D01*
X150845000Y-82977000D01*
X150852000Y-82976000D01*
X150858000Y-82975000D01*
X150865000Y-82975000D01*
X151305000Y-82975000D01*
X151312000Y-82975000D01*
X151318000Y-82976000D01*
G36*
X151318000Y-82976000D02*
G01*
X151325000Y-82977000D01*
X151331000Y-82978000D01*
X151337000Y-82979000D01*
X151344000Y-82981000D01*
X151350000Y-82983000D01*
X151356000Y-82986000D01*
X151362000Y-82989000D01*
X151368000Y-82992000D01*
X151373000Y-82995000D01*
X151378000Y-82999000D01*
X151384000Y-83003000D01*
X151389000Y-83007000D01*
X151393000Y-83012000D01*
X151398000Y-83016000D01*
X151402000Y-83021000D01*
X151406000Y-83027000D01*
X151410000Y-83032000D01*
X151413000Y-83037000D01*
X151416000Y-83043000D01*
X151419000Y-83049000D01*
X151422000Y-83055000D01*
X151424000Y-83061000D01*
X151426000Y-83068000D01*
X151427000Y-83074000D01*
X151428000Y-83080000D01*
X151429000Y-83087000D01*
X151430000Y-83093000D01*
X151430000Y-83100000D01*
X151430000Y-83300000D01*
X151430000Y-83307000D01*
X151429000Y-83313000D01*
X151428000Y-83320000D01*
X151427000Y-83326000D01*
X151426000Y-83332000D01*
X151424000Y-83339000D01*
X151422000Y-83345000D01*
X151419000Y-83351000D01*
X151416000Y-83357000D01*
X151413000Y-83363000D01*
X151410000Y-83368000D01*
X151406000Y-83373000D01*
X151402000Y-83379000D01*
X151398000Y-83384000D01*
X151393000Y-83388000D01*
X151389000Y-83393000D01*
X151384000Y-83397000D01*
X151378000Y-83401000D01*
X151373000Y-83405000D01*
X151368000Y-83408000D01*
X151362000Y-83411000D01*
X151356000Y-83414000D01*
X151350000Y-83417000D01*
X151344000Y-83419000D01*
X151337000Y-83421000D01*
X151331000Y-83422000D01*
X151325000Y-83423000D01*
X151318000Y-83424000D01*
X151312000Y-83425000D01*
X151305000Y-83425000D01*
X150865000Y-83425000D01*
X150858000Y-83425000D01*
X150852000Y-83424000D01*
X150845000Y-83423000D01*
X150839000Y-83422000D01*
X150833000Y-83421000D01*
X150826000Y-83419000D01*
X150820000Y-83417000D01*
X150814000Y-83414000D01*
X150808000Y-83411000D01*
X150802000Y-83408000D01*
X150797000Y-83405000D01*
X150792000Y-83401000D01*
X150786000Y-83397000D01*
X150781000Y-83393000D01*
X150777000Y-83388000D01*
X150772000Y-83384000D01*
X150768000Y-83379000D01*
X150764000Y-83373000D01*
X150760000Y-83368000D01*
X150757000Y-83362000D01*
X150754000Y-83357000D01*
X150751000Y-83351000D01*
X150748000Y-83345000D01*
X150746000Y-83339000D01*
X150744000Y-83332000D01*
X150743000Y-83326000D01*
X150742000Y-83320000D01*
X150741000Y-83313000D01*
X150740000Y-83307000D01*
X150740000Y-83300000D01*
X150740000Y-83100000D01*
X150740000Y-83093000D01*
X150741000Y-83087000D01*
X150742000Y-83080000D01*
X150743000Y-83074000D01*
X150744000Y-83068000D01*
X150746000Y-83061000D01*
X150748000Y-83055000D01*
X150751000Y-83049000D01*
X150754000Y-83043000D01*
X150757000Y-83037000D01*
X150760000Y-83032000D01*
X150764000Y-83027000D01*
X150768000Y-83021000D01*
X150772000Y-83016000D01*
X150777000Y-83012000D01*
X150781000Y-83007000D01*
X150786000Y-83003000D01*
X150792000Y-82999000D01*
X150797000Y-82995000D01*
X150802000Y-82992000D01*
X150808000Y-82989000D01*
X150814000Y-82986000D01*
X150820000Y-82983000D01*
X150826000Y-82981000D01*
X150833000Y-82979000D01*
X150839000Y-82978000D01*
X150845000Y-82977000D01*
X150852000Y-82976000D01*
X150858000Y-82975000D01*
X150865000Y-82975000D01*
X151305000Y-82975000D01*
X151312000Y-82975000D01*
X151318000Y-82976000D01*
G37*
X151318000Y-83476000D02*
X151325000Y-83477000D01*
X151331000Y-83478000D01*
X151337000Y-83479000D01*
X151344000Y-83481000D01*
X151350000Y-83483000D01*
X151356000Y-83486000D01*
X151362000Y-83489000D01*
X151368000Y-83492000D01*
X151373000Y-83495000D01*
X151378000Y-83499000D01*
X151384000Y-83503000D01*
X151389000Y-83507000D01*
X151393000Y-83512000D01*
X151398000Y-83516000D01*
X151402000Y-83521000D01*
X151406000Y-83527000D01*
X151410000Y-83532000D01*
X151413000Y-83538000D01*
X151416000Y-83543000D01*
X151419000Y-83549000D01*
X151422000Y-83555000D01*
X151424000Y-83561000D01*
X151426000Y-83568000D01*
X151427000Y-83574000D01*
X151428000Y-83580000D01*
X151429000Y-83587000D01*
X151430000Y-83593000D01*
X151430000Y-83600000D01*
X151430000Y-83800000D01*
X151430000Y-83807000D01*
X151429000Y-83813000D01*
X151428000Y-83820000D01*
X151427000Y-83826000D01*
X151426000Y-83832000D01*
X151424000Y-83839000D01*
X151422000Y-83845000D01*
X151419000Y-83851000D01*
X151416000Y-83857000D01*
X151413000Y-83863000D01*
X151410000Y-83868000D01*
X151406000Y-83873000D01*
X151402000Y-83879000D01*
X151398000Y-83884000D01*
X151393000Y-83888000D01*
X151389000Y-83893000D01*
X151384000Y-83897000D01*
X151378000Y-83901000D01*
X151373000Y-83905000D01*
X151368000Y-83908000D01*
X151362000Y-83911000D01*
X151356000Y-83914000D01*
X151350000Y-83917000D01*
X151344000Y-83919000D01*
X151337000Y-83921000D01*
X151331000Y-83922000D01*
X151325000Y-83923000D01*
X151318000Y-83924000D01*
X151312000Y-83925000D01*
X151305000Y-83925000D01*
X150865000Y-83925000D01*
X150858000Y-83925000D01*
X150852000Y-83924000D01*
X150845000Y-83923000D01*
X150839000Y-83922000D01*
X150833000Y-83921000D01*
X150826000Y-83919000D01*
X150820000Y-83917000D01*
X150814000Y-83914000D01*
X150808000Y-83911000D01*
X150802000Y-83908000D01*
X150797000Y-83905000D01*
X150792000Y-83901000D01*
X150786000Y-83897000D01*
X150781000Y-83893000D01*
X150777000Y-83888000D01*
X150772000Y-83884000D01*
X150768000Y-83879000D01*
X150764000Y-83873000D01*
X150760000Y-83868000D01*
X150757000Y-83862000D01*
X150754000Y-83857000D01*
X150751000Y-83851000D01*
X150748000Y-83845000D01*
X150746000Y-83839000D01*
X150744000Y-83832000D01*
X150743000Y-83826000D01*
X150742000Y-83820000D01*
X150741000Y-83813000D01*
X150740000Y-83807000D01*
X150740000Y-83800000D01*
X150740000Y-83600000D01*
X150740000Y-83593000D01*
X150741000Y-83587000D01*
X150742000Y-83580000D01*
X150743000Y-83574000D01*
X150744000Y-83568000D01*
X150746000Y-83561000D01*
X150748000Y-83555000D01*
X150751000Y-83549000D01*
X150754000Y-83543000D01*
X150757000Y-83538000D01*
X150760000Y-83532000D01*
X150764000Y-83527000D01*
X150768000Y-83521000D01*
X150772000Y-83516000D01*
X150777000Y-83512000D01*
X150781000Y-83507000D01*
X150786000Y-83503000D01*
X150792000Y-83499000D01*
X150797000Y-83495000D01*
X150802000Y-83492000D01*
X150808000Y-83489000D01*
X150814000Y-83486000D01*
X150820000Y-83483000D01*
X150826000Y-83481000D01*
X150833000Y-83479000D01*
X150839000Y-83478000D01*
X150845000Y-83477000D01*
X150852000Y-83476000D01*
X150858000Y-83475000D01*
X150865000Y-83475000D01*
X151305000Y-83475000D01*
X151312000Y-83475000D01*
X151318000Y-83476000D01*
G36*
X151318000Y-83476000D02*
G01*
X151325000Y-83477000D01*
X151331000Y-83478000D01*
X151337000Y-83479000D01*
X151344000Y-83481000D01*
X151350000Y-83483000D01*
X151356000Y-83486000D01*
X151362000Y-83489000D01*
X151368000Y-83492000D01*
X151373000Y-83495000D01*
X151378000Y-83499000D01*
X151384000Y-83503000D01*
X151389000Y-83507000D01*
X151393000Y-83512000D01*
X151398000Y-83516000D01*
X151402000Y-83521000D01*
X151406000Y-83527000D01*
X151410000Y-83532000D01*
X151413000Y-83538000D01*
X151416000Y-83543000D01*
X151419000Y-83549000D01*
X151422000Y-83555000D01*
X151424000Y-83561000D01*
X151426000Y-83568000D01*
X151427000Y-83574000D01*
X151428000Y-83580000D01*
X151429000Y-83587000D01*
X151430000Y-83593000D01*
X151430000Y-83600000D01*
X151430000Y-83800000D01*
X151430000Y-83807000D01*
X151429000Y-83813000D01*
X151428000Y-83820000D01*
X151427000Y-83826000D01*
X151426000Y-83832000D01*
X151424000Y-83839000D01*
X151422000Y-83845000D01*
X151419000Y-83851000D01*
X151416000Y-83857000D01*
X151413000Y-83863000D01*
X151410000Y-83868000D01*
X151406000Y-83873000D01*
X151402000Y-83879000D01*
X151398000Y-83884000D01*
X151393000Y-83888000D01*
X151389000Y-83893000D01*
X151384000Y-83897000D01*
X151378000Y-83901000D01*
X151373000Y-83905000D01*
X151368000Y-83908000D01*
X151362000Y-83911000D01*
X151356000Y-83914000D01*
X151350000Y-83917000D01*
X151344000Y-83919000D01*
X151337000Y-83921000D01*
X151331000Y-83922000D01*
X151325000Y-83923000D01*
X151318000Y-83924000D01*
X151312000Y-83925000D01*
X151305000Y-83925000D01*
X150865000Y-83925000D01*
X150858000Y-83925000D01*
X150852000Y-83924000D01*
X150845000Y-83923000D01*
X150839000Y-83922000D01*
X150833000Y-83921000D01*
X150826000Y-83919000D01*
X150820000Y-83917000D01*
X150814000Y-83914000D01*
X150808000Y-83911000D01*
X150802000Y-83908000D01*
X150797000Y-83905000D01*
X150792000Y-83901000D01*
X150786000Y-83897000D01*
X150781000Y-83893000D01*
X150777000Y-83888000D01*
X150772000Y-83884000D01*
X150768000Y-83879000D01*
X150764000Y-83873000D01*
X150760000Y-83868000D01*
X150757000Y-83862000D01*
X150754000Y-83857000D01*
X150751000Y-83851000D01*
X150748000Y-83845000D01*
X150746000Y-83839000D01*
X150744000Y-83832000D01*
X150743000Y-83826000D01*
X150742000Y-83820000D01*
X150741000Y-83813000D01*
X150740000Y-83807000D01*
X150740000Y-83800000D01*
X150740000Y-83600000D01*
X150740000Y-83593000D01*
X150741000Y-83587000D01*
X150742000Y-83580000D01*
X150743000Y-83574000D01*
X150744000Y-83568000D01*
X150746000Y-83561000D01*
X150748000Y-83555000D01*
X150751000Y-83549000D01*
X150754000Y-83543000D01*
X150757000Y-83538000D01*
X150760000Y-83532000D01*
X150764000Y-83527000D01*
X150768000Y-83521000D01*
X150772000Y-83516000D01*
X150777000Y-83512000D01*
X150781000Y-83507000D01*
X150786000Y-83503000D01*
X150792000Y-83499000D01*
X150797000Y-83495000D01*
X150802000Y-83492000D01*
X150808000Y-83489000D01*
X150814000Y-83486000D01*
X150820000Y-83483000D01*
X150826000Y-83481000D01*
X150833000Y-83479000D01*
X150839000Y-83478000D01*
X150845000Y-83477000D01*
X150852000Y-83476000D01*
X150858000Y-83475000D01*
X150865000Y-83475000D01*
X151305000Y-83475000D01*
X151312000Y-83475000D01*
X151318000Y-83476000D01*
G37*
X151363000Y-81691000D02*
X151370000Y-81692000D01*
X151376000Y-81693000D01*
X151382000Y-81694000D01*
X151389000Y-81696000D01*
X151395000Y-81698000D01*
X151401000Y-81701000D01*
X151407000Y-81704000D01*
X151412000Y-81707000D01*
X151418000Y-81710000D01*
X151423000Y-81714000D01*
X151429000Y-81718000D01*
X151434000Y-81722000D01*
X151438000Y-81727000D01*
X151443000Y-81731000D01*
X151447000Y-81736000D01*
X151451000Y-81742000D01*
X151455000Y-81747000D01*
X151458000Y-81752000D01*
X151461000Y-81758000D01*
X151464000Y-81764000D01*
X151467000Y-81770000D01*
X151469000Y-81776000D01*
X151471000Y-81783000D01*
X151472000Y-81789000D01*
X151473000Y-81795000D01*
X151474000Y-81802000D01*
X151475000Y-81808000D01*
X151475000Y-81815000D01*
X151475000Y-82255000D01*
X151475000Y-82262000D01*
X151474000Y-82268000D01*
X151473000Y-82275000D01*
X151472000Y-82281000D01*
X151471000Y-82287000D01*
X151469000Y-82294000D01*
X151467000Y-82300000D01*
X151464000Y-82306000D01*
X151461000Y-82312000D01*
X151458000Y-82318000D01*
X151455000Y-82323000D01*
X151451000Y-82328000D01*
X151447000Y-82334000D01*
X151443000Y-82339000D01*
X151438000Y-82343000D01*
X151434000Y-82348000D01*
X151429000Y-82352000D01*
X151423000Y-82356000D01*
X151418000Y-82360000D01*
X151412000Y-82363000D01*
X151407000Y-82366000D01*
X151401000Y-82369000D01*
X151395000Y-82372000D01*
X151389000Y-82374000D01*
X151382000Y-82376000D01*
X151376000Y-82377000D01*
X151370000Y-82378000D01*
X151363000Y-82379000D01*
X151357000Y-82380000D01*
X151350000Y-82380000D01*
X151150000Y-82380000D01*
X151143000Y-82380000D01*
X151137000Y-82379000D01*
X151130000Y-82378000D01*
X151124000Y-82377000D01*
X151118000Y-82376000D01*
X151111000Y-82374000D01*
X151105000Y-82372000D01*
X151099000Y-82369000D01*
X151093000Y-82366000D01*
X151088000Y-82363000D01*
X151082000Y-82360000D01*
X151077000Y-82356000D01*
X151071000Y-82352000D01*
X151066000Y-82348000D01*
X151062000Y-82343000D01*
X151057000Y-82339000D01*
X151053000Y-82334000D01*
X151049000Y-82328000D01*
X151045000Y-82323000D01*
X151042000Y-82318000D01*
X151039000Y-82312000D01*
X151036000Y-82306000D01*
X151033000Y-82300000D01*
X151031000Y-82294000D01*
X151029000Y-82287000D01*
X151028000Y-82281000D01*
X151027000Y-82275000D01*
X151026000Y-82268000D01*
X151025000Y-82262000D01*
X151025000Y-82255000D01*
X151025000Y-81815000D01*
X151025000Y-81808000D01*
X151026000Y-81802000D01*
X151027000Y-81795000D01*
X151028000Y-81789000D01*
X151029000Y-81783000D01*
X151031000Y-81776000D01*
X151033000Y-81770000D01*
X151036000Y-81764000D01*
X151039000Y-81758000D01*
X151042000Y-81752000D01*
X151045000Y-81747000D01*
X151049000Y-81742000D01*
X151053000Y-81736000D01*
X151057000Y-81731000D01*
X151062000Y-81727000D01*
X151066000Y-81722000D01*
X151071000Y-81718000D01*
X151077000Y-81714000D01*
X151082000Y-81710000D01*
X151088000Y-81707000D01*
X151093000Y-81704000D01*
X151099000Y-81701000D01*
X151105000Y-81698000D01*
X151111000Y-81696000D01*
X151118000Y-81694000D01*
X151124000Y-81693000D01*
X151130000Y-81692000D01*
X151137000Y-81691000D01*
X151143000Y-81690000D01*
X151150000Y-81690000D01*
X151350000Y-81690000D01*
X151357000Y-81690000D01*
X151363000Y-81691000D01*
G36*
X151363000Y-81691000D02*
G01*
X151370000Y-81692000D01*
X151376000Y-81693000D01*
X151382000Y-81694000D01*
X151389000Y-81696000D01*
X151395000Y-81698000D01*
X151401000Y-81701000D01*
X151407000Y-81704000D01*
X151412000Y-81707000D01*
X151418000Y-81710000D01*
X151423000Y-81714000D01*
X151429000Y-81718000D01*
X151434000Y-81722000D01*
X151438000Y-81727000D01*
X151443000Y-81731000D01*
X151447000Y-81736000D01*
X151451000Y-81742000D01*
X151455000Y-81747000D01*
X151458000Y-81752000D01*
X151461000Y-81758000D01*
X151464000Y-81764000D01*
X151467000Y-81770000D01*
X151469000Y-81776000D01*
X151471000Y-81783000D01*
X151472000Y-81789000D01*
X151473000Y-81795000D01*
X151474000Y-81802000D01*
X151475000Y-81808000D01*
X151475000Y-81815000D01*
X151475000Y-82255000D01*
X151475000Y-82262000D01*
X151474000Y-82268000D01*
X151473000Y-82275000D01*
X151472000Y-82281000D01*
X151471000Y-82287000D01*
X151469000Y-82294000D01*
X151467000Y-82300000D01*
X151464000Y-82306000D01*
X151461000Y-82312000D01*
X151458000Y-82318000D01*
X151455000Y-82323000D01*
X151451000Y-82328000D01*
X151447000Y-82334000D01*
X151443000Y-82339000D01*
X151438000Y-82343000D01*
X151434000Y-82348000D01*
X151429000Y-82352000D01*
X151423000Y-82356000D01*
X151418000Y-82360000D01*
X151412000Y-82363000D01*
X151407000Y-82366000D01*
X151401000Y-82369000D01*
X151395000Y-82372000D01*
X151389000Y-82374000D01*
X151382000Y-82376000D01*
X151376000Y-82377000D01*
X151370000Y-82378000D01*
X151363000Y-82379000D01*
X151357000Y-82380000D01*
X151350000Y-82380000D01*
X151150000Y-82380000D01*
X151143000Y-82380000D01*
X151137000Y-82379000D01*
X151130000Y-82378000D01*
X151124000Y-82377000D01*
X151118000Y-82376000D01*
X151111000Y-82374000D01*
X151105000Y-82372000D01*
X151099000Y-82369000D01*
X151093000Y-82366000D01*
X151088000Y-82363000D01*
X151082000Y-82360000D01*
X151077000Y-82356000D01*
X151071000Y-82352000D01*
X151066000Y-82348000D01*
X151062000Y-82343000D01*
X151057000Y-82339000D01*
X151053000Y-82334000D01*
X151049000Y-82328000D01*
X151045000Y-82323000D01*
X151042000Y-82318000D01*
X151039000Y-82312000D01*
X151036000Y-82306000D01*
X151033000Y-82300000D01*
X151031000Y-82294000D01*
X151029000Y-82287000D01*
X151028000Y-82281000D01*
X151027000Y-82275000D01*
X151026000Y-82268000D01*
X151025000Y-82262000D01*
X151025000Y-82255000D01*
X151025000Y-81815000D01*
X151025000Y-81808000D01*
X151026000Y-81802000D01*
X151027000Y-81795000D01*
X151028000Y-81789000D01*
X151029000Y-81783000D01*
X151031000Y-81776000D01*
X151033000Y-81770000D01*
X151036000Y-81764000D01*
X151039000Y-81758000D01*
X151042000Y-81752000D01*
X151045000Y-81747000D01*
X151049000Y-81742000D01*
X151053000Y-81736000D01*
X151057000Y-81731000D01*
X151062000Y-81727000D01*
X151066000Y-81722000D01*
X151071000Y-81718000D01*
X151077000Y-81714000D01*
X151082000Y-81710000D01*
X151088000Y-81707000D01*
X151093000Y-81704000D01*
X151099000Y-81701000D01*
X151105000Y-81698000D01*
X151111000Y-81696000D01*
X151118000Y-81694000D01*
X151124000Y-81693000D01*
X151130000Y-81692000D01*
X151137000Y-81691000D01*
X151143000Y-81690000D01*
X151150000Y-81690000D01*
X151350000Y-81690000D01*
X151357000Y-81690000D01*
X151363000Y-81691000D01*
G37*
X151363000Y-84021000D02*
X151370000Y-84022000D01*
X151376000Y-84023000D01*
X151382000Y-84024000D01*
X151389000Y-84026000D01*
X151395000Y-84028000D01*
X151401000Y-84031000D01*
X151407000Y-84034000D01*
X151412000Y-84037000D01*
X151418000Y-84040000D01*
X151423000Y-84044000D01*
X151429000Y-84048000D01*
X151434000Y-84052000D01*
X151438000Y-84057000D01*
X151443000Y-84061000D01*
X151447000Y-84066000D01*
X151451000Y-84072000D01*
X151455000Y-84077000D01*
X151458000Y-84082000D01*
X151461000Y-84088000D01*
X151464000Y-84094000D01*
X151467000Y-84100000D01*
X151469000Y-84106000D01*
X151471000Y-84113000D01*
X151472000Y-84119000D01*
X151473000Y-84125000D01*
X151474000Y-84132000D01*
X151475000Y-84138000D01*
X151475000Y-84145000D01*
X151475000Y-84585000D01*
X151475000Y-84592000D01*
X151474000Y-84598000D01*
X151473000Y-84605000D01*
X151472000Y-84611000D01*
X151471000Y-84617000D01*
X151469000Y-84624000D01*
X151467000Y-84630000D01*
X151464000Y-84636000D01*
X151461000Y-84642000D01*
X151458000Y-84648000D01*
X151455000Y-84653000D01*
X151451000Y-84658000D01*
X151447000Y-84664000D01*
X151443000Y-84669000D01*
X151438000Y-84673000D01*
X151434000Y-84678000D01*
X151429000Y-84682000D01*
X151423000Y-84686000D01*
X151418000Y-84690000D01*
X151412000Y-84693000D01*
X151407000Y-84696000D01*
X151401000Y-84699000D01*
X151395000Y-84702000D01*
X151389000Y-84704000D01*
X151382000Y-84706000D01*
X151376000Y-84707000D01*
X151370000Y-84708000D01*
X151363000Y-84709000D01*
X151357000Y-84710000D01*
X151350000Y-84710000D01*
X151150000Y-84710000D01*
X151143000Y-84710000D01*
X151137000Y-84709000D01*
X151130000Y-84708000D01*
X151124000Y-84707000D01*
X151118000Y-84706000D01*
X151111000Y-84704000D01*
X151105000Y-84702000D01*
X151099000Y-84699000D01*
X151093000Y-84696000D01*
X151088000Y-84693000D01*
X151082000Y-84690000D01*
X151077000Y-84686000D01*
X151071000Y-84682000D01*
X151066000Y-84678000D01*
X151062000Y-84673000D01*
X151057000Y-84669000D01*
X151053000Y-84664000D01*
X151049000Y-84658000D01*
X151045000Y-84653000D01*
X151042000Y-84648000D01*
X151039000Y-84642000D01*
X151036000Y-84636000D01*
X151033000Y-84630000D01*
X151031000Y-84624000D01*
X151029000Y-84617000D01*
X151028000Y-84611000D01*
X151027000Y-84605000D01*
X151026000Y-84598000D01*
X151025000Y-84592000D01*
X151025000Y-84585000D01*
X151025000Y-84145000D01*
X151025000Y-84138000D01*
X151026000Y-84132000D01*
X151027000Y-84125000D01*
X151028000Y-84119000D01*
X151029000Y-84113000D01*
X151031000Y-84106000D01*
X151033000Y-84100000D01*
X151036000Y-84094000D01*
X151039000Y-84088000D01*
X151042000Y-84082000D01*
X151045000Y-84077000D01*
X151049000Y-84072000D01*
X151053000Y-84066000D01*
X151057000Y-84061000D01*
X151062000Y-84057000D01*
X151066000Y-84052000D01*
X151071000Y-84048000D01*
X151077000Y-84044000D01*
X151082000Y-84040000D01*
X151088000Y-84037000D01*
X151093000Y-84034000D01*
X151099000Y-84031000D01*
X151105000Y-84028000D01*
X151111000Y-84026000D01*
X151118000Y-84024000D01*
X151124000Y-84023000D01*
X151130000Y-84022000D01*
X151137000Y-84021000D01*
X151143000Y-84020000D01*
X151150000Y-84020000D01*
X151350000Y-84020000D01*
X151357000Y-84020000D01*
X151363000Y-84021000D01*
G36*
X151363000Y-84021000D02*
G01*
X151370000Y-84022000D01*
X151376000Y-84023000D01*
X151382000Y-84024000D01*
X151389000Y-84026000D01*
X151395000Y-84028000D01*
X151401000Y-84031000D01*
X151407000Y-84034000D01*
X151412000Y-84037000D01*
X151418000Y-84040000D01*
X151423000Y-84044000D01*
X151429000Y-84048000D01*
X151434000Y-84052000D01*
X151438000Y-84057000D01*
X151443000Y-84061000D01*
X151447000Y-84066000D01*
X151451000Y-84072000D01*
X151455000Y-84077000D01*
X151458000Y-84082000D01*
X151461000Y-84088000D01*
X151464000Y-84094000D01*
X151467000Y-84100000D01*
X151469000Y-84106000D01*
X151471000Y-84113000D01*
X151472000Y-84119000D01*
X151473000Y-84125000D01*
X151474000Y-84132000D01*
X151475000Y-84138000D01*
X151475000Y-84145000D01*
X151475000Y-84585000D01*
X151475000Y-84592000D01*
X151474000Y-84598000D01*
X151473000Y-84605000D01*
X151472000Y-84611000D01*
X151471000Y-84617000D01*
X151469000Y-84624000D01*
X151467000Y-84630000D01*
X151464000Y-84636000D01*
X151461000Y-84642000D01*
X151458000Y-84648000D01*
X151455000Y-84653000D01*
X151451000Y-84658000D01*
X151447000Y-84664000D01*
X151443000Y-84669000D01*
X151438000Y-84673000D01*
X151434000Y-84678000D01*
X151429000Y-84682000D01*
X151423000Y-84686000D01*
X151418000Y-84690000D01*
X151412000Y-84693000D01*
X151407000Y-84696000D01*
X151401000Y-84699000D01*
X151395000Y-84702000D01*
X151389000Y-84704000D01*
X151382000Y-84706000D01*
X151376000Y-84707000D01*
X151370000Y-84708000D01*
X151363000Y-84709000D01*
X151357000Y-84710000D01*
X151350000Y-84710000D01*
X151150000Y-84710000D01*
X151143000Y-84710000D01*
X151137000Y-84709000D01*
X151130000Y-84708000D01*
X151124000Y-84707000D01*
X151118000Y-84706000D01*
X151111000Y-84704000D01*
X151105000Y-84702000D01*
X151099000Y-84699000D01*
X151093000Y-84696000D01*
X151088000Y-84693000D01*
X151082000Y-84690000D01*
X151077000Y-84686000D01*
X151071000Y-84682000D01*
X151066000Y-84678000D01*
X151062000Y-84673000D01*
X151057000Y-84669000D01*
X151053000Y-84664000D01*
X151049000Y-84658000D01*
X151045000Y-84653000D01*
X151042000Y-84648000D01*
X151039000Y-84642000D01*
X151036000Y-84636000D01*
X151033000Y-84630000D01*
X151031000Y-84624000D01*
X151029000Y-84617000D01*
X151028000Y-84611000D01*
X151027000Y-84605000D01*
X151026000Y-84598000D01*
X151025000Y-84592000D01*
X151025000Y-84585000D01*
X151025000Y-84145000D01*
X151025000Y-84138000D01*
X151026000Y-84132000D01*
X151027000Y-84125000D01*
X151028000Y-84119000D01*
X151029000Y-84113000D01*
X151031000Y-84106000D01*
X151033000Y-84100000D01*
X151036000Y-84094000D01*
X151039000Y-84088000D01*
X151042000Y-84082000D01*
X151045000Y-84077000D01*
X151049000Y-84072000D01*
X151053000Y-84066000D01*
X151057000Y-84061000D01*
X151062000Y-84057000D01*
X151066000Y-84052000D01*
X151071000Y-84048000D01*
X151077000Y-84044000D01*
X151082000Y-84040000D01*
X151088000Y-84037000D01*
X151093000Y-84034000D01*
X151099000Y-84031000D01*
X151105000Y-84028000D01*
X151111000Y-84026000D01*
X151118000Y-84024000D01*
X151124000Y-84023000D01*
X151130000Y-84022000D01*
X151137000Y-84021000D01*
X151143000Y-84020000D01*
X151150000Y-84020000D01*
X151350000Y-84020000D01*
X151357000Y-84020000D01*
X151363000Y-84021000D01*
G37*
X151863000Y-81691000D02*
X151870000Y-81692000D01*
X151876000Y-81693000D01*
X151882000Y-81694000D01*
X151889000Y-81696000D01*
X151895000Y-81698000D01*
X151901000Y-81701000D01*
X151907000Y-81704000D01*
X151912000Y-81707000D01*
X151918000Y-81710000D01*
X151923000Y-81714000D01*
X151929000Y-81718000D01*
X151934000Y-81722000D01*
X151938000Y-81727000D01*
X151943000Y-81731000D01*
X151947000Y-81736000D01*
X151951000Y-81742000D01*
X151955000Y-81747000D01*
X151958000Y-81752000D01*
X151961000Y-81758000D01*
X151964000Y-81764000D01*
X151967000Y-81770000D01*
X151969000Y-81776000D01*
X151971000Y-81783000D01*
X151972000Y-81789000D01*
X151973000Y-81795000D01*
X151974000Y-81802000D01*
X151975000Y-81808000D01*
X151975000Y-81815000D01*
X151975000Y-82255000D01*
X151975000Y-82262000D01*
X151974000Y-82268000D01*
X151973000Y-82275000D01*
X151972000Y-82281000D01*
X151971000Y-82287000D01*
X151969000Y-82294000D01*
X151967000Y-82300000D01*
X151964000Y-82306000D01*
X151961000Y-82312000D01*
X151958000Y-82318000D01*
X151955000Y-82323000D01*
X151951000Y-82328000D01*
X151947000Y-82334000D01*
X151943000Y-82339000D01*
X151938000Y-82343000D01*
X151934000Y-82348000D01*
X151929000Y-82352000D01*
X151923000Y-82356000D01*
X151918000Y-82360000D01*
X151912000Y-82363000D01*
X151907000Y-82366000D01*
X151901000Y-82369000D01*
X151895000Y-82372000D01*
X151889000Y-82374000D01*
X151882000Y-82376000D01*
X151876000Y-82377000D01*
X151870000Y-82378000D01*
X151863000Y-82379000D01*
X151857000Y-82380000D01*
X151850000Y-82380000D01*
X151650000Y-82380000D01*
X151643000Y-82380000D01*
X151637000Y-82379000D01*
X151630000Y-82378000D01*
X151624000Y-82377000D01*
X151618000Y-82376000D01*
X151611000Y-82374000D01*
X151605000Y-82372000D01*
X151599000Y-82369000D01*
X151593000Y-82366000D01*
X151588000Y-82363000D01*
X151582000Y-82360000D01*
X151577000Y-82356000D01*
X151571000Y-82352000D01*
X151566000Y-82348000D01*
X151562000Y-82343000D01*
X151557000Y-82339000D01*
X151553000Y-82334000D01*
X151549000Y-82328000D01*
X151545000Y-82323000D01*
X151542000Y-82318000D01*
X151539000Y-82312000D01*
X151536000Y-82306000D01*
X151533000Y-82300000D01*
X151531000Y-82294000D01*
X151529000Y-82287000D01*
X151528000Y-82281000D01*
X151527000Y-82275000D01*
X151526000Y-82268000D01*
X151525000Y-82262000D01*
X151525000Y-82255000D01*
X151525000Y-81815000D01*
X151525000Y-81808000D01*
X151526000Y-81802000D01*
X151527000Y-81795000D01*
X151528000Y-81789000D01*
X151529000Y-81783000D01*
X151531000Y-81776000D01*
X151533000Y-81770000D01*
X151536000Y-81764000D01*
X151539000Y-81758000D01*
X151542000Y-81752000D01*
X151545000Y-81747000D01*
X151549000Y-81742000D01*
X151553000Y-81736000D01*
X151557000Y-81731000D01*
X151562000Y-81727000D01*
X151566000Y-81722000D01*
X151571000Y-81718000D01*
X151577000Y-81714000D01*
X151582000Y-81710000D01*
X151588000Y-81707000D01*
X151593000Y-81704000D01*
X151599000Y-81701000D01*
X151605000Y-81698000D01*
X151611000Y-81696000D01*
X151618000Y-81694000D01*
X151624000Y-81693000D01*
X151630000Y-81692000D01*
X151637000Y-81691000D01*
X151643000Y-81690000D01*
X151650000Y-81690000D01*
X151850000Y-81690000D01*
X151857000Y-81690000D01*
X151863000Y-81691000D01*
G36*
X151863000Y-81691000D02*
G01*
X151870000Y-81692000D01*
X151876000Y-81693000D01*
X151882000Y-81694000D01*
X151889000Y-81696000D01*
X151895000Y-81698000D01*
X151901000Y-81701000D01*
X151907000Y-81704000D01*
X151912000Y-81707000D01*
X151918000Y-81710000D01*
X151923000Y-81714000D01*
X151929000Y-81718000D01*
X151934000Y-81722000D01*
X151938000Y-81727000D01*
X151943000Y-81731000D01*
X151947000Y-81736000D01*
X151951000Y-81742000D01*
X151955000Y-81747000D01*
X151958000Y-81752000D01*
X151961000Y-81758000D01*
X151964000Y-81764000D01*
X151967000Y-81770000D01*
X151969000Y-81776000D01*
X151971000Y-81783000D01*
X151972000Y-81789000D01*
X151973000Y-81795000D01*
X151974000Y-81802000D01*
X151975000Y-81808000D01*
X151975000Y-81815000D01*
X151975000Y-82255000D01*
X151975000Y-82262000D01*
X151974000Y-82268000D01*
X151973000Y-82275000D01*
X151972000Y-82281000D01*
X151971000Y-82287000D01*
X151969000Y-82294000D01*
X151967000Y-82300000D01*
X151964000Y-82306000D01*
X151961000Y-82312000D01*
X151958000Y-82318000D01*
X151955000Y-82323000D01*
X151951000Y-82328000D01*
X151947000Y-82334000D01*
X151943000Y-82339000D01*
X151938000Y-82343000D01*
X151934000Y-82348000D01*
X151929000Y-82352000D01*
X151923000Y-82356000D01*
X151918000Y-82360000D01*
X151912000Y-82363000D01*
X151907000Y-82366000D01*
X151901000Y-82369000D01*
X151895000Y-82372000D01*
X151889000Y-82374000D01*
X151882000Y-82376000D01*
X151876000Y-82377000D01*
X151870000Y-82378000D01*
X151863000Y-82379000D01*
X151857000Y-82380000D01*
X151850000Y-82380000D01*
X151650000Y-82380000D01*
X151643000Y-82380000D01*
X151637000Y-82379000D01*
X151630000Y-82378000D01*
X151624000Y-82377000D01*
X151618000Y-82376000D01*
X151611000Y-82374000D01*
X151605000Y-82372000D01*
X151599000Y-82369000D01*
X151593000Y-82366000D01*
X151588000Y-82363000D01*
X151582000Y-82360000D01*
X151577000Y-82356000D01*
X151571000Y-82352000D01*
X151566000Y-82348000D01*
X151562000Y-82343000D01*
X151557000Y-82339000D01*
X151553000Y-82334000D01*
X151549000Y-82328000D01*
X151545000Y-82323000D01*
X151542000Y-82318000D01*
X151539000Y-82312000D01*
X151536000Y-82306000D01*
X151533000Y-82300000D01*
X151531000Y-82294000D01*
X151529000Y-82287000D01*
X151528000Y-82281000D01*
X151527000Y-82275000D01*
X151526000Y-82268000D01*
X151525000Y-82262000D01*
X151525000Y-82255000D01*
X151525000Y-81815000D01*
X151525000Y-81808000D01*
X151526000Y-81802000D01*
X151527000Y-81795000D01*
X151528000Y-81789000D01*
X151529000Y-81783000D01*
X151531000Y-81776000D01*
X151533000Y-81770000D01*
X151536000Y-81764000D01*
X151539000Y-81758000D01*
X151542000Y-81752000D01*
X151545000Y-81747000D01*
X151549000Y-81742000D01*
X151553000Y-81736000D01*
X151557000Y-81731000D01*
X151562000Y-81727000D01*
X151566000Y-81722000D01*
X151571000Y-81718000D01*
X151577000Y-81714000D01*
X151582000Y-81710000D01*
X151588000Y-81707000D01*
X151593000Y-81704000D01*
X151599000Y-81701000D01*
X151605000Y-81698000D01*
X151611000Y-81696000D01*
X151618000Y-81694000D01*
X151624000Y-81693000D01*
X151630000Y-81692000D01*
X151637000Y-81691000D01*
X151643000Y-81690000D01*
X151650000Y-81690000D01*
X151850000Y-81690000D01*
X151857000Y-81690000D01*
X151863000Y-81691000D01*
G37*
X151863000Y-84021000D02*
X151870000Y-84022000D01*
X151876000Y-84023000D01*
X151882000Y-84024000D01*
X151889000Y-84026000D01*
X151895000Y-84028000D01*
X151901000Y-84031000D01*
X151907000Y-84034000D01*
X151912000Y-84037000D01*
X151918000Y-84040000D01*
X151923000Y-84044000D01*
X151929000Y-84048000D01*
X151934000Y-84052000D01*
X151938000Y-84057000D01*
X151943000Y-84061000D01*
X151947000Y-84066000D01*
X151951000Y-84072000D01*
X151955000Y-84077000D01*
X151958000Y-84082000D01*
X151961000Y-84088000D01*
X151964000Y-84094000D01*
X151967000Y-84100000D01*
X151969000Y-84106000D01*
X151971000Y-84113000D01*
X151972000Y-84119000D01*
X151973000Y-84125000D01*
X151974000Y-84132000D01*
X151975000Y-84138000D01*
X151975000Y-84145000D01*
X151975000Y-84585000D01*
X151975000Y-84592000D01*
X151974000Y-84598000D01*
X151973000Y-84605000D01*
X151972000Y-84611000D01*
X151971000Y-84617000D01*
X151969000Y-84624000D01*
X151967000Y-84630000D01*
X151964000Y-84636000D01*
X151961000Y-84642000D01*
X151958000Y-84648000D01*
X151955000Y-84653000D01*
X151951000Y-84658000D01*
X151947000Y-84664000D01*
X151943000Y-84669000D01*
X151938000Y-84673000D01*
X151934000Y-84678000D01*
X151929000Y-84682000D01*
X151923000Y-84686000D01*
X151918000Y-84690000D01*
X151912000Y-84693000D01*
X151907000Y-84696000D01*
X151901000Y-84699000D01*
X151895000Y-84702000D01*
X151889000Y-84704000D01*
X151882000Y-84706000D01*
X151876000Y-84707000D01*
X151870000Y-84708000D01*
X151863000Y-84709000D01*
X151857000Y-84710000D01*
X151850000Y-84710000D01*
X151650000Y-84710000D01*
X151643000Y-84710000D01*
X151637000Y-84709000D01*
X151630000Y-84708000D01*
X151624000Y-84707000D01*
X151618000Y-84706000D01*
X151611000Y-84704000D01*
X151605000Y-84702000D01*
X151599000Y-84699000D01*
X151593000Y-84696000D01*
X151588000Y-84693000D01*
X151582000Y-84690000D01*
X151577000Y-84686000D01*
X151571000Y-84682000D01*
X151566000Y-84678000D01*
X151562000Y-84673000D01*
X151557000Y-84669000D01*
X151553000Y-84664000D01*
X151549000Y-84658000D01*
X151545000Y-84653000D01*
X151542000Y-84648000D01*
X151539000Y-84642000D01*
X151536000Y-84636000D01*
X151533000Y-84630000D01*
X151531000Y-84624000D01*
X151529000Y-84617000D01*
X151528000Y-84611000D01*
X151527000Y-84605000D01*
X151526000Y-84598000D01*
X151525000Y-84592000D01*
X151525000Y-84585000D01*
X151525000Y-84145000D01*
X151525000Y-84138000D01*
X151526000Y-84132000D01*
X151527000Y-84125000D01*
X151528000Y-84119000D01*
X151529000Y-84113000D01*
X151531000Y-84106000D01*
X151533000Y-84100000D01*
X151536000Y-84094000D01*
X151539000Y-84088000D01*
X151542000Y-84082000D01*
X151545000Y-84077000D01*
X151549000Y-84072000D01*
X151553000Y-84066000D01*
X151557000Y-84061000D01*
X151562000Y-84057000D01*
X151566000Y-84052000D01*
X151571000Y-84048000D01*
X151577000Y-84044000D01*
X151582000Y-84040000D01*
X151588000Y-84037000D01*
X151593000Y-84034000D01*
X151599000Y-84031000D01*
X151605000Y-84028000D01*
X151611000Y-84026000D01*
X151618000Y-84024000D01*
X151624000Y-84023000D01*
X151630000Y-84022000D01*
X151637000Y-84021000D01*
X151643000Y-84020000D01*
X151650000Y-84020000D01*
X151850000Y-84020000D01*
X151857000Y-84020000D01*
X151863000Y-84021000D01*
G36*
X151863000Y-84021000D02*
G01*
X151870000Y-84022000D01*
X151876000Y-84023000D01*
X151882000Y-84024000D01*
X151889000Y-84026000D01*
X151895000Y-84028000D01*
X151901000Y-84031000D01*
X151907000Y-84034000D01*
X151912000Y-84037000D01*
X151918000Y-84040000D01*
X151923000Y-84044000D01*
X151929000Y-84048000D01*
X151934000Y-84052000D01*
X151938000Y-84057000D01*
X151943000Y-84061000D01*
X151947000Y-84066000D01*
X151951000Y-84072000D01*
X151955000Y-84077000D01*
X151958000Y-84082000D01*
X151961000Y-84088000D01*
X151964000Y-84094000D01*
X151967000Y-84100000D01*
X151969000Y-84106000D01*
X151971000Y-84113000D01*
X151972000Y-84119000D01*
X151973000Y-84125000D01*
X151974000Y-84132000D01*
X151975000Y-84138000D01*
X151975000Y-84145000D01*
X151975000Y-84585000D01*
X151975000Y-84592000D01*
X151974000Y-84598000D01*
X151973000Y-84605000D01*
X151972000Y-84611000D01*
X151971000Y-84617000D01*
X151969000Y-84624000D01*
X151967000Y-84630000D01*
X151964000Y-84636000D01*
X151961000Y-84642000D01*
X151958000Y-84648000D01*
X151955000Y-84653000D01*
X151951000Y-84658000D01*
X151947000Y-84664000D01*
X151943000Y-84669000D01*
X151938000Y-84673000D01*
X151934000Y-84678000D01*
X151929000Y-84682000D01*
X151923000Y-84686000D01*
X151918000Y-84690000D01*
X151912000Y-84693000D01*
X151907000Y-84696000D01*
X151901000Y-84699000D01*
X151895000Y-84702000D01*
X151889000Y-84704000D01*
X151882000Y-84706000D01*
X151876000Y-84707000D01*
X151870000Y-84708000D01*
X151863000Y-84709000D01*
X151857000Y-84710000D01*
X151850000Y-84710000D01*
X151650000Y-84710000D01*
X151643000Y-84710000D01*
X151637000Y-84709000D01*
X151630000Y-84708000D01*
X151624000Y-84707000D01*
X151618000Y-84706000D01*
X151611000Y-84704000D01*
X151605000Y-84702000D01*
X151599000Y-84699000D01*
X151593000Y-84696000D01*
X151588000Y-84693000D01*
X151582000Y-84690000D01*
X151577000Y-84686000D01*
X151571000Y-84682000D01*
X151566000Y-84678000D01*
X151562000Y-84673000D01*
X151557000Y-84669000D01*
X151553000Y-84664000D01*
X151549000Y-84658000D01*
X151545000Y-84653000D01*
X151542000Y-84648000D01*
X151539000Y-84642000D01*
X151536000Y-84636000D01*
X151533000Y-84630000D01*
X151531000Y-84624000D01*
X151529000Y-84617000D01*
X151528000Y-84611000D01*
X151527000Y-84605000D01*
X151526000Y-84598000D01*
X151525000Y-84592000D01*
X151525000Y-84585000D01*
X151525000Y-84145000D01*
X151525000Y-84138000D01*
X151526000Y-84132000D01*
X151527000Y-84125000D01*
X151528000Y-84119000D01*
X151529000Y-84113000D01*
X151531000Y-84106000D01*
X151533000Y-84100000D01*
X151536000Y-84094000D01*
X151539000Y-84088000D01*
X151542000Y-84082000D01*
X151545000Y-84077000D01*
X151549000Y-84072000D01*
X151553000Y-84066000D01*
X151557000Y-84061000D01*
X151562000Y-84057000D01*
X151566000Y-84052000D01*
X151571000Y-84048000D01*
X151577000Y-84044000D01*
X151582000Y-84040000D01*
X151588000Y-84037000D01*
X151593000Y-84034000D01*
X151599000Y-84031000D01*
X151605000Y-84028000D01*
X151611000Y-84026000D01*
X151618000Y-84024000D01*
X151624000Y-84023000D01*
X151630000Y-84022000D01*
X151637000Y-84021000D01*
X151643000Y-84020000D01*
X151650000Y-84020000D01*
X151850000Y-84020000D01*
X151857000Y-84020000D01*
X151863000Y-84021000D01*
G37*
X152363000Y-81691000D02*
X152370000Y-81692000D01*
X152376000Y-81693000D01*
X152382000Y-81694000D01*
X152389000Y-81696000D01*
X152395000Y-81698000D01*
X152401000Y-81701000D01*
X152407000Y-81704000D01*
X152412000Y-81707000D01*
X152418000Y-81710000D01*
X152423000Y-81714000D01*
X152429000Y-81718000D01*
X152434000Y-81722000D01*
X152438000Y-81727000D01*
X152443000Y-81731000D01*
X152447000Y-81736000D01*
X152451000Y-81742000D01*
X152455000Y-81747000D01*
X152458000Y-81752000D01*
X152461000Y-81758000D01*
X152464000Y-81764000D01*
X152467000Y-81770000D01*
X152469000Y-81776000D01*
X152471000Y-81783000D01*
X152472000Y-81789000D01*
X152473000Y-81795000D01*
X152474000Y-81802000D01*
X152475000Y-81808000D01*
X152475000Y-81815000D01*
X152475000Y-82255000D01*
X152475000Y-82262000D01*
X152474000Y-82268000D01*
X152473000Y-82275000D01*
X152472000Y-82281000D01*
X152471000Y-82287000D01*
X152469000Y-82294000D01*
X152467000Y-82300000D01*
X152464000Y-82306000D01*
X152461000Y-82312000D01*
X152458000Y-82318000D01*
X152455000Y-82323000D01*
X152451000Y-82328000D01*
X152447000Y-82334000D01*
X152443000Y-82339000D01*
X152438000Y-82343000D01*
X152434000Y-82348000D01*
X152429000Y-82352000D01*
X152423000Y-82356000D01*
X152418000Y-82360000D01*
X152412000Y-82363000D01*
X152407000Y-82366000D01*
X152401000Y-82369000D01*
X152395000Y-82372000D01*
X152389000Y-82374000D01*
X152382000Y-82376000D01*
X152376000Y-82377000D01*
X152370000Y-82378000D01*
X152363000Y-82379000D01*
X152357000Y-82380000D01*
X152350000Y-82380000D01*
X152150000Y-82380000D01*
X152143000Y-82380000D01*
X152137000Y-82379000D01*
X152130000Y-82378000D01*
X152124000Y-82377000D01*
X152118000Y-82376000D01*
X152111000Y-82374000D01*
X152105000Y-82372000D01*
X152099000Y-82369000D01*
X152093000Y-82366000D01*
X152088000Y-82363000D01*
X152082000Y-82360000D01*
X152077000Y-82356000D01*
X152071000Y-82352000D01*
X152066000Y-82348000D01*
X152062000Y-82343000D01*
X152057000Y-82339000D01*
X152053000Y-82334000D01*
X152049000Y-82328000D01*
X152045000Y-82323000D01*
X152042000Y-82318000D01*
X152039000Y-82312000D01*
X152036000Y-82306000D01*
X152033000Y-82300000D01*
X152031000Y-82294000D01*
X152029000Y-82287000D01*
X152028000Y-82281000D01*
X152027000Y-82275000D01*
X152026000Y-82268000D01*
X152025000Y-82262000D01*
X152025000Y-82255000D01*
X152025000Y-81815000D01*
X152025000Y-81808000D01*
X152026000Y-81802000D01*
X152027000Y-81795000D01*
X152028000Y-81789000D01*
X152029000Y-81783000D01*
X152031000Y-81776000D01*
X152033000Y-81770000D01*
X152036000Y-81764000D01*
X152039000Y-81758000D01*
X152042000Y-81752000D01*
X152045000Y-81747000D01*
X152049000Y-81742000D01*
X152053000Y-81736000D01*
X152057000Y-81731000D01*
X152062000Y-81727000D01*
X152066000Y-81722000D01*
X152071000Y-81718000D01*
X152077000Y-81714000D01*
X152082000Y-81710000D01*
X152088000Y-81707000D01*
X152093000Y-81704000D01*
X152099000Y-81701000D01*
X152105000Y-81698000D01*
X152111000Y-81696000D01*
X152118000Y-81694000D01*
X152124000Y-81693000D01*
X152130000Y-81692000D01*
X152137000Y-81691000D01*
X152143000Y-81690000D01*
X152150000Y-81690000D01*
X152350000Y-81690000D01*
X152357000Y-81690000D01*
X152363000Y-81691000D01*
G36*
X152363000Y-81691000D02*
G01*
X152370000Y-81692000D01*
X152376000Y-81693000D01*
X152382000Y-81694000D01*
X152389000Y-81696000D01*
X152395000Y-81698000D01*
X152401000Y-81701000D01*
X152407000Y-81704000D01*
X152412000Y-81707000D01*
X152418000Y-81710000D01*
X152423000Y-81714000D01*
X152429000Y-81718000D01*
X152434000Y-81722000D01*
X152438000Y-81727000D01*
X152443000Y-81731000D01*
X152447000Y-81736000D01*
X152451000Y-81742000D01*
X152455000Y-81747000D01*
X152458000Y-81752000D01*
X152461000Y-81758000D01*
X152464000Y-81764000D01*
X152467000Y-81770000D01*
X152469000Y-81776000D01*
X152471000Y-81783000D01*
X152472000Y-81789000D01*
X152473000Y-81795000D01*
X152474000Y-81802000D01*
X152475000Y-81808000D01*
X152475000Y-81815000D01*
X152475000Y-82255000D01*
X152475000Y-82262000D01*
X152474000Y-82268000D01*
X152473000Y-82275000D01*
X152472000Y-82281000D01*
X152471000Y-82287000D01*
X152469000Y-82294000D01*
X152467000Y-82300000D01*
X152464000Y-82306000D01*
X152461000Y-82312000D01*
X152458000Y-82318000D01*
X152455000Y-82323000D01*
X152451000Y-82328000D01*
X152447000Y-82334000D01*
X152443000Y-82339000D01*
X152438000Y-82343000D01*
X152434000Y-82348000D01*
X152429000Y-82352000D01*
X152423000Y-82356000D01*
X152418000Y-82360000D01*
X152412000Y-82363000D01*
X152407000Y-82366000D01*
X152401000Y-82369000D01*
X152395000Y-82372000D01*
X152389000Y-82374000D01*
X152382000Y-82376000D01*
X152376000Y-82377000D01*
X152370000Y-82378000D01*
X152363000Y-82379000D01*
X152357000Y-82380000D01*
X152350000Y-82380000D01*
X152150000Y-82380000D01*
X152143000Y-82380000D01*
X152137000Y-82379000D01*
X152130000Y-82378000D01*
X152124000Y-82377000D01*
X152118000Y-82376000D01*
X152111000Y-82374000D01*
X152105000Y-82372000D01*
X152099000Y-82369000D01*
X152093000Y-82366000D01*
X152088000Y-82363000D01*
X152082000Y-82360000D01*
X152077000Y-82356000D01*
X152071000Y-82352000D01*
X152066000Y-82348000D01*
X152062000Y-82343000D01*
X152057000Y-82339000D01*
X152053000Y-82334000D01*
X152049000Y-82328000D01*
X152045000Y-82323000D01*
X152042000Y-82318000D01*
X152039000Y-82312000D01*
X152036000Y-82306000D01*
X152033000Y-82300000D01*
X152031000Y-82294000D01*
X152029000Y-82287000D01*
X152028000Y-82281000D01*
X152027000Y-82275000D01*
X152026000Y-82268000D01*
X152025000Y-82262000D01*
X152025000Y-82255000D01*
X152025000Y-81815000D01*
X152025000Y-81808000D01*
X152026000Y-81802000D01*
X152027000Y-81795000D01*
X152028000Y-81789000D01*
X152029000Y-81783000D01*
X152031000Y-81776000D01*
X152033000Y-81770000D01*
X152036000Y-81764000D01*
X152039000Y-81758000D01*
X152042000Y-81752000D01*
X152045000Y-81747000D01*
X152049000Y-81742000D01*
X152053000Y-81736000D01*
X152057000Y-81731000D01*
X152062000Y-81727000D01*
X152066000Y-81722000D01*
X152071000Y-81718000D01*
X152077000Y-81714000D01*
X152082000Y-81710000D01*
X152088000Y-81707000D01*
X152093000Y-81704000D01*
X152099000Y-81701000D01*
X152105000Y-81698000D01*
X152111000Y-81696000D01*
X152118000Y-81694000D01*
X152124000Y-81693000D01*
X152130000Y-81692000D01*
X152137000Y-81691000D01*
X152143000Y-81690000D01*
X152150000Y-81690000D01*
X152350000Y-81690000D01*
X152357000Y-81690000D01*
X152363000Y-81691000D01*
G37*
X152363000Y-84021000D02*
X152370000Y-84022000D01*
X152376000Y-84023000D01*
X152382000Y-84024000D01*
X152389000Y-84026000D01*
X152395000Y-84028000D01*
X152401000Y-84031000D01*
X152407000Y-84034000D01*
X152412000Y-84037000D01*
X152418000Y-84040000D01*
X152423000Y-84044000D01*
X152429000Y-84048000D01*
X152434000Y-84052000D01*
X152438000Y-84057000D01*
X152443000Y-84061000D01*
X152447000Y-84066000D01*
X152451000Y-84072000D01*
X152455000Y-84077000D01*
X152458000Y-84082000D01*
X152461000Y-84088000D01*
X152464000Y-84094000D01*
X152467000Y-84100000D01*
X152469000Y-84106000D01*
X152471000Y-84113000D01*
X152472000Y-84119000D01*
X152473000Y-84125000D01*
X152474000Y-84132000D01*
X152475000Y-84138000D01*
X152475000Y-84145000D01*
X152475000Y-84585000D01*
X152475000Y-84592000D01*
X152474000Y-84598000D01*
X152473000Y-84605000D01*
X152472000Y-84611000D01*
X152471000Y-84617000D01*
X152469000Y-84624000D01*
X152467000Y-84630000D01*
X152464000Y-84636000D01*
X152461000Y-84642000D01*
X152458000Y-84648000D01*
X152455000Y-84653000D01*
X152451000Y-84658000D01*
X152447000Y-84664000D01*
X152443000Y-84669000D01*
X152438000Y-84673000D01*
X152434000Y-84678000D01*
X152429000Y-84682000D01*
X152423000Y-84686000D01*
X152418000Y-84690000D01*
X152412000Y-84693000D01*
X152407000Y-84696000D01*
X152401000Y-84699000D01*
X152395000Y-84702000D01*
X152389000Y-84704000D01*
X152382000Y-84706000D01*
X152376000Y-84707000D01*
X152370000Y-84708000D01*
X152363000Y-84709000D01*
X152357000Y-84710000D01*
X152350000Y-84710000D01*
X152150000Y-84710000D01*
X152143000Y-84710000D01*
X152137000Y-84709000D01*
X152130000Y-84708000D01*
X152124000Y-84707000D01*
X152118000Y-84706000D01*
X152111000Y-84704000D01*
X152105000Y-84702000D01*
X152099000Y-84699000D01*
X152093000Y-84696000D01*
X152088000Y-84693000D01*
X152082000Y-84690000D01*
X152077000Y-84686000D01*
X152071000Y-84682000D01*
X152066000Y-84678000D01*
X152062000Y-84673000D01*
X152057000Y-84669000D01*
X152053000Y-84664000D01*
X152049000Y-84658000D01*
X152045000Y-84653000D01*
X152042000Y-84648000D01*
X152039000Y-84642000D01*
X152036000Y-84636000D01*
X152033000Y-84630000D01*
X152031000Y-84624000D01*
X152029000Y-84617000D01*
X152028000Y-84611000D01*
X152027000Y-84605000D01*
X152026000Y-84598000D01*
X152025000Y-84592000D01*
X152025000Y-84585000D01*
X152025000Y-84145000D01*
X152025000Y-84138000D01*
X152026000Y-84132000D01*
X152027000Y-84125000D01*
X152028000Y-84119000D01*
X152029000Y-84113000D01*
X152031000Y-84106000D01*
X152033000Y-84100000D01*
X152036000Y-84094000D01*
X152039000Y-84088000D01*
X152042000Y-84082000D01*
X152045000Y-84077000D01*
X152049000Y-84072000D01*
X152053000Y-84066000D01*
X152057000Y-84061000D01*
X152062000Y-84057000D01*
X152066000Y-84052000D01*
X152071000Y-84048000D01*
X152077000Y-84044000D01*
X152082000Y-84040000D01*
X152088000Y-84037000D01*
X152093000Y-84034000D01*
X152099000Y-84031000D01*
X152105000Y-84028000D01*
X152111000Y-84026000D01*
X152118000Y-84024000D01*
X152124000Y-84023000D01*
X152130000Y-84022000D01*
X152137000Y-84021000D01*
X152143000Y-84020000D01*
X152150000Y-84020000D01*
X152350000Y-84020000D01*
X152357000Y-84020000D01*
X152363000Y-84021000D01*
G36*
X152363000Y-84021000D02*
G01*
X152370000Y-84022000D01*
X152376000Y-84023000D01*
X152382000Y-84024000D01*
X152389000Y-84026000D01*
X152395000Y-84028000D01*
X152401000Y-84031000D01*
X152407000Y-84034000D01*
X152412000Y-84037000D01*
X152418000Y-84040000D01*
X152423000Y-84044000D01*
X152429000Y-84048000D01*
X152434000Y-84052000D01*
X152438000Y-84057000D01*
X152443000Y-84061000D01*
X152447000Y-84066000D01*
X152451000Y-84072000D01*
X152455000Y-84077000D01*
X152458000Y-84082000D01*
X152461000Y-84088000D01*
X152464000Y-84094000D01*
X152467000Y-84100000D01*
X152469000Y-84106000D01*
X152471000Y-84113000D01*
X152472000Y-84119000D01*
X152473000Y-84125000D01*
X152474000Y-84132000D01*
X152475000Y-84138000D01*
X152475000Y-84145000D01*
X152475000Y-84585000D01*
X152475000Y-84592000D01*
X152474000Y-84598000D01*
X152473000Y-84605000D01*
X152472000Y-84611000D01*
X152471000Y-84617000D01*
X152469000Y-84624000D01*
X152467000Y-84630000D01*
X152464000Y-84636000D01*
X152461000Y-84642000D01*
X152458000Y-84648000D01*
X152455000Y-84653000D01*
X152451000Y-84658000D01*
X152447000Y-84664000D01*
X152443000Y-84669000D01*
X152438000Y-84673000D01*
X152434000Y-84678000D01*
X152429000Y-84682000D01*
X152423000Y-84686000D01*
X152418000Y-84690000D01*
X152412000Y-84693000D01*
X152407000Y-84696000D01*
X152401000Y-84699000D01*
X152395000Y-84702000D01*
X152389000Y-84704000D01*
X152382000Y-84706000D01*
X152376000Y-84707000D01*
X152370000Y-84708000D01*
X152363000Y-84709000D01*
X152357000Y-84710000D01*
X152350000Y-84710000D01*
X152150000Y-84710000D01*
X152143000Y-84710000D01*
X152137000Y-84709000D01*
X152130000Y-84708000D01*
X152124000Y-84707000D01*
X152118000Y-84706000D01*
X152111000Y-84704000D01*
X152105000Y-84702000D01*
X152099000Y-84699000D01*
X152093000Y-84696000D01*
X152088000Y-84693000D01*
X152082000Y-84690000D01*
X152077000Y-84686000D01*
X152071000Y-84682000D01*
X152066000Y-84678000D01*
X152062000Y-84673000D01*
X152057000Y-84669000D01*
X152053000Y-84664000D01*
X152049000Y-84658000D01*
X152045000Y-84653000D01*
X152042000Y-84648000D01*
X152039000Y-84642000D01*
X152036000Y-84636000D01*
X152033000Y-84630000D01*
X152031000Y-84624000D01*
X152029000Y-84617000D01*
X152028000Y-84611000D01*
X152027000Y-84605000D01*
X152026000Y-84598000D01*
X152025000Y-84592000D01*
X152025000Y-84585000D01*
X152025000Y-84145000D01*
X152025000Y-84138000D01*
X152026000Y-84132000D01*
X152027000Y-84125000D01*
X152028000Y-84119000D01*
X152029000Y-84113000D01*
X152031000Y-84106000D01*
X152033000Y-84100000D01*
X152036000Y-84094000D01*
X152039000Y-84088000D01*
X152042000Y-84082000D01*
X152045000Y-84077000D01*
X152049000Y-84072000D01*
X152053000Y-84066000D01*
X152057000Y-84061000D01*
X152062000Y-84057000D01*
X152066000Y-84052000D01*
X152071000Y-84048000D01*
X152077000Y-84044000D01*
X152082000Y-84040000D01*
X152088000Y-84037000D01*
X152093000Y-84034000D01*
X152099000Y-84031000D01*
X152105000Y-84028000D01*
X152111000Y-84026000D01*
X152118000Y-84024000D01*
X152124000Y-84023000D01*
X152130000Y-84022000D01*
X152137000Y-84021000D01*
X152143000Y-84020000D01*
X152150000Y-84020000D01*
X152350000Y-84020000D01*
X152357000Y-84020000D01*
X152363000Y-84021000D01*
G37*
X153148000Y-82476000D02*
X153155000Y-82477000D01*
X153161000Y-82478000D01*
X153167000Y-82479000D01*
X153174000Y-82481000D01*
X153180000Y-82483000D01*
X153186000Y-82486000D01*
X153192000Y-82489000D01*
X153198000Y-82492000D01*
X153203000Y-82495000D01*
X153208000Y-82499000D01*
X153214000Y-82503000D01*
X153219000Y-82507000D01*
X153223000Y-82512000D01*
X153228000Y-82516000D01*
X153232000Y-82521000D01*
X153236000Y-82527000D01*
X153240000Y-82532000D01*
X153243000Y-82538000D01*
X153246000Y-82543000D01*
X153249000Y-82549000D01*
X153252000Y-82555000D01*
X153254000Y-82561000D01*
X153256000Y-82568000D01*
X153257000Y-82574000D01*
X153258000Y-82580000D01*
X153259000Y-82587000D01*
X153260000Y-82593000D01*
X153260000Y-82600000D01*
X153260000Y-82800000D01*
X153260000Y-82807000D01*
X153259000Y-82813000D01*
X153258000Y-82820000D01*
X153257000Y-82826000D01*
X153256000Y-82832000D01*
X153254000Y-82839000D01*
X153252000Y-82845000D01*
X153249000Y-82851000D01*
X153246000Y-82857000D01*
X153243000Y-82863000D01*
X153240000Y-82868000D01*
X153236000Y-82873000D01*
X153232000Y-82879000D01*
X153228000Y-82884000D01*
X153223000Y-82888000D01*
X153219000Y-82893000D01*
X153214000Y-82897000D01*
X153208000Y-82901000D01*
X153203000Y-82905000D01*
X153198000Y-82908000D01*
X153192000Y-82911000D01*
X153186000Y-82914000D01*
X153180000Y-82917000D01*
X153174000Y-82919000D01*
X153167000Y-82921000D01*
X153161000Y-82922000D01*
X153155000Y-82923000D01*
X153148000Y-82924000D01*
X153142000Y-82925000D01*
X153135000Y-82925000D01*
X152695000Y-82925000D01*
X152688000Y-82925000D01*
X152682000Y-82924000D01*
X152675000Y-82923000D01*
X152669000Y-82922000D01*
X152663000Y-82921000D01*
X152656000Y-82919000D01*
X152650000Y-82917000D01*
X152644000Y-82914000D01*
X152638000Y-82911000D01*
X152632000Y-82908000D01*
X152627000Y-82905000D01*
X152622000Y-82901000D01*
X152616000Y-82897000D01*
X152611000Y-82893000D01*
X152607000Y-82888000D01*
X152602000Y-82884000D01*
X152598000Y-82879000D01*
X152594000Y-82873000D01*
X152590000Y-82868000D01*
X152587000Y-82862000D01*
X152584000Y-82857000D01*
X152581000Y-82851000D01*
X152578000Y-82845000D01*
X152576000Y-82839000D01*
X152574000Y-82832000D01*
X152573000Y-82826000D01*
X152572000Y-82820000D01*
X152571000Y-82813000D01*
X152570000Y-82807000D01*
X152570000Y-82800000D01*
X152570000Y-82600000D01*
X152570000Y-82593000D01*
X152571000Y-82587000D01*
X152572000Y-82580000D01*
X152573000Y-82574000D01*
X152574000Y-82568000D01*
X152576000Y-82561000D01*
X152578000Y-82555000D01*
X152581000Y-82549000D01*
X152584000Y-82543000D01*
X152587000Y-82538000D01*
X152590000Y-82532000D01*
X152594000Y-82527000D01*
X152598000Y-82521000D01*
X152602000Y-82516000D01*
X152607000Y-82512000D01*
X152611000Y-82507000D01*
X152616000Y-82503000D01*
X152622000Y-82499000D01*
X152627000Y-82495000D01*
X152632000Y-82492000D01*
X152638000Y-82489000D01*
X152644000Y-82486000D01*
X152650000Y-82483000D01*
X152656000Y-82481000D01*
X152663000Y-82479000D01*
X152669000Y-82478000D01*
X152675000Y-82477000D01*
X152682000Y-82476000D01*
X152688000Y-82475000D01*
X152695000Y-82475000D01*
X153135000Y-82475000D01*
X153142000Y-82475000D01*
X153148000Y-82476000D01*
G36*
X153148000Y-82476000D02*
G01*
X153155000Y-82477000D01*
X153161000Y-82478000D01*
X153167000Y-82479000D01*
X153174000Y-82481000D01*
X153180000Y-82483000D01*
X153186000Y-82486000D01*
X153192000Y-82489000D01*
X153198000Y-82492000D01*
X153203000Y-82495000D01*
X153208000Y-82499000D01*
X153214000Y-82503000D01*
X153219000Y-82507000D01*
X153223000Y-82512000D01*
X153228000Y-82516000D01*
X153232000Y-82521000D01*
X153236000Y-82527000D01*
X153240000Y-82532000D01*
X153243000Y-82538000D01*
X153246000Y-82543000D01*
X153249000Y-82549000D01*
X153252000Y-82555000D01*
X153254000Y-82561000D01*
X153256000Y-82568000D01*
X153257000Y-82574000D01*
X153258000Y-82580000D01*
X153259000Y-82587000D01*
X153260000Y-82593000D01*
X153260000Y-82600000D01*
X153260000Y-82800000D01*
X153260000Y-82807000D01*
X153259000Y-82813000D01*
X153258000Y-82820000D01*
X153257000Y-82826000D01*
X153256000Y-82832000D01*
X153254000Y-82839000D01*
X153252000Y-82845000D01*
X153249000Y-82851000D01*
X153246000Y-82857000D01*
X153243000Y-82863000D01*
X153240000Y-82868000D01*
X153236000Y-82873000D01*
X153232000Y-82879000D01*
X153228000Y-82884000D01*
X153223000Y-82888000D01*
X153219000Y-82893000D01*
X153214000Y-82897000D01*
X153208000Y-82901000D01*
X153203000Y-82905000D01*
X153198000Y-82908000D01*
X153192000Y-82911000D01*
X153186000Y-82914000D01*
X153180000Y-82917000D01*
X153174000Y-82919000D01*
X153167000Y-82921000D01*
X153161000Y-82922000D01*
X153155000Y-82923000D01*
X153148000Y-82924000D01*
X153142000Y-82925000D01*
X153135000Y-82925000D01*
X152695000Y-82925000D01*
X152688000Y-82925000D01*
X152682000Y-82924000D01*
X152675000Y-82923000D01*
X152669000Y-82922000D01*
X152663000Y-82921000D01*
X152656000Y-82919000D01*
X152650000Y-82917000D01*
X152644000Y-82914000D01*
X152638000Y-82911000D01*
X152632000Y-82908000D01*
X152627000Y-82905000D01*
X152622000Y-82901000D01*
X152616000Y-82897000D01*
X152611000Y-82893000D01*
X152607000Y-82888000D01*
X152602000Y-82884000D01*
X152598000Y-82879000D01*
X152594000Y-82873000D01*
X152590000Y-82868000D01*
X152587000Y-82862000D01*
X152584000Y-82857000D01*
X152581000Y-82851000D01*
X152578000Y-82845000D01*
X152576000Y-82839000D01*
X152574000Y-82832000D01*
X152573000Y-82826000D01*
X152572000Y-82820000D01*
X152571000Y-82813000D01*
X152570000Y-82807000D01*
X152570000Y-82800000D01*
X152570000Y-82600000D01*
X152570000Y-82593000D01*
X152571000Y-82587000D01*
X152572000Y-82580000D01*
X152573000Y-82574000D01*
X152574000Y-82568000D01*
X152576000Y-82561000D01*
X152578000Y-82555000D01*
X152581000Y-82549000D01*
X152584000Y-82543000D01*
X152587000Y-82538000D01*
X152590000Y-82532000D01*
X152594000Y-82527000D01*
X152598000Y-82521000D01*
X152602000Y-82516000D01*
X152607000Y-82512000D01*
X152611000Y-82507000D01*
X152616000Y-82503000D01*
X152622000Y-82499000D01*
X152627000Y-82495000D01*
X152632000Y-82492000D01*
X152638000Y-82489000D01*
X152644000Y-82486000D01*
X152650000Y-82483000D01*
X152656000Y-82481000D01*
X152663000Y-82479000D01*
X152669000Y-82478000D01*
X152675000Y-82477000D01*
X152682000Y-82476000D01*
X152688000Y-82475000D01*
X152695000Y-82475000D01*
X153135000Y-82475000D01*
X153142000Y-82475000D01*
X153148000Y-82476000D01*
G37*
X153148000Y-82976000D02*
X153155000Y-82977000D01*
X153161000Y-82978000D01*
X153167000Y-82979000D01*
X153174000Y-82981000D01*
X153180000Y-82983000D01*
X153186000Y-82986000D01*
X153192000Y-82989000D01*
X153198000Y-82992000D01*
X153203000Y-82995000D01*
X153208000Y-82999000D01*
X153214000Y-83003000D01*
X153219000Y-83007000D01*
X153223000Y-83012000D01*
X153228000Y-83016000D01*
X153232000Y-83021000D01*
X153236000Y-83027000D01*
X153240000Y-83032000D01*
X153243000Y-83037000D01*
X153246000Y-83043000D01*
X153249000Y-83049000D01*
X153252000Y-83055000D01*
X153254000Y-83061000D01*
X153256000Y-83068000D01*
X153257000Y-83074000D01*
X153258000Y-83080000D01*
X153259000Y-83087000D01*
X153260000Y-83093000D01*
X153260000Y-83100000D01*
X153260000Y-83300000D01*
X153260000Y-83307000D01*
X153259000Y-83313000D01*
X153258000Y-83320000D01*
X153257000Y-83326000D01*
X153256000Y-83332000D01*
X153254000Y-83339000D01*
X153252000Y-83345000D01*
X153249000Y-83351000D01*
X153246000Y-83357000D01*
X153243000Y-83363000D01*
X153240000Y-83368000D01*
X153236000Y-83373000D01*
X153232000Y-83379000D01*
X153228000Y-83384000D01*
X153223000Y-83388000D01*
X153219000Y-83393000D01*
X153214000Y-83397000D01*
X153208000Y-83401000D01*
X153203000Y-83405000D01*
X153198000Y-83408000D01*
X153192000Y-83411000D01*
X153186000Y-83414000D01*
X153180000Y-83417000D01*
X153174000Y-83419000D01*
X153167000Y-83421000D01*
X153161000Y-83422000D01*
X153155000Y-83423000D01*
X153148000Y-83424000D01*
X153142000Y-83425000D01*
X153135000Y-83425000D01*
X152695000Y-83425000D01*
X152688000Y-83425000D01*
X152682000Y-83424000D01*
X152675000Y-83423000D01*
X152669000Y-83422000D01*
X152663000Y-83421000D01*
X152656000Y-83419000D01*
X152650000Y-83417000D01*
X152644000Y-83414000D01*
X152638000Y-83411000D01*
X152632000Y-83408000D01*
X152627000Y-83405000D01*
X152622000Y-83401000D01*
X152616000Y-83397000D01*
X152611000Y-83393000D01*
X152607000Y-83388000D01*
X152602000Y-83384000D01*
X152598000Y-83379000D01*
X152594000Y-83373000D01*
X152590000Y-83368000D01*
X152587000Y-83362000D01*
X152584000Y-83357000D01*
X152581000Y-83351000D01*
X152578000Y-83345000D01*
X152576000Y-83339000D01*
X152574000Y-83332000D01*
X152573000Y-83326000D01*
X152572000Y-83320000D01*
X152571000Y-83313000D01*
X152570000Y-83307000D01*
X152570000Y-83300000D01*
X152570000Y-83100000D01*
X152570000Y-83093000D01*
X152571000Y-83087000D01*
X152572000Y-83080000D01*
X152573000Y-83074000D01*
X152574000Y-83068000D01*
X152576000Y-83061000D01*
X152578000Y-83055000D01*
X152581000Y-83049000D01*
X152584000Y-83043000D01*
X152587000Y-83037000D01*
X152590000Y-83032000D01*
X152594000Y-83027000D01*
X152598000Y-83021000D01*
X152602000Y-83016000D01*
X152607000Y-83012000D01*
X152611000Y-83007000D01*
X152616000Y-83003000D01*
X152622000Y-82999000D01*
X152627000Y-82995000D01*
X152632000Y-82992000D01*
X152638000Y-82989000D01*
X152644000Y-82986000D01*
X152650000Y-82983000D01*
X152656000Y-82981000D01*
X152663000Y-82979000D01*
X152669000Y-82978000D01*
X152675000Y-82977000D01*
X152682000Y-82976000D01*
X152688000Y-82975000D01*
X152695000Y-82975000D01*
X153135000Y-82975000D01*
X153142000Y-82975000D01*
X153148000Y-82976000D01*
G36*
X153148000Y-82976000D02*
G01*
X153155000Y-82977000D01*
X153161000Y-82978000D01*
X153167000Y-82979000D01*
X153174000Y-82981000D01*
X153180000Y-82983000D01*
X153186000Y-82986000D01*
X153192000Y-82989000D01*
X153198000Y-82992000D01*
X153203000Y-82995000D01*
X153208000Y-82999000D01*
X153214000Y-83003000D01*
X153219000Y-83007000D01*
X153223000Y-83012000D01*
X153228000Y-83016000D01*
X153232000Y-83021000D01*
X153236000Y-83027000D01*
X153240000Y-83032000D01*
X153243000Y-83037000D01*
X153246000Y-83043000D01*
X153249000Y-83049000D01*
X153252000Y-83055000D01*
X153254000Y-83061000D01*
X153256000Y-83068000D01*
X153257000Y-83074000D01*
X153258000Y-83080000D01*
X153259000Y-83087000D01*
X153260000Y-83093000D01*
X153260000Y-83100000D01*
X153260000Y-83300000D01*
X153260000Y-83307000D01*
X153259000Y-83313000D01*
X153258000Y-83320000D01*
X153257000Y-83326000D01*
X153256000Y-83332000D01*
X153254000Y-83339000D01*
X153252000Y-83345000D01*
X153249000Y-83351000D01*
X153246000Y-83357000D01*
X153243000Y-83363000D01*
X153240000Y-83368000D01*
X153236000Y-83373000D01*
X153232000Y-83379000D01*
X153228000Y-83384000D01*
X153223000Y-83388000D01*
X153219000Y-83393000D01*
X153214000Y-83397000D01*
X153208000Y-83401000D01*
X153203000Y-83405000D01*
X153198000Y-83408000D01*
X153192000Y-83411000D01*
X153186000Y-83414000D01*
X153180000Y-83417000D01*
X153174000Y-83419000D01*
X153167000Y-83421000D01*
X153161000Y-83422000D01*
X153155000Y-83423000D01*
X153148000Y-83424000D01*
X153142000Y-83425000D01*
X153135000Y-83425000D01*
X152695000Y-83425000D01*
X152688000Y-83425000D01*
X152682000Y-83424000D01*
X152675000Y-83423000D01*
X152669000Y-83422000D01*
X152663000Y-83421000D01*
X152656000Y-83419000D01*
X152650000Y-83417000D01*
X152644000Y-83414000D01*
X152638000Y-83411000D01*
X152632000Y-83408000D01*
X152627000Y-83405000D01*
X152622000Y-83401000D01*
X152616000Y-83397000D01*
X152611000Y-83393000D01*
X152607000Y-83388000D01*
X152602000Y-83384000D01*
X152598000Y-83379000D01*
X152594000Y-83373000D01*
X152590000Y-83368000D01*
X152587000Y-83362000D01*
X152584000Y-83357000D01*
X152581000Y-83351000D01*
X152578000Y-83345000D01*
X152576000Y-83339000D01*
X152574000Y-83332000D01*
X152573000Y-83326000D01*
X152572000Y-83320000D01*
X152571000Y-83313000D01*
X152570000Y-83307000D01*
X152570000Y-83300000D01*
X152570000Y-83100000D01*
X152570000Y-83093000D01*
X152571000Y-83087000D01*
X152572000Y-83080000D01*
X152573000Y-83074000D01*
X152574000Y-83068000D01*
X152576000Y-83061000D01*
X152578000Y-83055000D01*
X152581000Y-83049000D01*
X152584000Y-83043000D01*
X152587000Y-83037000D01*
X152590000Y-83032000D01*
X152594000Y-83027000D01*
X152598000Y-83021000D01*
X152602000Y-83016000D01*
X152607000Y-83012000D01*
X152611000Y-83007000D01*
X152616000Y-83003000D01*
X152622000Y-82999000D01*
X152627000Y-82995000D01*
X152632000Y-82992000D01*
X152638000Y-82989000D01*
X152644000Y-82986000D01*
X152650000Y-82983000D01*
X152656000Y-82981000D01*
X152663000Y-82979000D01*
X152669000Y-82978000D01*
X152675000Y-82977000D01*
X152682000Y-82976000D01*
X152688000Y-82975000D01*
X152695000Y-82975000D01*
X153135000Y-82975000D01*
X153142000Y-82975000D01*
X153148000Y-82976000D01*
G37*
X153148000Y-83476000D02*
X153155000Y-83477000D01*
X153161000Y-83478000D01*
X153167000Y-83479000D01*
X153174000Y-83481000D01*
X153180000Y-83483000D01*
X153186000Y-83486000D01*
X153192000Y-83489000D01*
X153198000Y-83492000D01*
X153203000Y-83495000D01*
X153208000Y-83499000D01*
X153214000Y-83503000D01*
X153219000Y-83507000D01*
X153223000Y-83512000D01*
X153228000Y-83516000D01*
X153232000Y-83521000D01*
X153236000Y-83527000D01*
X153240000Y-83532000D01*
X153243000Y-83538000D01*
X153246000Y-83543000D01*
X153249000Y-83549000D01*
X153252000Y-83555000D01*
X153254000Y-83561000D01*
X153256000Y-83568000D01*
X153257000Y-83574000D01*
X153258000Y-83580000D01*
X153259000Y-83587000D01*
X153260000Y-83593000D01*
X153260000Y-83600000D01*
X153260000Y-83800000D01*
X153260000Y-83807000D01*
X153259000Y-83813000D01*
X153258000Y-83820000D01*
X153257000Y-83826000D01*
X153256000Y-83832000D01*
X153254000Y-83839000D01*
X153252000Y-83845000D01*
X153249000Y-83851000D01*
X153246000Y-83857000D01*
X153243000Y-83863000D01*
X153240000Y-83868000D01*
X153236000Y-83873000D01*
X153232000Y-83879000D01*
X153228000Y-83884000D01*
X153223000Y-83888000D01*
X153219000Y-83893000D01*
X153214000Y-83897000D01*
X153208000Y-83901000D01*
X153203000Y-83905000D01*
X153198000Y-83908000D01*
X153192000Y-83911000D01*
X153186000Y-83914000D01*
X153180000Y-83917000D01*
X153174000Y-83919000D01*
X153167000Y-83921000D01*
X153161000Y-83922000D01*
X153155000Y-83923000D01*
X153148000Y-83924000D01*
X153142000Y-83925000D01*
X153135000Y-83925000D01*
X152695000Y-83925000D01*
X152688000Y-83925000D01*
X152682000Y-83924000D01*
X152675000Y-83923000D01*
X152669000Y-83922000D01*
X152663000Y-83921000D01*
X152656000Y-83919000D01*
X152650000Y-83917000D01*
X152644000Y-83914000D01*
X152638000Y-83911000D01*
X152632000Y-83908000D01*
X152627000Y-83905000D01*
X152622000Y-83901000D01*
X152616000Y-83897000D01*
X152611000Y-83893000D01*
X152607000Y-83888000D01*
X152602000Y-83884000D01*
X152598000Y-83879000D01*
X152594000Y-83873000D01*
X152590000Y-83868000D01*
X152587000Y-83862000D01*
X152584000Y-83857000D01*
X152581000Y-83851000D01*
X152578000Y-83845000D01*
X152576000Y-83839000D01*
X152574000Y-83832000D01*
X152573000Y-83826000D01*
X152572000Y-83820000D01*
X152571000Y-83813000D01*
X152570000Y-83807000D01*
X152570000Y-83800000D01*
X152570000Y-83600000D01*
X152570000Y-83593000D01*
X152571000Y-83587000D01*
X152572000Y-83580000D01*
X152573000Y-83574000D01*
X152574000Y-83568000D01*
X152576000Y-83561000D01*
X152578000Y-83555000D01*
X152581000Y-83549000D01*
X152584000Y-83543000D01*
X152587000Y-83538000D01*
X152590000Y-83532000D01*
X152594000Y-83527000D01*
X152598000Y-83521000D01*
X152602000Y-83516000D01*
X152607000Y-83512000D01*
X152611000Y-83507000D01*
X152616000Y-83503000D01*
X152622000Y-83499000D01*
X152627000Y-83495000D01*
X152632000Y-83492000D01*
X152638000Y-83489000D01*
X152644000Y-83486000D01*
X152650000Y-83483000D01*
X152656000Y-83481000D01*
X152663000Y-83479000D01*
X152669000Y-83478000D01*
X152675000Y-83477000D01*
X152682000Y-83476000D01*
X152688000Y-83475000D01*
X152695000Y-83475000D01*
X153135000Y-83475000D01*
X153142000Y-83475000D01*
X153148000Y-83476000D01*
G36*
X153148000Y-83476000D02*
G01*
X153155000Y-83477000D01*
X153161000Y-83478000D01*
X153167000Y-83479000D01*
X153174000Y-83481000D01*
X153180000Y-83483000D01*
X153186000Y-83486000D01*
X153192000Y-83489000D01*
X153198000Y-83492000D01*
X153203000Y-83495000D01*
X153208000Y-83499000D01*
X153214000Y-83503000D01*
X153219000Y-83507000D01*
X153223000Y-83512000D01*
X153228000Y-83516000D01*
X153232000Y-83521000D01*
X153236000Y-83527000D01*
X153240000Y-83532000D01*
X153243000Y-83538000D01*
X153246000Y-83543000D01*
X153249000Y-83549000D01*
X153252000Y-83555000D01*
X153254000Y-83561000D01*
X153256000Y-83568000D01*
X153257000Y-83574000D01*
X153258000Y-83580000D01*
X153259000Y-83587000D01*
X153260000Y-83593000D01*
X153260000Y-83600000D01*
X153260000Y-83800000D01*
X153260000Y-83807000D01*
X153259000Y-83813000D01*
X153258000Y-83820000D01*
X153257000Y-83826000D01*
X153256000Y-83832000D01*
X153254000Y-83839000D01*
X153252000Y-83845000D01*
X153249000Y-83851000D01*
X153246000Y-83857000D01*
X153243000Y-83863000D01*
X153240000Y-83868000D01*
X153236000Y-83873000D01*
X153232000Y-83879000D01*
X153228000Y-83884000D01*
X153223000Y-83888000D01*
X153219000Y-83893000D01*
X153214000Y-83897000D01*
X153208000Y-83901000D01*
X153203000Y-83905000D01*
X153198000Y-83908000D01*
X153192000Y-83911000D01*
X153186000Y-83914000D01*
X153180000Y-83917000D01*
X153174000Y-83919000D01*
X153167000Y-83921000D01*
X153161000Y-83922000D01*
X153155000Y-83923000D01*
X153148000Y-83924000D01*
X153142000Y-83925000D01*
X153135000Y-83925000D01*
X152695000Y-83925000D01*
X152688000Y-83925000D01*
X152682000Y-83924000D01*
X152675000Y-83923000D01*
X152669000Y-83922000D01*
X152663000Y-83921000D01*
X152656000Y-83919000D01*
X152650000Y-83917000D01*
X152644000Y-83914000D01*
X152638000Y-83911000D01*
X152632000Y-83908000D01*
X152627000Y-83905000D01*
X152622000Y-83901000D01*
X152616000Y-83897000D01*
X152611000Y-83893000D01*
X152607000Y-83888000D01*
X152602000Y-83884000D01*
X152598000Y-83879000D01*
X152594000Y-83873000D01*
X152590000Y-83868000D01*
X152587000Y-83862000D01*
X152584000Y-83857000D01*
X152581000Y-83851000D01*
X152578000Y-83845000D01*
X152576000Y-83839000D01*
X152574000Y-83832000D01*
X152573000Y-83826000D01*
X152572000Y-83820000D01*
X152571000Y-83813000D01*
X152570000Y-83807000D01*
X152570000Y-83800000D01*
X152570000Y-83600000D01*
X152570000Y-83593000D01*
X152571000Y-83587000D01*
X152572000Y-83580000D01*
X152573000Y-83574000D01*
X152574000Y-83568000D01*
X152576000Y-83561000D01*
X152578000Y-83555000D01*
X152581000Y-83549000D01*
X152584000Y-83543000D01*
X152587000Y-83538000D01*
X152590000Y-83532000D01*
X152594000Y-83527000D01*
X152598000Y-83521000D01*
X152602000Y-83516000D01*
X152607000Y-83512000D01*
X152611000Y-83507000D01*
X152616000Y-83503000D01*
X152622000Y-83499000D01*
X152627000Y-83495000D01*
X152632000Y-83492000D01*
X152638000Y-83489000D01*
X152644000Y-83486000D01*
X152650000Y-83483000D01*
X152656000Y-83481000D01*
X152663000Y-83479000D01*
X152669000Y-83478000D01*
X152675000Y-83477000D01*
X152682000Y-83476000D01*
X152688000Y-83475000D01*
X152695000Y-83475000D01*
X153135000Y-83475000D01*
X153142000Y-83475000D01*
X153148000Y-83476000D01*
G37*
X152863000Y-81691000D02*
X152870000Y-81692000D01*
X152876000Y-81693000D01*
X152882000Y-81694000D01*
X152889000Y-81696000D01*
X152895000Y-81698000D01*
X152901000Y-81701000D01*
X152907000Y-81704000D01*
X152912000Y-81707000D01*
X152918000Y-81710000D01*
X152923000Y-81714000D01*
X152929000Y-81718000D01*
X152934000Y-81722000D01*
X152938000Y-81727000D01*
X152943000Y-81731000D01*
X152947000Y-81736000D01*
X152951000Y-81742000D01*
X152955000Y-81747000D01*
X152958000Y-81752000D01*
X152961000Y-81758000D01*
X152964000Y-81764000D01*
X152967000Y-81770000D01*
X152969000Y-81776000D01*
X152971000Y-81783000D01*
X152972000Y-81789000D01*
X152973000Y-81795000D01*
X152974000Y-81802000D01*
X152975000Y-81808000D01*
X152975000Y-81815000D01*
X152975000Y-82255000D01*
X152975000Y-82262000D01*
X152974000Y-82268000D01*
X152973000Y-82275000D01*
X152972000Y-82281000D01*
X152971000Y-82287000D01*
X152969000Y-82294000D01*
X152967000Y-82300000D01*
X152964000Y-82306000D01*
X152961000Y-82312000D01*
X152958000Y-82318000D01*
X152955000Y-82323000D01*
X152951000Y-82328000D01*
X152947000Y-82334000D01*
X152943000Y-82339000D01*
X152938000Y-82343000D01*
X152934000Y-82348000D01*
X152929000Y-82352000D01*
X152923000Y-82356000D01*
X152918000Y-82360000D01*
X152912000Y-82363000D01*
X152907000Y-82366000D01*
X152901000Y-82369000D01*
X152895000Y-82372000D01*
X152889000Y-82374000D01*
X152882000Y-82376000D01*
X152876000Y-82377000D01*
X152870000Y-82378000D01*
X152863000Y-82379000D01*
X152857000Y-82380000D01*
X152850000Y-82380000D01*
X152650000Y-82380000D01*
X152643000Y-82380000D01*
X152637000Y-82379000D01*
X152630000Y-82378000D01*
X152624000Y-82377000D01*
X152618000Y-82376000D01*
X152611000Y-82374000D01*
X152605000Y-82372000D01*
X152599000Y-82369000D01*
X152593000Y-82366000D01*
X152588000Y-82363000D01*
X152582000Y-82360000D01*
X152577000Y-82356000D01*
X152571000Y-82352000D01*
X152566000Y-82348000D01*
X152562000Y-82343000D01*
X152557000Y-82339000D01*
X152553000Y-82334000D01*
X152549000Y-82328000D01*
X152545000Y-82323000D01*
X152542000Y-82318000D01*
X152539000Y-82312000D01*
X152536000Y-82306000D01*
X152533000Y-82300000D01*
X152531000Y-82294000D01*
X152529000Y-82287000D01*
X152528000Y-82281000D01*
X152527000Y-82275000D01*
X152526000Y-82268000D01*
X152525000Y-82262000D01*
X152525000Y-82255000D01*
X152525000Y-81815000D01*
X152525000Y-81808000D01*
X152526000Y-81802000D01*
X152527000Y-81795000D01*
X152528000Y-81789000D01*
X152529000Y-81783000D01*
X152531000Y-81776000D01*
X152533000Y-81770000D01*
X152536000Y-81764000D01*
X152539000Y-81758000D01*
X152542000Y-81752000D01*
X152545000Y-81747000D01*
X152549000Y-81742000D01*
X152553000Y-81736000D01*
X152557000Y-81731000D01*
X152562000Y-81727000D01*
X152566000Y-81722000D01*
X152571000Y-81718000D01*
X152577000Y-81714000D01*
X152582000Y-81710000D01*
X152588000Y-81707000D01*
X152593000Y-81704000D01*
X152599000Y-81701000D01*
X152605000Y-81698000D01*
X152611000Y-81696000D01*
X152618000Y-81694000D01*
X152624000Y-81693000D01*
X152630000Y-81692000D01*
X152637000Y-81691000D01*
X152643000Y-81690000D01*
X152650000Y-81690000D01*
X152850000Y-81690000D01*
X152857000Y-81690000D01*
X152863000Y-81691000D01*
G36*
X152863000Y-81691000D02*
G01*
X152870000Y-81692000D01*
X152876000Y-81693000D01*
X152882000Y-81694000D01*
X152889000Y-81696000D01*
X152895000Y-81698000D01*
X152901000Y-81701000D01*
X152907000Y-81704000D01*
X152912000Y-81707000D01*
X152918000Y-81710000D01*
X152923000Y-81714000D01*
X152929000Y-81718000D01*
X152934000Y-81722000D01*
X152938000Y-81727000D01*
X152943000Y-81731000D01*
X152947000Y-81736000D01*
X152951000Y-81742000D01*
X152955000Y-81747000D01*
X152958000Y-81752000D01*
X152961000Y-81758000D01*
X152964000Y-81764000D01*
X152967000Y-81770000D01*
X152969000Y-81776000D01*
X152971000Y-81783000D01*
X152972000Y-81789000D01*
X152973000Y-81795000D01*
X152974000Y-81802000D01*
X152975000Y-81808000D01*
X152975000Y-81815000D01*
X152975000Y-82255000D01*
X152975000Y-82262000D01*
X152974000Y-82268000D01*
X152973000Y-82275000D01*
X152972000Y-82281000D01*
X152971000Y-82287000D01*
X152969000Y-82294000D01*
X152967000Y-82300000D01*
X152964000Y-82306000D01*
X152961000Y-82312000D01*
X152958000Y-82318000D01*
X152955000Y-82323000D01*
X152951000Y-82328000D01*
X152947000Y-82334000D01*
X152943000Y-82339000D01*
X152938000Y-82343000D01*
X152934000Y-82348000D01*
X152929000Y-82352000D01*
X152923000Y-82356000D01*
X152918000Y-82360000D01*
X152912000Y-82363000D01*
X152907000Y-82366000D01*
X152901000Y-82369000D01*
X152895000Y-82372000D01*
X152889000Y-82374000D01*
X152882000Y-82376000D01*
X152876000Y-82377000D01*
X152870000Y-82378000D01*
X152863000Y-82379000D01*
X152857000Y-82380000D01*
X152850000Y-82380000D01*
X152650000Y-82380000D01*
X152643000Y-82380000D01*
X152637000Y-82379000D01*
X152630000Y-82378000D01*
X152624000Y-82377000D01*
X152618000Y-82376000D01*
X152611000Y-82374000D01*
X152605000Y-82372000D01*
X152599000Y-82369000D01*
X152593000Y-82366000D01*
X152588000Y-82363000D01*
X152582000Y-82360000D01*
X152577000Y-82356000D01*
X152571000Y-82352000D01*
X152566000Y-82348000D01*
X152562000Y-82343000D01*
X152557000Y-82339000D01*
X152553000Y-82334000D01*
X152549000Y-82328000D01*
X152545000Y-82323000D01*
X152542000Y-82318000D01*
X152539000Y-82312000D01*
X152536000Y-82306000D01*
X152533000Y-82300000D01*
X152531000Y-82294000D01*
X152529000Y-82287000D01*
X152528000Y-82281000D01*
X152527000Y-82275000D01*
X152526000Y-82268000D01*
X152525000Y-82262000D01*
X152525000Y-82255000D01*
X152525000Y-81815000D01*
X152525000Y-81808000D01*
X152526000Y-81802000D01*
X152527000Y-81795000D01*
X152528000Y-81789000D01*
X152529000Y-81783000D01*
X152531000Y-81776000D01*
X152533000Y-81770000D01*
X152536000Y-81764000D01*
X152539000Y-81758000D01*
X152542000Y-81752000D01*
X152545000Y-81747000D01*
X152549000Y-81742000D01*
X152553000Y-81736000D01*
X152557000Y-81731000D01*
X152562000Y-81727000D01*
X152566000Y-81722000D01*
X152571000Y-81718000D01*
X152577000Y-81714000D01*
X152582000Y-81710000D01*
X152588000Y-81707000D01*
X152593000Y-81704000D01*
X152599000Y-81701000D01*
X152605000Y-81698000D01*
X152611000Y-81696000D01*
X152618000Y-81694000D01*
X152624000Y-81693000D01*
X152630000Y-81692000D01*
X152637000Y-81691000D01*
X152643000Y-81690000D01*
X152650000Y-81690000D01*
X152850000Y-81690000D01*
X152857000Y-81690000D01*
X152863000Y-81691000D01*
G37*
X152863000Y-84021000D02*
X152870000Y-84022000D01*
X152876000Y-84023000D01*
X152882000Y-84024000D01*
X152889000Y-84026000D01*
X152895000Y-84028000D01*
X152901000Y-84031000D01*
X152907000Y-84034000D01*
X152912000Y-84037000D01*
X152918000Y-84040000D01*
X152923000Y-84044000D01*
X152929000Y-84048000D01*
X152934000Y-84052000D01*
X152938000Y-84057000D01*
X152943000Y-84061000D01*
X152947000Y-84066000D01*
X152951000Y-84072000D01*
X152955000Y-84077000D01*
X152958000Y-84082000D01*
X152961000Y-84088000D01*
X152964000Y-84094000D01*
X152967000Y-84100000D01*
X152969000Y-84106000D01*
X152971000Y-84113000D01*
X152972000Y-84119000D01*
X152973000Y-84125000D01*
X152974000Y-84132000D01*
X152975000Y-84138000D01*
X152975000Y-84145000D01*
X152975000Y-84585000D01*
X152975000Y-84592000D01*
X152974000Y-84598000D01*
X152973000Y-84605000D01*
X152972000Y-84611000D01*
X152971000Y-84617000D01*
X152969000Y-84624000D01*
X152967000Y-84630000D01*
X152964000Y-84636000D01*
X152961000Y-84642000D01*
X152958000Y-84648000D01*
X152955000Y-84653000D01*
X152951000Y-84658000D01*
X152947000Y-84664000D01*
X152943000Y-84669000D01*
X152938000Y-84673000D01*
X152934000Y-84678000D01*
X152929000Y-84682000D01*
X152923000Y-84686000D01*
X152918000Y-84690000D01*
X152912000Y-84693000D01*
X152907000Y-84696000D01*
X152901000Y-84699000D01*
X152895000Y-84702000D01*
X152889000Y-84704000D01*
X152882000Y-84706000D01*
X152876000Y-84707000D01*
X152870000Y-84708000D01*
X152863000Y-84709000D01*
X152857000Y-84710000D01*
X152850000Y-84710000D01*
X152650000Y-84710000D01*
X152643000Y-84710000D01*
X152637000Y-84709000D01*
X152630000Y-84708000D01*
X152624000Y-84707000D01*
X152618000Y-84706000D01*
X152611000Y-84704000D01*
X152605000Y-84702000D01*
X152599000Y-84699000D01*
X152593000Y-84696000D01*
X152588000Y-84693000D01*
X152582000Y-84690000D01*
X152577000Y-84686000D01*
X152571000Y-84682000D01*
X152566000Y-84678000D01*
X152562000Y-84673000D01*
X152557000Y-84669000D01*
X152553000Y-84664000D01*
X152549000Y-84658000D01*
X152545000Y-84653000D01*
X152542000Y-84648000D01*
X152539000Y-84642000D01*
X152536000Y-84636000D01*
X152533000Y-84630000D01*
X152531000Y-84624000D01*
X152529000Y-84617000D01*
X152528000Y-84611000D01*
X152527000Y-84605000D01*
X152526000Y-84598000D01*
X152525000Y-84592000D01*
X152525000Y-84585000D01*
X152525000Y-84145000D01*
X152525000Y-84138000D01*
X152526000Y-84132000D01*
X152527000Y-84125000D01*
X152528000Y-84119000D01*
X152529000Y-84113000D01*
X152531000Y-84106000D01*
X152533000Y-84100000D01*
X152536000Y-84094000D01*
X152539000Y-84088000D01*
X152542000Y-84082000D01*
X152545000Y-84077000D01*
X152549000Y-84072000D01*
X152553000Y-84066000D01*
X152557000Y-84061000D01*
X152562000Y-84057000D01*
X152566000Y-84052000D01*
X152571000Y-84048000D01*
X152577000Y-84044000D01*
X152582000Y-84040000D01*
X152588000Y-84037000D01*
X152593000Y-84034000D01*
X152599000Y-84031000D01*
X152605000Y-84028000D01*
X152611000Y-84026000D01*
X152618000Y-84024000D01*
X152624000Y-84023000D01*
X152630000Y-84022000D01*
X152637000Y-84021000D01*
X152643000Y-84020000D01*
X152650000Y-84020000D01*
X152850000Y-84020000D01*
X152857000Y-84020000D01*
X152863000Y-84021000D01*
G36*
X152863000Y-84021000D02*
G01*
X152870000Y-84022000D01*
X152876000Y-84023000D01*
X152882000Y-84024000D01*
X152889000Y-84026000D01*
X152895000Y-84028000D01*
X152901000Y-84031000D01*
X152907000Y-84034000D01*
X152912000Y-84037000D01*
X152918000Y-84040000D01*
X152923000Y-84044000D01*
X152929000Y-84048000D01*
X152934000Y-84052000D01*
X152938000Y-84057000D01*
X152943000Y-84061000D01*
X152947000Y-84066000D01*
X152951000Y-84072000D01*
X152955000Y-84077000D01*
X152958000Y-84082000D01*
X152961000Y-84088000D01*
X152964000Y-84094000D01*
X152967000Y-84100000D01*
X152969000Y-84106000D01*
X152971000Y-84113000D01*
X152972000Y-84119000D01*
X152973000Y-84125000D01*
X152974000Y-84132000D01*
X152975000Y-84138000D01*
X152975000Y-84145000D01*
X152975000Y-84585000D01*
X152975000Y-84592000D01*
X152974000Y-84598000D01*
X152973000Y-84605000D01*
X152972000Y-84611000D01*
X152971000Y-84617000D01*
X152969000Y-84624000D01*
X152967000Y-84630000D01*
X152964000Y-84636000D01*
X152961000Y-84642000D01*
X152958000Y-84648000D01*
X152955000Y-84653000D01*
X152951000Y-84658000D01*
X152947000Y-84664000D01*
X152943000Y-84669000D01*
X152938000Y-84673000D01*
X152934000Y-84678000D01*
X152929000Y-84682000D01*
X152923000Y-84686000D01*
X152918000Y-84690000D01*
X152912000Y-84693000D01*
X152907000Y-84696000D01*
X152901000Y-84699000D01*
X152895000Y-84702000D01*
X152889000Y-84704000D01*
X152882000Y-84706000D01*
X152876000Y-84707000D01*
X152870000Y-84708000D01*
X152863000Y-84709000D01*
X152857000Y-84710000D01*
X152850000Y-84710000D01*
X152650000Y-84710000D01*
X152643000Y-84710000D01*
X152637000Y-84709000D01*
X152630000Y-84708000D01*
X152624000Y-84707000D01*
X152618000Y-84706000D01*
X152611000Y-84704000D01*
X152605000Y-84702000D01*
X152599000Y-84699000D01*
X152593000Y-84696000D01*
X152588000Y-84693000D01*
X152582000Y-84690000D01*
X152577000Y-84686000D01*
X152571000Y-84682000D01*
X152566000Y-84678000D01*
X152562000Y-84673000D01*
X152557000Y-84669000D01*
X152553000Y-84664000D01*
X152549000Y-84658000D01*
X152545000Y-84653000D01*
X152542000Y-84648000D01*
X152539000Y-84642000D01*
X152536000Y-84636000D01*
X152533000Y-84630000D01*
X152531000Y-84624000D01*
X152529000Y-84617000D01*
X152528000Y-84611000D01*
X152527000Y-84605000D01*
X152526000Y-84598000D01*
X152525000Y-84592000D01*
X152525000Y-84585000D01*
X152525000Y-84145000D01*
X152525000Y-84138000D01*
X152526000Y-84132000D01*
X152527000Y-84125000D01*
X152528000Y-84119000D01*
X152529000Y-84113000D01*
X152531000Y-84106000D01*
X152533000Y-84100000D01*
X152536000Y-84094000D01*
X152539000Y-84088000D01*
X152542000Y-84082000D01*
X152545000Y-84077000D01*
X152549000Y-84072000D01*
X152553000Y-84066000D01*
X152557000Y-84061000D01*
X152562000Y-84057000D01*
X152566000Y-84052000D01*
X152571000Y-84048000D01*
X152577000Y-84044000D01*
X152582000Y-84040000D01*
X152588000Y-84037000D01*
X152593000Y-84034000D01*
X152599000Y-84031000D01*
X152605000Y-84028000D01*
X152611000Y-84026000D01*
X152618000Y-84024000D01*
X152624000Y-84023000D01*
X152630000Y-84022000D01*
X152637000Y-84021000D01*
X152643000Y-84020000D01*
X152650000Y-84020000D01*
X152850000Y-84020000D01*
X152857000Y-84020000D01*
X152863000Y-84021000D01*
G37*
%TD*%
D11*
%TO.C,C2*%
X151225000Y-78200000D03*
X152775000Y-78200000D03*
%TD*%
D12*
%TO.C,R2*%
X159725000Y-77800000D03*
X158075000Y-77800000D03*
%TD*%
D13*
%TO.C,U3*%
X158190000Y-51512500D03*
D14*
X160730000Y-51512500D03*
X163270000Y-51512500D03*
X165810000Y-51512500D03*
D15*
X151000000Y-52012500D03*
X173000000Y-52012500D03*
X173000000Y-74012500D03*
X151000000Y-74012500D03*
%TD*%
D16*
%TO.C,U1*%
X172300000Y-80665000D03*
D17*
X172300000Y-81500000D03*
D16*
X169760000Y-80665000D03*
D17*
X169760000Y-81500000D03*
D16*
X167220000Y-80665000D03*
D17*
X167220000Y-81500000D03*
D16*
X164680000Y-80665000D03*
D17*
X164680000Y-81500000D03*
D16*
X162140000Y-80665000D03*
D17*
X162140000Y-81500000D03*
D16*
X159600000Y-80665000D03*
D17*
X159600000Y-81500000D03*
D16*
X157060000Y-80665000D03*
D17*
X157060000Y-81500000D03*
X157060000Y-96740000D03*
D18*
X157060000Y-97575000D03*
D17*
X159600000Y-96740000D03*
D18*
X159600000Y-97575000D03*
D17*
X162140000Y-96740000D03*
D18*
X162140000Y-97575000D03*
D17*
X164680000Y-96740000D03*
D18*
X164680000Y-97575000D03*
D17*
X167220000Y-96740000D03*
D18*
X167220000Y-97575000D03*
D17*
X169760000Y-96740000D03*
D18*
X169760000Y-97575000D03*
D17*
X172300000Y-96740000D03*
D18*
X172300000Y-97575000D03*
%TD*%
D19*
%TO.C,C1*%
X152775000Y-86300000D03*
X151225000Y-86300000D03*
%TD*%
D12*
%TO.C,R1*%
X163800000Y-77800000D03*
X162150000Y-77800000D03*
%TD*%
D19*
%TO.C,C3*%
X152775000Y-80200000D03*
X151225000Y-80200000D03*
%TD*%
M02*
