%TF.GenerationSoftware,KiCad,Pcbnew,9.0.2*%
%TF.CreationDate,2025-08-22T23:07:11-04:00*%
%TF.ProjectId,Hermes,4865726d-6573-42e6-9b69-6361645f7063,rev?*%
%TF.SameCoordinates,Original*%
%TF.FileFunction,Copper,L1,Top*%
%TF.FilePolarity,Positive*%
%FSLAX46Y46*%
G04 Gerber Fmt 4.6, Leading zero omitted, Abs format (unit mm)*
G04 Created by KiCad (PCBNEW 9.0.2) date 2025-08-22 23:07:11*
%MOMM*%
%LPD*%
G01*
G04 APERTURE LIST*
G04 Aperture macros list*
%AMRoundRect*
0 Rectangle with rounded corners*
0 $1 Rounding radius*
0 $2 $3 $4 $5 $6 $7 $8 $9 X,Y pos of 4 corners*
0 Add a 4 corners polygon primitive as box body*
4,1,4,$2,$3,$4,$5,$6,$7,$8,$9,$2,$3,0*
0 Add four circle primitives for the rounded corners*
1,1,$1+$1,$2,$3*
1,1,$1+$1,$4,$5*
1,1,$1+$1,$6,$7*
1,1,$1+$1,$8,$9*
0 Add four rect primitives between the rounded corners*
20,1,$1+$1,$2,$3,$4,$5,0*
20,1,$1+$1,$4,$5,$6,$7,0*
20,1,$1+$1,$6,$7,$8,$9,0*
20,1,$1+$1,$8,$9,$2,$3,0*%
G04 Aperture macros list end*
%TA.AperFunction,SMDPad,CuDef*%
%ADD10RoundRect,0.225000X-0.225000X-0.250000X0.225000X-0.250000X0.225000X0.250000X-0.225000X0.250000X0*%
%TD*%
%TA.AperFunction,SMDPad,CuDef*%
%ADD11RoundRect,0.087500X0.087500X-0.207500X0.087500X0.207500X-0.087500X0.207500X-0.087500X-0.207500X0*%
%TD*%
%TA.AperFunction,SMDPad,CuDef*%
%ADD12RoundRect,0.087500X0.207500X-0.087500X0.207500X0.087500X-0.207500X0.087500X-0.207500X-0.087500X0*%
%TD*%
%TA.AperFunction,SMDPad,CuDef*%
%ADD13RoundRect,0.200000X-0.200000X-0.275000X0.200000X-0.275000X0.200000X0.275000X-0.200000X0.275000X0*%
%TD*%
%TA.AperFunction,ComponentPad*%
%ADD14R,1.508000X1.508000*%
%TD*%
%TA.AperFunction,ComponentPad*%
%ADD15C,1.508000*%
%TD*%
%TA.AperFunction,ComponentPad*%
%ADD16C,3.000000*%
%TD*%
%TA.AperFunction,SMDPad,CuDef*%
%ADD17RoundRect,0.152400X0.609600X-1.063600X0.609600X1.063600X-0.609600X1.063600X-0.609600X-1.063600X0*%
%TD*%
%TA.AperFunction,ComponentPad*%
%ADD18C,1.524000*%
%TD*%
%TA.AperFunction,SMDPad,CuDef*%
%ADD19RoundRect,0.152400X-0.609600X1.063600X-0.609600X-1.063600X0.609600X-1.063600X0.609600X1.063600X0*%
%TD*%
%TA.AperFunction,SMDPad,CuDef*%
%ADD20RoundRect,0.225000X0.225000X0.250000X-0.225000X0.250000X-0.225000X-0.250000X0.225000X-0.250000X0*%
%TD*%
%TA.AperFunction,SMDPad,CuDef*%
%ADD21RoundRect,0.200000X0.200000X0.275000X-0.200000X0.275000X-0.200000X-0.275000X0.200000X-0.275000X0*%
%TD*%
%TA.AperFunction,ViaPad*%
%ADD22C,0.600000*%
%TD*%
%TA.AperFunction,Conductor*%
%ADD23C,0.200000*%
%TD*%
G04 APERTURE END LIST*
D10*
%TO.P,C2,1*%
%TO.N,GND*%
X151225000Y-78200000D03*
%TO.P,C2,2*%
%TO.N,3.3V*%
X152775000Y-78200000D03*
%TD*%
D11*
%TO.P,U2,1,AP_SDO/AP_AD0*%
%TO.N,3.3V*%
X151250000Y-84365000D03*
%TO.P,U2,2,RESV_2*%
%TO.N,unconnected-(U2-RESV_2-Pad2)*%
X151750000Y-84365000D03*
%TO.P,U2,3,RESV_3*%
%TO.N,unconnected-(U2-RESV_3-Pad3)*%
X152250000Y-84365000D03*
%TO.P,U2,4,INT1/INT*%
%TO.N,ICMINT*%
X152750000Y-84365000D03*
D12*
%TO.P,U2,5,VDDIO*%
%TO.N,3.3V*%
X152915000Y-83700000D03*
%TO.P,U2,6,GND*%
%TO.N,GND*%
X152915000Y-83200000D03*
%TO.P,U2,7,RESV_7*%
X152915000Y-82700000D03*
D11*
%TO.P,U2,8,VDD*%
%TO.N,3.3V*%
X152750000Y-82035000D03*
%TO.P,U2,9,INT2/FSYNC/CLKIN*%
%TO.N,GND*%
X152250000Y-82035000D03*
%TO.P,U2,10,RESV_10*%
%TO.N,unconnected-(U2-RESV_10-Pad10)*%
X151750000Y-82035000D03*
%TO.P,U2,11,RESV_11*%
%TO.N,GND*%
X151250000Y-82035000D03*
D12*
%TO.P,U2,12,AP_CS*%
%TO.N,3.3V*%
X151085000Y-82700000D03*
%TO.P,U2,13,AP_SCL/AP_SCLK*%
%TO.N,SCL*%
X151085000Y-83200000D03*
%TO.P,U2,14,AP_SDA/AP_SDIO/AP_SDI*%
%TO.N,SDA*%
X151085000Y-83700000D03*
%TD*%
D13*
%TO.P,R2,1*%
%TO.N,3.3V*%
X161550000Y-77700000D03*
%TO.P,R2,2*%
%TO.N,SDA*%
X163200000Y-77700000D03*
%TD*%
D14*
%TO.P,U3,1,GND*%
%TO.N,GND*%
X158190000Y-51512500D03*
D15*
%TO.P,U3,2,VCC_IN*%
%TO.N,3.3V*%
X160730000Y-51512500D03*
%TO.P,U3,3,SCL*%
%TO.N,SCL*%
X163270000Y-51512500D03*
%TO.P,U3,4,SDA*%
%TO.N,SDA*%
X165810000Y-51512500D03*
D16*
%TO.P,U3,S1*%
%TO.N,N/C*%
X151000000Y-52012500D03*
%TO.P,U3,S2*%
X173000000Y-52012500D03*
%TO.P,U3,S3*%
X173000000Y-74012500D03*
%TO.P,U3,S4*%
X151000000Y-74012500D03*
%TD*%
D17*
%TO.P,U1,1,GPIO26/ADC0/A0*%
%TO.N,unconnected-(U1-GPIO26{slash}ADC0{slash}A0-Pad1)*%
X172300000Y-80665000D03*
D18*
X172300000Y-81500000D03*
D17*
%TO.P,U1,2,GPIO27/ADC1/A1*%
%TO.N,unconnected-(U1-GPIO27{slash}ADC1{slash}A1-Pad2)*%
X169760000Y-80665000D03*
D18*
X169760000Y-81500000D03*
D17*
%TO.P,U1,3,GPIO28/ADC2/A2*%
%TO.N,unconnected-(U1-GPIO28{slash}ADC2{slash}A2-Pad3)*%
X167220000Y-80665000D03*
D18*
X167220000Y-81500000D03*
D17*
%TO.P,U1,4,GPIO29/ADC3/A3*%
%TO.N,unconnected-(U1-GPIO29{slash}ADC3{slash}A3-Pad4)*%
X164680000Y-80665000D03*
D18*
X164680000Y-81500000D03*
D17*
%TO.P,U1,5,GPIO6/SDA*%
%TO.N,SDA*%
X162140000Y-80665000D03*
D18*
X162140000Y-81500000D03*
D17*
%TO.P,U1,6,GPIO7/SCL*%
%TO.N,SCL*%
X159600000Y-80665000D03*
D18*
X159600000Y-81500000D03*
D17*
%TO.P,U1,7,GPIO0/TX*%
%TO.N,ICMINT*%
X157060000Y-80665000D03*
D18*
X157060000Y-81500000D03*
%TO.P,U1,8,GPIO1/RX*%
%TO.N,unconnected-(U1-GPIO1{slash}RX-Pad8)*%
X157060000Y-96740000D03*
D19*
X157060000Y-97575000D03*
D18*
%TO.P,U1,9,GPIO2/SCK*%
%TO.N,unconnected-(U1-GPIO2{slash}SCK-Pad9)*%
X159600000Y-96740000D03*
D19*
X159600000Y-97575000D03*
D18*
%TO.P,U1,10,GPIO4/MISO*%
%TO.N,unconnected-(U1-GPIO4{slash}MISO-Pad10)*%
X162140000Y-96740000D03*
D19*
X162140000Y-97575000D03*
D18*
%TO.P,U1,11,GPIO3/MOSI*%
%TO.N,unconnected-(U1-GPIO3{slash}MOSI-Pad11)*%
X164680000Y-96740000D03*
D19*
X164680000Y-97575000D03*
D18*
%TO.P,U1,12,3V3*%
%TO.N,3.3V*%
X167220000Y-96740000D03*
D19*
X167220000Y-97575000D03*
D18*
%TO.P,U1,13,GND*%
%TO.N,GND*%
X169760000Y-96740000D03*
D19*
X169760000Y-97575000D03*
D18*
%TO.P,U1,14,VBUS*%
%TO.N,unconnected-(U1-VBUS-Pad14)*%
X172300000Y-96740000D03*
D19*
X172300000Y-97575000D03*
%TD*%
D20*
%TO.P,C1,1*%
%TO.N,3.3V*%
X152775000Y-86300000D03*
%TO.P,C1,2*%
%TO.N,GND*%
X151225000Y-86300000D03*
%TD*%
D21*
%TO.P,R1,1*%
%TO.N,SCL*%
X157300000Y-77700000D03*
%TO.P,R1,2*%
%TO.N,3.3V*%
X155650000Y-77700000D03*
%TD*%
D20*
%TO.P,C3,1*%
%TO.N,3.3V*%
X152775000Y-80200000D03*
%TO.P,C3,2*%
%TO.N,GND*%
X151225000Y-80200000D03*
%TD*%
D22*
%TO.N,3.3V*%
X155600000Y-75599000D03*
X155600000Y-76799000D03*
%TO.N,SCL*%
X159600000Y-75599000D03*
X159600000Y-77524000D03*
X153000000Y-76800000D03*
X154700000Y-78500000D03*
%TO.N,GND*%
X151900000Y-81100000D03*
X151200000Y-87600000D03*
%TO.N,ICMINT*%
X153900000Y-85200000D03*
X152600000Y-85200000D03*
%TD*%
D23*
%TO.N,3.3V*%
X155600000Y-56642500D02*
X160730000Y-51512500D01*
X155600000Y-75599000D02*
X155600000Y-56642500D01*
X155650000Y-76849000D02*
X155600000Y-76799000D01*
X155650000Y-77700000D02*
X155650000Y-76849000D01*
X160663000Y-90183000D02*
X160663000Y-78587000D01*
X167220000Y-96740000D02*
X160663000Y-90183000D01*
X160663000Y-78587000D02*
X161550000Y-77700000D01*
X160040000Y-89560000D02*
X167220000Y-96740000D01*
%TO.N,SCL*%
X159600000Y-55182500D02*
X163270000Y-51512500D01*
X159600000Y-75599000D02*
X159600000Y-55182500D01*
X159600000Y-81500000D02*
X159600000Y-77524000D01*
%TO.N,SDA*%
X163200000Y-54122500D02*
X165810000Y-51512500D01*
X163200000Y-77700000D02*
X163200000Y-54122500D01*
X150671052Y-83700000D02*
X151085000Y-83700000D01*
X150073000Y-83101948D02*
X150671052Y-83700000D01*
X151433790Y-76199000D02*
X150073000Y-77559790D01*
X161699000Y-76199000D02*
X151433790Y-76199000D01*
X150073000Y-77559790D02*
X150073000Y-83101948D01*
X163200000Y-77700000D02*
X161699000Y-76199000D01*
%TO.N,SCL*%
X150738152Y-83200000D02*
X151085000Y-83200000D01*
X150474000Y-77725890D02*
X150474000Y-82935848D01*
X153000000Y-76800000D02*
X151399890Y-76800000D01*
X151399890Y-76800000D02*
X150474000Y-77725890D01*
X150474000Y-82935848D02*
X150738152Y-83200000D01*
X156500000Y-78500000D02*
X157300000Y-77700000D01*
X154700000Y-78500000D02*
X156500000Y-78500000D01*
%TO.N,3.3V*%
X153275000Y-77700000D02*
X152775000Y-78200000D01*
X155650000Y-77700000D02*
X153275000Y-77700000D01*
X156426000Y-76924000D02*
X155650000Y-77700000D01*
X161550000Y-77700000D02*
X160774000Y-76924000D01*
X160774000Y-76924000D02*
X156426000Y-76924000D01*
%TO.N,SCL*%
X159600000Y-80000000D02*
X157300000Y-77700000D01*
X159600000Y-81500000D02*
X159600000Y-80000000D01*
%TO.N,SDA*%
X162140000Y-81500000D02*
X162140000Y-78760000D01*
X162140000Y-78760000D02*
X163200000Y-77700000D01*
%TO.N,GND*%
X151225000Y-80200000D02*
X151225000Y-82010000D01*
X151838152Y-81100000D02*
X151900000Y-81100000D01*
X152568152Y-82700000D02*
X152250000Y-82381848D01*
X151900000Y-81100000D02*
X151900000Y-80875000D01*
X151250000Y-82035000D02*
X151250000Y-81688152D01*
X151225000Y-87575000D02*
X151200000Y-87600000D01*
X152250000Y-81450000D02*
X152250000Y-82035000D01*
X151900000Y-80875000D02*
X151225000Y-80200000D01*
X152915000Y-83200000D02*
X152915000Y-82700000D01*
X151900000Y-81100000D02*
X152250000Y-81450000D01*
X152250000Y-82381848D02*
X152250000Y-82035000D01*
X151225000Y-78200000D02*
X151225000Y-80200000D01*
X151250000Y-81688152D02*
X151838152Y-81100000D01*
X151225000Y-86300000D02*
X151225000Y-87575000D01*
X152915000Y-82700000D02*
X152568152Y-82700000D01*
%TO.N,3.3V*%
X152431848Y-83700000D02*
X151431848Y-82700000D01*
X153096848Y-82035000D02*
X153511000Y-82449152D01*
X152750000Y-82035000D02*
X153096848Y-82035000D01*
X153226000Y-85849000D02*
X153226000Y-83850000D01*
X153511000Y-83450848D02*
X153261848Y-83700000D01*
X152775000Y-86300000D02*
X156780000Y-86300000D01*
X152775000Y-80200000D02*
X152775000Y-82010000D01*
X151250000Y-84775000D02*
X152775000Y-86300000D01*
X152775000Y-86300000D02*
X153226000Y-85849000D01*
X152915000Y-83700000D02*
X152431848Y-83700000D01*
X152775000Y-78200000D02*
X152775000Y-80200000D01*
X153511000Y-82449152D02*
X153511000Y-83450848D01*
X153261848Y-83700000D02*
X152915000Y-83700000D01*
X151431848Y-82700000D02*
X151085000Y-82700000D01*
X156780000Y-86300000D02*
X160040000Y-89560000D01*
X151250000Y-84365000D02*
X151250000Y-84775000D01*
X153226000Y-83850000D02*
X153076000Y-83700000D01*
%TO.N,ICMINT*%
X153900000Y-85200000D02*
X153900000Y-84660000D01*
X152750000Y-85050000D02*
X152600000Y-85200000D01*
X153900000Y-84660000D02*
X157060000Y-81500000D01*
X152750000Y-84365000D02*
X152750000Y-85050000D01*
%TD*%
M02*
