%TF.GenerationSoftware,KiCad,Pcbnew,9.0.2*%
%TF.CreationDate,2025-08-22T23:07:11-04:00*%
%TF.ProjectId,Hermes,4865726d-6573-42e6-9b69-6361645f7063,rev?*%
%TF.SameCoordinates,Original*%
%TF.FileFunction,Legend,Top*%
%TF.FilePolarity,Positive*%
%FSLAX46Y46*%
G04 Gerber Fmt 4.6, Leading zero omitted, Abs format (unit mm)*
G04 Created by KiCad (PCBNEW 9.0.2) date 2025-08-22 23:07:11*
%MOMM*%
%LPD*%
G01*
G04 APERTURE LIST*
%ADD10C,0.125000*%
%ADD11C,0.100000*%
%ADD12C,0.087500*%
%ADD13C,0.150000*%
%ADD14C,0.120000*%
%ADD15C,0.101600*%
%ADD16C,0.000000*%
%ADD17C,0.127000*%
%ADD18C,0.200000*%
%ADD19C,0.504000*%
G04 APERTURE END LIST*
D10*
X149976190Y-95665936D02*
X149928571Y-95713556D01*
X149928571Y-95713556D02*
X149785714Y-95761175D01*
X149785714Y-95761175D02*
X149690476Y-95761175D01*
X149690476Y-95761175D02*
X149547619Y-95713556D01*
X149547619Y-95713556D02*
X149452381Y-95618317D01*
X149452381Y-95618317D02*
X149404762Y-95523079D01*
X149404762Y-95523079D02*
X149357143Y-95332603D01*
X149357143Y-95332603D02*
X149357143Y-95189746D01*
X149357143Y-95189746D02*
X149404762Y-94999270D01*
X149404762Y-94999270D02*
X149452381Y-94904032D01*
X149452381Y-94904032D02*
X149547619Y-94808794D01*
X149547619Y-94808794D02*
X149690476Y-94761175D01*
X149690476Y-94761175D02*
X149785714Y-94761175D01*
X149785714Y-94761175D02*
X149928571Y-94808794D01*
X149928571Y-94808794D02*
X149976190Y-94856413D01*
X150833333Y-95094508D02*
X150833333Y-95761175D01*
X150404762Y-95094508D02*
X150404762Y-95618317D01*
X150404762Y-95618317D02*
X150452381Y-95713556D01*
X150452381Y-95713556D02*
X150547619Y-95761175D01*
X150547619Y-95761175D02*
X150690476Y-95761175D01*
X150690476Y-95761175D02*
X150785714Y-95713556D01*
X150785714Y-95713556D02*
X150833333Y-95665936D01*
X151309524Y-95761175D02*
X151309524Y-94761175D01*
X151309524Y-95142127D02*
X151404762Y-95094508D01*
X151404762Y-95094508D02*
X151595238Y-95094508D01*
X151595238Y-95094508D02*
X151690476Y-95142127D01*
X151690476Y-95142127D02*
X151738095Y-95189746D01*
X151738095Y-95189746D02*
X151785714Y-95284984D01*
X151785714Y-95284984D02*
X151785714Y-95570698D01*
X151785714Y-95570698D02*
X151738095Y-95665936D01*
X151738095Y-95665936D02*
X151690476Y-95713556D01*
X151690476Y-95713556D02*
X151595238Y-95761175D01*
X151595238Y-95761175D02*
X151404762Y-95761175D01*
X151404762Y-95761175D02*
X151309524Y-95713556D01*
X152595238Y-95713556D02*
X152500000Y-95761175D01*
X152500000Y-95761175D02*
X152309524Y-95761175D01*
X152309524Y-95761175D02*
X152214286Y-95713556D01*
X152214286Y-95713556D02*
X152166667Y-95618317D01*
X152166667Y-95618317D02*
X152166667Y-95237365D01*
X152166667Y-95237365D02*
X152214286Y-95142127D01*
X152214286Y-95142127D02*
X152309524Y-95094508D01*
X152309524Y-95094508D02*
X152500000Y-95094508D01*
X152500000Y-95094508D02*
X152595238Y-95142127D01*
X152595238Y-95142127D02*
X152642857Y-95237365D01*
X152642857Y-95237365D02*
X152642857Y-95332603D01*
X152642857Y-95332603D02*
X152166667Y-95427841D01*
X148380952Y-96371119D02*
X148952380Y-96371119D01*
X148666666Y-97371119D02*
X148666666Y-96371119D01*
X149285714Y-97371119D02*
X149285714Y-96704452D01*
X149285714Y-96894928D02*
X149333333Y-96799690D01*
X149333333Y-96799690D02*
X149380952Y-96752071D01*
X149380952Y-96752071D02*
X149476190Y-96704452D01*
X149476190Y-96704452D02*
X149571428Y-96704452D01*
X150333333Y-97371119D02*
X150333333Y-96847309D01*
X150333333Y-96847309D02*
X150285714Y-96752071D01*
X150285714Y-96752071D02*
X150190476Y-96704452D01*
X150190476Y-96704452D02*
X150000000Y-96704452D01*
X150000000Y-96704452D02*
X149904762Y-96752071D01*
X150333333Y-97323500D02*
X150238095Y-97371119D01*
X150238095Y-97371119D02*
X150000000Y-97371119D01*
X150000000Y-97371119D02*
X149904762Y-97323500D01*
X149904762Y-97323500D02*
X149857143Y-97228261D01*
X149857143Y-97228261D02*
X149857143Y-97133023D01*
X149857143Y-97133023D02*
X149904762Y-97037785D01*
X149904762Y-97037785D02*
X150000000Y-96990166D01*
X150000000Y-96990166D02*
X150238095Y-96990166D01*
X150238095Y-96990166D02*
X150333333Y-96942547D01*
X151238095Y-97323500D02*
X151142857Y-97371119D01*
X151142857Y-97371119D02*
X150952381Y-97371119D01*
X150952381Y-97371119D02*
X150857143Y-97323500D01*
X150857143Y-97323500D02*
X150809524Y-97275880D01*
X150809524Y-97275880D02*
X150761905Y-97180642D01*
X150761905Y-97180642D02*
X150761905Y-96894928D01*
X150761905Y-96894928D02*
X150809524Y-96799690D01*
X150809524Y-96799690D02*
X150857143Y-96752071D01*
X150857143Y-96752071D02*
X150952381Y-96704452D01*
X150952381Y-96704452D02*
X151142857Y-96704452D01*
X151142857Y-96704452D02*
X151238095Y-96752071D01*
X151666667Y-97371119D02*
X151666667Y-96371119D01*
X151761905Y-96990166D02*
X152047619Y-97371119D01*
X152047619Y-96704452D02*
X151666667Y-97085404D01*
X152857143Y-97323500D02*
X152761905Y-97371119D01*
X152761905Y-97371119D02*
X152571429Y-97371119D01*
X152571429Y-97371119D02*
X152476191Y-97323500D01*
X152476191Y-97323500D02*
X152428572Y-97228261D01*
X152428572Y-97228261D02*
X152428572Y-96847309D01*
X152428572Y-96847309D02*
X152476191Y-96752071D01*
X152476191Y-96752071D02*
X152571429Y-96704452D01*
X152571429Y-96704452D02*
X152761905Y-96704452D01*
X152761905Y-96704452D02*
X152857143Y-96752071D01*
X152857143Y-96752071D02*
X152904762Y-96847309D01*
X152904762Y-96847309D02*
X152904762Y-96942547D01*
X152904762Y-96942547D02*
X152428572Y-97037785D01*
X153333334Y-97371119D02*
X153333334Y-96704452D01*
X153333334Y-96894928D02*
X153380953Y-96799690D01*
X153380953Y-96799690D02*
X153428572Y-96752071D01*
X153428572Y-96752071D02*
X153523810Y-96704452D01*
X153523810Y-96704452D02*
X153619048Y-96704452D01*
D11*
X148403884Y-89172419D02*
X148403884Y-88172419D01*
X148403884Y-88648609D02*
X148975312Y-88648609D01*
X148975312Y-89172419D02*
X148975312Y-88172419D01*
X149451503Y-88648609D02*
X149784836Y-88648609D01*
X149927693Y-89172419D02*
X149451503Y-89172419D01*
X149451503Y-89172419D02*
X149451503Y-88172419D01*
X149451503Y-88172419D02*
X149927693Y-88172419D01*
X150927693Y-89172419D02*
X150594360Y-88696228D01*
X150356265Y-89172419D02*
X150356265Y-88172419D01*
X150356265Y-88172419D02*
X150737217Y-88172419D01*
X150737217Y-88172419D02*
X150832455Y-88220038D01*
X150832455Y-88220038D02*
X150880074Y-88267657D01*
X150880074Y-88267657D02*
X150927693Y-88362895D01*
X150927693Y-88362895D02*
X150927693Y-88505752D01*
X150927693Y-88505752D02*
X150880074Y-88600990D01*
X150880074Y-88600990D02*
X150832455Y-88648609D01*
X150832455Y-88648609D02*
X150737217Y-88696228D01*
X150737217Y-88696228D02*
X150356265Y-88696228D01*
X151356265Y-89172419D02*
X151356265Y-88172419D01*
X151356265Y-88172419D02*
X151689598Y-88886704D01*
X151689598Y-88886704D02*
X152022931Y-88172419D01*
X152022931Y-88172419D02*
X152022931Y-89172419D01*
X152499122Y-88648609D02*
X152832455Y-88648609D01*
X152975312Y-89172419D02*
X152499122Y-89172419D01*
X152499122Y-89172419D02*
X152499122Y-88172419D01*
X152499122Y-88172419D02*
X152975312Y-88172419D01*
X153356265Y-89124800D02*
X153499122Y-89172419D01*
X153499122Y-89172419D02*
X153737217Y-89172419D01*
X153737217Y-89172419D02*
X153832455Y-89124800D01*
X153832455Y-89124800D02*
X153880074Y-89077180D01*
X153880074Y-89077180D02*
X153927693Y-88981942D01*
X153927693Y-88981942D02*
X153927693Y-88886704D01*
X153927693Y-88886704D02*
X153880074Y-88791466D01*
X153880074Y-88791466D02*
X153832455Y-88743847D01*
X153832455Y-88743847D02*
X153737217Y-88696228D01*
X153737217Y-88696228D02*
X153546741Y-88648609D01*
X153546741Y-88648609D02*
X153451503Y-88600990D01*
X153451503Y-88600990D02*
X153403884Y-88553371D01*
X153403884Y-88553371D02*
X153356265Y-88458133D01*
X153356265Y-88458133D02*
X153356265Y-88362895D01*
X153356265Y-88362895D02*
X153403884Y-88267657D01*
X153403884Y-88267657D02*
X153451503Y-88220038D01*
X153451503Y-88220038D02*
X153546741Y-88172419D01*
X153546741Y-88172419D02*
X153784836Y-88172419D01*
X153784836Y-88172419D02*
X153927693Y-88220038D01*
D12*
X148428993Y-99143116D02*
X148521850Y-99176450D01*
X148521850Y-99176450D02*
X148552803Y-99209783D01*
X148552803Y-99209783D02*
X148583755Y-99276450D01*
X148583755Y-99276450D02*
X148583755Y-99376450D01*
X148583755Y-99376450D02*
X148552803Y-99443116D01*
X148552803Y-99443116D02*
X148521850Y-99476450D01*
X148521850Y-99476450D02*
X148459945Y-99509783D01*
X148459945Y-99509783D02*
X148212326Y-99509783D01*
X148212326Y-99509783D02*
X148212326Y-98809783D01*
X148212326Y-98809783D02*
X148428993Y-98809783D01*
X148428993Y-98809783D02*
X148490898Y-98843116D01*
X148490898Y-98843116D02*
X148521850Y-98876450D01*
X148521850Y-98876450D02*
X148552803Y-98943116D01*
X148552803Y-98943116D02*
X148552803Y-99009783D01*
X148552803Y-99009783D02*
X148521850Y-99076450D01*
X148521850Y-99076450D02*
X148490898Y-99109783D01*
X148490898Y-99109783D02*
X148428993Y-99143116D01*
X148428993Y-99143116D02*
X148212326Y-99143116D01*
X148800422Y-99043116D02*
X148955184Y-99509783D01*
X149109945Y-99043116D02*
X148955184Y-99509783D01*
X148955184Y-99509783D02*
X148893279Y-99676450D01*
X148893279Y-99676450D02*
X148862326Y-99709783D01*
X148862326Y-99709783D02*
X148800422Y-99743116D01*
X150162326Y-99509783D02*
X149852802Y-99509783D01*
X149852802Y-99509783D02*
X149852802Y-98809783D01*
X150378992Y-99509783D02*
X150378992Y-99043116D01*
X150378992Y-98809783D02*
X150348040Y-98843116D01*
X150348040Y-98843116D02*
X150378992Y-98876450D01*
X150378992Y-98876450D02*
X150409945Y-98843116D01*
X150409945Y-98843116D02*
X150378992Y-98809783D01*
X150378992Y-98809783D02*
X150378992Y-98876450D01*
X150967088Y-99509783D02*
X150967088Y-99143116D01*
X150967088Y-99143116D02*
X150936135Y-99076450D01*
X150936135Y-99076450D02*
X150874231Y-99043116D01*
X150874231Y-99043116D02*
X150750421Y-99043116D01*
X150750421Y-99043116D02*
X150688516Y-99076450D01*
X150967088Y-99476450D02*
X150905183Y-99509783D01*
X150905183Y-99509783D02*
X150750421Y-99509783D01*
X150750421Y-99509783D02*
X150688516Y-99476450D01*
X150688516Y-99476450D02*
X150657564Y-99409783D01*
X150657564Y-99409783D02*
X150657564Y-99343116D01*
X150657564Y-99343116D02*
X150688516Y-99276450D01*
X150688516Y-99276450D02*
X150750421Y-99243116D01*
X150750421Y-99243116D02*
X150905183Y-99243116D01*
X150905183Y-99243116D02*
X150967088Y-99209783D01*
X151276611Y-99509783D02*
X151276611Y-99043116D01*
X151276611Y-99109783D02*
X151307564Y-99076450D01*
X151307564Y-99076450D02*
X151369469Y-99043116D01*
X151369469Y-99043116D02*
X151462326Y-99043116D01*
X151462326Y-99043116D02*
X151524230Y-99076450D01*
X151524230Y-99076450D02*
X151555183Y-99143116D01*
X151555183Y-99143116D02*
X151555183Y-99509783D01*
X151555183Y-99143116D02*
X151586135Y-99076450D01*
X151586135Y-99076450D02*
X151648040Y-99043116D01*
X151648040Y-99043116D02*
X151740897Y-99043116D01*
X151740897Y-99043116D02*
X151802802Y-99076450D01*
X151802802Y-99076450D02*
X151833754Y-99143116D01*
X151833754Y-99143116D02*
X151833754Y-99509783D01*
X152638516Y-99509783D02*
X152638516Y-98809783D01*
X152638516Y-98809783D02*
X153009945Y-99509783D01*
X153009945Y-99509783D02*
X153009945Y-98809783D01*
X153567087Y-99476450D02*
X153505183Y-99509783D01*
X153505183Y-99509783D02*
X153381373Y-99509783D01*
X153381373Y-99509783D02*
X153319468Y-99476450D01*
X153319468Y-99476450D02*
X153288516Y-99409783D01*
X153288516Y-99409783D02*
X153288516Y-99143116D01*
X153288516Y-99143116D02*
X153319468Y-99076450D01*
X153319468Y-99076450D02*
X153381373Y-99043116D01*
X153381373Y-99043116D02*
X153505183Y-99043116D01*
X153505183Y-99043116D02*
X153567087Y-99076450D01*
X153567087Y-99076450D02*
X153598040Y-99143116D01*
X153598040Y-99143116D02*
X153598040Y-99209783D01*
X153598040Y-99209783D02*
X153288516Y-99276450D01*
X153814707Y-99043116D02*
X153938516Y-99509783D01*
X153938516Y-99509783D02*
X154062326Y-99176450D01*
X154062326Y-99176450D02*
X154186135Y-99509783D01*
X154186135Y-99509783D02*
X154309945Y-99043116D01*
X154557563Y-99509783D02*
X154557563Y-98809783D01*
X154557563Y-99076450D02*
X154619468Y-99043116D01*
X154619468Y-99043116D02*
X154743278Y-99043116D01*
X154743278Y-99043116D02*
X154805182Y-99076450D01*
X154805182Y-99076450D02*
X154836135Y-99109783D01*
X154836135Y-99109783D02*
X154867087Y-99176450D01*
X154867087Y-99176450D02*
X154867087Y-99376450D01*
X154867087Y-99376450D02*
X154836135Y-99443116D01*
X154836135Y-99443116D02*
X154805182Y-99476450D01*
X154805182Y-99476450D02*
X154743278Y-99509783D01*
X154743278Y-99509783D02*
X154619468Y-99509783D01*
X154619468Y-99509783D02*
X154557563Y-99476450D01*
X155145658Y-99509783D02*
X155145658Y-99043116D01*
X155145658Y-98809783D02*
X155114706Y-98843116D01*
X155114706Y-98843116D02*
X155145658Y-98876450D01*
X155145658Y-98876450D02*
X155176611Y-98843116D01*
X155176611Y-98843116D02*
X155145658Y-98809783D01*
X155145658Y-98809783D02*
X155145658Y-98876450D01*
X155548040Y-99509783D02*
X155486135Y-99476450D01*
X155486135Y-99476450D02*
X155455182Y-99409783D01*
X155455182Y-99409783D02*
X155455182Y-98809783D01*
X155888516Y-99509783D02*
X155826611Y-99476450D01*
X155826611Y-99476450D02*
X155795658Y-99409783D01*
X155795658Y-99409783D02*
X155795658Y-98809783D01*
D13*
X149333333Y-78559580D02*
X149285714Y-78607200D01*
X149285714Y-78607200D02*
X149142857Y-78654819D01*
X149142857Y-78654819D02*
X149047619Y-78654819D01*
X149047619Y-78654819D02*
X148904762Y-78607200D01*
X148904762Y-78607200D02*
X148809524Y-78511961D01*
X148809524Y-78511961D02*
X148761905Y-78416723D01*
X148761905Y-78416723D02*
X148714286Y-78226247D01*
X148714286Y-78226247D02*
X148714286Y-78083390D01*
X148714286Y-78083390D02*
X148761905Y-77892914D01*
X148761905Y-77892914D02*
X148809524Y-77797676D01*
X148809524Y-77797676D02*
X148904762Y-77702438D01*
X148904762Y-77702438D02*
X149047619Y-77654819D01*
X149047619Y-77654819D02*
X149142857Y-77654819D01*
X149142857Y-77654819D02*
X149285714Y-77702438D01*
X149285714Y-77702438D02*
X149333333Y-77750057D01*
X149714286Y-77750057D02*
X149761905Y-77702438D01*
X149761905Y-77702438D02*
X149857143Y-77654819D01*
X149857143Y-77654819D02*
X150095238Y-77654819D01*
X150095238Y-77654819D02*
X150190476Y-77702438D01*
X150190476Y-77702438D02*
X150238095Y-77750057D01*
X150238095Y-77750057D02*
X150285714Y-77845295D01*
X150285714Y-77845295D02*
X150285714Y-77940533D01*
X150285714Y-77940533D02*
X150238095Y-78083390D01*
X150238095Y-78083390D02*
X149666667Y-78654819D01*
X149666667Y-78654819D02*
X150285714Y-78654819D01*
D14*
X149731017Y-83741714D02*
X150119588Y-83741714D01*
X150119588Y-83741714D02*
X150165302Y-83718857D01*
X150165302Y-83718857D02*
X150188160Y-83696000D01*
X150188160Y-83696000D02*
X150211017Y-83650285D01*
X150211017Y-83650285D02*
X150211017Y-83558857D01*
X150211017Y-83558857D02*
X150188160Y-83513142D01*
X150188160Y-83513142D02*
X150165302Y-83490285D01*
X150165302Y-83490285D02*
X150119588Y-83467428D01*
X150119588Y-83467428D02*
X149731017Y-83467428D01*
X149776731Y-83261714D02*
X149753874Y-83238857D01*
X149753874Y-83238857D02*
X149731017Y-83193143D01*
X149731017Y-83193143D02*
X149731017Y-83078857D01*
X149731017Y-83078857D02*
X149753874Y-83033143D01*
X149753874Y-83033143D02*
X149776731Y-83010285D01*
X149776731Y-83010285D02*
X149822445Y-82987428D01*
X149822445Y-82987428D02*
X149868160Y-82987428D01*
X149868160Y-82987428D02*
X149936731Y-83010285D01*
X149936731Y-83010285D02*
X150211017Y-83284571D01*
X150211017Y-83284571D02*
X150211017Y-82987428D01*
D13*
X164683333Y-78174819D02*
X164350000Y-77698628D01*
X164111905Y-78174819D02*
X164111905Y-77174819D01*
X164111905Y-77174819D02*
X164492857Y-77174819D01*
X164492857Y-77174819D02*
X164588095Y-77222438D01*
X164588095Y-77222438D02*
X164635714Y-77270057D01*
X164635714Y-77270057D02*
X164683333Y-77365295D01*
X164683333Y-77365295D02*
X164683333Y-77508152D01*
X164683333Y-77508152D02*
X164635714Y-77603390D01*
X164635714Y-77603390D02*
X164588095Y-77651009D01*
X164588095Y-77651009D02*
X164492857Y-77698628D01*
X164492857Y-77698628D02*
X164111905Y-77698628D01*
X165064286Y-77270057D02*
X165111905Y-77222438D01*
X165111905Y-77222438D02*
X165207143Y-77174819D01*
X165207143Y-77174819D02*
X165445238Y-77174819D01*
X165445238Y-77174819D02*
X165540476Y-77222438D01*
X165540476Y-77222438D02*
X165588095Y-77270057D01*
X165588095Y-77270057D02*
X165635714Y-77365295D01*
X165635714Y-77365295D02*
X165635714Y-77460533D01*
X165635714Y-77460533D02*
X165588095Y-77603390D01*
X165588095Y-77603390D02*
X165016667Y-78174819D01*
X165016667Y-78174819D02*
X165635714Y-78174819D01*
X169838095Y-76454819D02*
X169838095Y-77264342D01*
X169838095Y-77264342D02*
X169885714Y-77359580D01*
X169885714Y-77359580D02*
X169933333Y-77407200D01*
X169933333Y-77407200D02*
X170028571Y-77454819D01*
X170028571Y-77454819D02*
X170219047Y-77454819D01*
X170219047Y-77454819D02*
X170314285Y-77407200D01*
X170314285Y-77407200D02*
X170361904Y-77359580D01*
X170361904Y-77359580D02*
X170409523Y-77264342D01*
X170409523Y-77264342D02*
X170409523Y-76454819D01*
X170790476Y-76454819D02*
X171409523Y-76454819D01*
X171409523Y-76454819D02*
X171076190Y-76835771D01*
X171076190Y-76835771D02*
X171219047Y-76835771D01*
X171219047Y-76835771D02*
X171314285Y-76883390D01*
X171314285Y-76883390D02*
X171361904Y-76931009D01*
X171361904Y-76931009D02*
X171409523Y-77026247D01*
X171409523Y-77026247D02*
X171409523Y-77264342D01*
X171409523Y-77264342D02*
X171361904Y-77359580D01*
X171361904Y-77359580D02*
X171314285Y-77407200D01*
X171314285Y-77407200D02*
X171219047Y-77454819D01*
X171219047Y-77454819D02*
X170933333Y-77454819D01*
X170933333Y-77454819D02*
X170838095Y-77407200D01*
X170838095Y-77407200D02*
X170790476Y-77359580D01*
D15*
X174246520Y-78916190D02*
X173732473Y-78916190D01*
X173732473Y-78916190D02*
X173671997Y-78946428D01*
X173671997Y-78946428D02*
X173641759Y-78976666D01*
X173641759Y-78976666D02*
X173611520Y-79037142D01*
X173611520Y-79037142D02*
X173611520Y-79158095D01*
X173611520Y-79158095D02*
X173641759Y-79218571D01*
X173641759Y-79218571D02*
X173671997Y-79248809D01*
X173671997Y-79248809D02*
X173732473Y-79279047D01*
X173732473Y-79279047D02*
X174246520Y-79279047D01*
X173611520Y-79914047D02*
X173611520Y-79551190D01*
X173611520Y-79732618D02*
X174246520Y-79732618D01*
X174246520Y-79732618D02*
X174155806Y-79672142D01*
X174155806Y-79672142D02*
X174095330Y-79611666D01*
X174095330Y-79611666D02*
X174065092Y-79551190D01*
D13*
X149333333Y-86659580D02*
X149285714Y-86707200D01*
X149285714Y-86707200D02*
X149142857Y-86754819D01*
X149142857Y-86754819D02*
X149047619Y-86754819D01*
X149047619Y-86754819D02*
X148904762Y-86707200D01*
X148904762Y-86707200D02*
X148809524Y-86611961D01*
X148809524Y-86611961D02*
X148761905Y-86516723D01*
X148761905Y-86516723D02*
X148714286Y-86326247D01*
X148714286Y-86326247D02*
X148714286Y-86183390D01*
X148714286Y-86183390D02*
X148761905Y-85992914D01*
X148761905Y-85992914D02*
X148809524Y-85897676D01*
X148809524Y-85897676D02*
X148904762Y-85802438D01*
X148904762Y-85802438D02*
X149047619Y-85754819D01*
X149047619Y-85754819D02*
X149142857Y-85754819D01*
X149142857Y-85754819D02*
X149285714Y-85802438D01*
X149285714Y-85802438D02*
X149333333Y-85850057D01*
X150285714Y-86754819D02*
X149714286Y-86754819D01*
X150000000Y-86754819D02*
X150000000Y-85754819D01*
X150000000Y-85754819D02*
X149904762Y-85897676D01*
X149904762Y-85897676D02*
X149809524Y-85992914D01*
X149809524Y-85992914D02*
X149714286Y-86040533D01*
X158833333Y-78134819D02*
X158500000Y-77658628D01*
X158261905Y-78134819D02*
X158261905Y-77134819D01*
X158261905Y-77134819D02*
X158642857Y-77134819D01*
X158642857Y-77134819D02*
X158738095Y-77182438D01*
X158738095Y-77182438D02*
X158785714Y-77230057D01*
X158785714Y-77230057D02*
X158833333Y-77325295D01*
X158833333Y-77325295D02*
X158833333Y-77468152D01*
X158833333Y-77468152D02*
X158785714Y-77563390D01*
X158785714Y-77563390D02*
X158738095Y-77611009D01*
X158738095Y-77611009D02*
X158642857Y-77658628D01*
X158642857Y-77658628D02*
X158261905Y-77658628D01*
X159785714Y-78134819D02*
X159214286Y-78134819D01*
X159500000Y-78134819D02*
X159500000Y-77134819D01*
X159500000Y-77134819D02*
X159404762Y-77277676D01*
X159404762Y-77277676D02*
X159309524Y-77372914D01*
X159309524Y-77372914D02*
X159214286Y-77420533D01*
X149333333Y-80559580D02*
X149285714Y-80607200D01*
X149285714Y-80607200D02*
X149142857Y-80654819D01*
X149142857Y-80654819D02*
X149047619Y-80654819D01*
X149047619Y-80654819D02*
X148904762Y-80607200D01*
X148904762Y-80607200D02*
X148809524Y-80511961D01*
X148809524Y-80511961D02*
X148761905Y-80416723D01*
X148761905Y-80416723D02*
X148714286Y-80226247D01*
X148714286Y-80226247D02*
X148714286Y-80083390D01*
X148714286Y-80083390D02*
X148761905Y-79892914D01*
X148761905Y-79892914D02*
X148809524Y-79797676D01*
X148809524Y-79797676D02*
X148904762Y-79702438D01*
X148904762Y-79702438D02*
X149047619Y-79654819D01*
X149047619Y-79654819D02*
X149142857Y-79654819D01*
X149142857Y-79654819D02*
X149285714Y-79702438D01*
X149285714Y-79702438D02*
X149333333Y-79750057D01*
X149666667Y-79654819D02*
X150285714Y-79654819D01*
X150285714Y-79654819D02*
X149952381Y-80035771D01*
X149952381Y-80035771D02*
X150095238Y-80035771D01*
X150095238Y-80035771D02*
X150190476Y-80083390D01*
X150190476Y-80083390D02*
X150238095Y-80131009D01*
X150238095Y-80131009D02*
X150285714Y-80226247D01*
X150285714Y-80226247D02*
X150285714Y-80464342D01*
X150285714Y-80464342D02*
X150238095Y-80559580D01*
X150238095Y-80559580D02*
X150190476Y-80607200D01*
X150190476Y-80607200D02*
X150095238Y-80654819D01*
X150095238Y-80654819D02*
X149809524Y-80654819D01*
X149809524Y-80654819D02*
X149714286Y-80607200D01*
X149714286Y-80607200D02*
X149666667Y-80559580D01*
D16*
%TO.C,G\u002A\u002A\u002A*%
G36*
X151149009Y-92065580D02*
G01*
X151218718Y-92069552D01*
X151278599Y-92076940D01*
X151310000Y-92083725D01*
X151435993Y-92128451D01*
X151551794Y-92189813D01*
X151656147Y-92266557D01*
X151747797Y-92357427D01*
X151825489Y-92461168D01*
X151887969Y-92576525D01*
X151933981Y-92702243D01*
X151936172Y-92710023D01*
X151945851Y-92759977D01*
X151952120Y-92823730D01*
X151954976Y-92895377D01*
X151954419Y-92969009D01*
X151950447Y-93038718D01*
X151943059Y-93098599D01*
X151936274Y-93130000D01*
X151891897Y-93254887D01*
X151830903Y-93370109D01*
X151754708Y-93474240D01*
X151664728Y-93565858D01*
X151562379Y-93643540D01*
X151449076Y-93705863D01*
X151326234Y-93751403D01*
X151315000Y-93754563D01*
X151280323Y-93761303D01*
X151231462Y-93767221D01*
X151174120Y-93772000D01*
X151114000Y-93775321D01*
X151056806Y-93776867D01*
X151008242Y-93776319D01*
X150975000Y-93773523D01*
X150877360Y-93750723D01*
X150776072Y-93714360D01*
X150678567Y-93667521D01*
X150596564Y-93616383D01*
X150500439Y-93535535D01*
X150416519Y-93439993D01*
X150346313Y-93331959D01*
X150291326Y-93213636D01*
X150263827Y-93129976D01*
X150254148Y-93080022D01*
X150247879Y-93016269D01*
X150245023Y-92944622D01*
X150245514Y-92879709D01*
X150315096Y-92879709D01*
X150315495Y-92970354D01*
X150323920Y-93056631D01*
X150337962Y-93122991D01*
X150382079Y-93242970D01*
X150442232Y-93352099D01*
X150517084Y-93449165D01*
X150605300Y-93532949D01*
X150705543Y-93602239D01*
X150816477Y-93655816D01*
X150936767Y-93692467D01*
X150971639Y-93699476D01*
X151025829Y-93705143D01*
X151092205Y-93706032D01*
X151163637Y-93702552D01*
X151232995Y-93695111D01*
X151293149Y-93684117D01*
X151308286Y-93680202D01*
X151426618Y-93636718D01*
X151534663Y-93576685D01*
X151631096Y-93501429D01*
X151714594Y-93412280D01*
X151783831Y-93310566D01*
X151837485Y-93197617D01*
X151861648Y-93125000D01*
X151877281Y-93047882D01*
X151884903Y-92960290D01*
X151884504Y-92869645D01*
X151876079Y-92783368D01*
X151862037Y-92717008D01*
X151817725Y-92596329D01*
X151757343Y-92486779D01*
X151682020Y-92389488D01*
X151592881Y-92305588D01*
X151491056Y-92236208D01*
X151377671Y-92182480D01*
X151305000Y-92158351D01*
X151227882Y-92142718D01*
X151140290Y-92135096D01*
X151049645Y-92135495D01*
X150963368Y-92143920D01*
X150897008Y-92157962D01*
X150776329Y-92202274D01*
X150666779Y-92262656D01*
X150569488Y-92337979D01*
X150485588Y-92427118D01*
X150416208Y-92528943D01*
X150362480Y-92642328D01*
X150338351Y-92715000D01*
X150322718Y-92792117D01*
X150315096Y-92879709D01*
X150245514Y-92879709D01*
X150245580Y-92870990D01*
X150249552Y-92801281D01*
X150256940Y-92741400D01*
X150263725Y-92710000D01*
X150308451Y-92584006D01*
X150369813Y-92468205D01*
X150446557Y-92363852D01*
X150537427Y-92272202D01*
X150641168Y-92194510D01*
X150756525Y-92132030D01*
X150882243Y-92086018D01*
X150890023Y-92083827D01*
X150939977Y-92074148D01*
X151003730Y-92067879D01*
X151075377Y-92065023D01*
X151149009Y-92065580D01*
G37*
G36*
X153600000Y-91900000D02*
G01*
X153600000Y-94400000D01*
X151100000Y-94400000D01*
X148600000Y-94400000D01*
X148600000Y-94350000D01*
X148650000Y-94350000D01*
X151100000Y-94350000D01*
X153550000Y-94350000D01*
X153550000Y-92475000D01*
X153550000Y-90600000D01*
X153102235Y-90600000D01*
X152654471Y-90600000D01*
X152432359Y-90717500D01*
X152210247Y-90835000D01*
X152210123Y-90882821D01*
X152201381Y-90945589D01*
X152177462Y-90999446D01*
X152141306Y-91043070D01*
X152095856Y-91075138D01*
X152044053Y-91094326D01*
X151988837Y-91099312D01*
X151933151Y-91088774D01*
X151879936Y-91061388D01*
X151856239Y-91041969D01*
X151818122Y-90993851D01*
X151796788Y-90939486D01*
X151792205Y-90889386D01*
X151885000Y-90889386D01*
X151893716Y-90938015D01*
X151918825Y-90976567D01*
X151955000Y-91000971D01*
X151993159Y-91007882D01*
X152035205Y-91000228D01*
X152073520Y-90979804D01*
X152084066Y-90970549D01*
X152103683Y-90947474D01*
X152112761Y-90924066D01*
X152114999Y-90890693D01*
X152115000Y-90890000D01*
X152112904Y-90856621D01*
X152104004Y-90833169D01*
X152084383Y-90809781D01*
X152082307Y-90807692D01*
X152058514Y-90787079D01*
X152035419Y-90777491D01*
X152003159Y-90775008D01*
X152000000Y-90775000D01*
X151966621Y-90777095D01*
X151943169Y-90785995D01*
X151919781Y-90805616D01*
X151917692Y-90807692D01*
X151896929Y-90831734D01*
X151887370Y-90855139D01*
X151885001Y-90887933D01*
X151885000Y-90889386D01*
X151792205Y-90889386D01*
X151791565Y-90882392D01*
X151801784Y-90826092D01*
X151826774Y-90774105D01*
X151865866Y-90729952D01*
X151918390Y-90697154D01*
X151922178Y-90695530D01*
X151977110Y-90682088D01*
X152035022Y-90684001D01*
X152089678Y-90700257D01*
X152134839Y-90729848D01*
X152134967Y-90729969D01*
X152141463Y-90735444D01*
X152148782Y-90738496D01*
X152159074Y-90738238D01*
X152174492Y-90733783D01*
X152197186Y-90724242D01*
X152229307Y-90708728D01*
X152273007Y-90686353D01*
X152330438Y-90656229D01*
X152390103Y-90624690D01*
X152625000Y-90500397D01*
X153087500Y-90500198D01*
X153550000Y-90500000D01*
X153550000Y-90325000D01*
X153550000Y-90150000D01*
X152932122Y-90150000D01*
X152314245Y-90150000D01*
X152090597Y-90268794D01*
X151866950Y-90387589D01*
X151865975Y-90451294D01*
X151857336Y-90517222D01*
X151833300Y-90570659D01*
X151793357Y-90612465D01*
X151758181Y-90634033D01*
X151700961Y-90655227D01*
X151647342Y-90658314D01*
X151592388Y-90643247D01*
X151568985Y-90632156D01*
X151533085Y-90610158D01*
X151508252Y-90584808D01*
X151487843Y-90551014D01*
X151465552Y-90493455D01*
X151462551Y-90450031D01*
X151550000Y-90450031D01*
X151557974Y-90487131D01*
X151578358Y-90524055D01*
X151605840Y-90551353D01*
X151607556Y-90552452D01*
X151646303Y-90567829D01*
X151686744Y-90565162D01*
X151713928Y-90554838D01*
X151745610Y-90531516D01*
X151769318Y-90498726D01*
X151779865Y-90463920D01*
X151780000Y-90459968D01*
X151771628Y-90420593D01*
X151749577Y-90384336D01*
X151718442Y-90356207D01*
X151682817Y-90341216D01*
X151669968Y-90340000D01*
X151630593Y-90348371D01*
X151594336Y-90370422D01*
X151566207Y-90401557D01*
X151551216Y-90437182D01*
X151550000Y-90450031D01*
X151462551Y-90450031D01*
X151461755Y-90438519D01*
X151476344Y-90381492D01*
X151483491Y-90364972D01*
X151517566Y-90313170D01*
X151562912Y-90276521D01*
X151616734Y-90255964D01*
X151676233Y-90252437D01*
X151738613Y-90266880D01*
X151755184Y-90273798D01*
X151812742Y-90300149D01*
X152049858Y-90175074D01*
X152286974Y-90050000D01*
X152918487Y-90050000D01*
X153550000Y-90050000D01*
X153550000Y-89750000D01*
X153550000Y-89450000D01*
X151100000Y-89450000D01*
X148650000Y-89450000D01*
X148650000Y-91900000D01*
X148650000Y-94350000D01*
X148600000Y-94350000D01*
X148600000Y-91900000D01*
X148600000Y-89400000D01*
X151100000Y-89400000D01*
X153600000Y-89400000D01*
X153600000Y-91900000D01*
G37*
G36*
X153238442Y-91175199D02*
G01*
X153245216Y-91180179D01*
X153267184Y-91206359D01*
X153283569Y-91245109D01*
X153295318Y-91299183D01*
X153300616Y-91340881D01*
X153304442Y-91410441D01*
X153302779Y-91484458D01*
X153296171Y-91556758D01*
X153285166Y-91621166D01*
X153271708Y-91667925D01*
X153253181Y-91716685D01*
X153276590Y-91743900D01*
X153292695Y-91769876D01*
X153299965Y-91795929D01*
X153300000Y-91797400D01*
X153291741Y-91837420D01*
X153268538Y-91883325D01*
X153232747Y-91930967D01*
X153210939Y-91954074D01*
X153161359Y-92002909D01*
X153193179Y-92024277D01*
X153220023Y-92051337D01*
X153228802Y-92082775D01*
X153220519Y-92116930D01*
X153196175Y-92152138D01*
X153156772Y-92186735D01*
X153103310Y-92219059D01*
X153065404Y-92236463D01*
X153039104Y-92248578D01*
X153027303Y-92259672D01*
X153025617Y-92275316D01*
X153026980Y-92285266D01*
X153023023Y-92320269D01*
X153000454Y-92353131D01*
X152960629Y-92382859D01*
X152904904Y-92408460D01*
X152834634Y-92428942D01*
X152829059Y-92430190D01*
X152796224Y-92438647D01*
X152777265Y-92448296D01*
X152766247Y-92463080D01*
X152761275Y-92475237D01*
X152738957Y-92508410D01*
X152714457Y-92524587D01*
X152663771Y-92542588D01*
X152597687Y-92556872D01*
X152520535Y-92566994D01*
X152436647Y-92572512D01*
X152350353Y-92572983D01*
X152278847Y-92569127D01*
X152197822Y-92556948D01*
X152132143Y-92534343D01*
X152079128Y-92499541D01*
X152036092Y-92450773D01*
X152000354Y-92386268D01*
X151999782Y-92385000D01*
X151978380Y-92332325D01*
X151967198Y-92289536D01*
X151966519Y-92276279D01*
X152042082Y-92276279D01*
X152057272Y-92335441D01*
X152070281Y-92365589D01*
X152100957Y-92417839D01*
X152137255Y-92454082D01*
X152183745Y-92478283D01*
X152209387Y-92486350D01*
X152241743Y-92491858D01*
X152288972Y-92495829D01*
X152346007Y-92498227D01*
X152407776Y-92499015D01*
X152469212Y-92498156D01*
X152525245Y-92495615D01*
X152570805Y-92491354D01*
X152585461Y-92489068D01*
X152637311Y-92477284D01*
X152672005Y-92463472D01*
X152692385Y-92445907D01*
X152701293Y-92422863D01*
X152701860Y-92418386D01*
X152704108Y-92403380D01*
X152709827Y-92392906D01*
X152722819Y-92384783D01*
X152746887Y-92376826D01*
X152785832Y-92366855D01*
X152795931Y-92364380D01*
X152860681Y-92346634D01*
X152910119Y-92328998D01*
X152942562Y-92312146D01*
X152954571Y-92300693D01*
X152950270Y-92290422D01*
X152933083Y-92273706D01*
X152914088Y-92259373D01*
X152867766Y-92227502D01*
X152951383Y-92200433D01*
X153026741Y-92173518D01*
X153084324Y-92147084D01*
X153126301Y-92120076D01*
X153138481Y-92109567D01*
X153152520Y-92090551D01*
X153147664Y-92077777D01*
X153123847Y-92071177D01*
X153102756Y-92070153D01*
X153077611Y-92065986D01*
X153060850Y-92050081D01*
X153054247Y-92038543D01*
X153044777Y-92018144D01*
X153045445Y-92005095D01*
X153058571Y-91991772D01*
X153071490Y-91981904D01*
X153100912Y-91957448D01*
X153133941Y-91926381D01*
X153166765Y-91892753D01*
X153195573Y-91860613D01*
X153216551Y-91834009D01*
X153225550Y-91818264D01*
X153225400Y-91794892D01*
X153217817Y-91785761D01*
X153202971Y-91769523D01*
X153187801Y-91745571D01*
X153187779Y-91745529D01*
X153178686Y-91724536D01*
X153179009Y-91707208D01*
X153189235Y-91683733D01*
X153191017Y-91680293D01*
X153208168Y-91637697D01*
X153220094Y-91584409D01*
X153227212Y-91517613D01*
X153229942Y-91434498D01*
X153230000Y-91418387D01*
X153230000Y-91299504D01*
X153127500Y-91403115D01*
X153036588Y-91489353D01*
X152949981Y-91559179D01*
X152864477Y-91614719D01*
X152776873Y-91658099D01*
X152701123Y-91686120D01*
X152608973Y-91720305D01*
X152516212Y-91763328D01*
X152425338Y-91813359D01*
X152338850Y-91868571D01*
X152259247Y-91927136D01*
X152189027Y-91987225D01*
X152130689Y-92047010D01*
X152086732Y-92104663D01*
X152061074Y-92154423D01*
X152043443Y-92218108D01*
X152042082Y-92276279D01*
X151966519Y-92276279D01*
X151965173Y-92250003D01*
X151971231Y-92207151D01*
X151988554Y-92144034D01*
X152014063Y-92087364D01*
X152050470Y-92032729D01*
X152100486Y-91975720D01*
X152133961Y-91942536D01*
X152256071Y-91838182D01*
X152387952Y-91749754D01*
X152531742Y-91675963D01*
X152657870Y-91626222D01*
X152716049Y-91605421D01*
X152760814Y-91587683D01*
X152797889Y-91570258D01*
X152832996Y-91550397D01*
X152871860Y-91525350D01*
X152881852Y-91518621D01*
X152985692Y-91438956D01*
X153085280Y-91344541D01*
X153175356Y-91240603D01*
X153213385Y-91189270D01*
X153226664Y-91174331D01*
X153238442Y-91175199D01*
G37*
G36*
X148980138Y-91177719D02*
G01*
X148988871Y-91189895D01*
X149025476Y-91240476D01*
X149071957Y-91297035D01*
X149122574Y-91353051D01*
X149171587Y-91402004D01*
X149190964Y-91419452D01*
X149268950Y-91483292D01*
X149340088Y-91533521D01*
X149408997Y-91572911D01*
X149480299Y-91604235D01*
X149525000Y-91619939D01*
X149662512Y-91673354D01*
X149797329Y-91742647D01*
X149924463Y-91824842D01*
X150038926Y-91916963D01*
X150067684Y-91943801D01*
X150127642Y-92006290D01*
X150172028Y-92064033D01*
X150203261Y-92121020D01*
X150223760Y-92181240D01*
X150230448Y-92212197D01*
X150235243Y-92244672D01*
X150235124Y-92271349D01*
X150229195Y-92300247D01*
X150216561Y-92339385D01*
X150216091Y-92340738D01*
X150187479Y-92410576D01*
X150154120Y-92465345D01*
X150113399Y-92506797D01*
X150062698Y-92536685D01*
X149999402Y-92556763D01*
X149920894Y-92568783D01*
X149870000Y-92572610D01*
X149823816Y-92573702D01*
X149768037Y-92572919D01*
X149712962Y-92570448D01*
X149700000Y-92569549D01*
X149611477Y-92559870D01*
X149541718Y-92545517D01*
X149489975Y-92526221D01*
X149455503Y-92501711D01*
X149438724Y-92475237D01*
X149429573Y-92455792D01*
X149415843Y-92443716D01*
X149391601Y-92435068D01*
X149370940Y-92430190D01*
X149299174Y-92410025D01*
X149242364Y-92384785D01*
X149201732Y-92355377D01*
X149178504Y-92322705D01*
X149173904Y-92287676D01*
X149174392Y-92284720D01*
X149176646Y-92264773D01*
X149170883Y-92252574D01*
X149152771Y-92242533D01*
X149136828Y-92236229D01*
X149077893Y-92208803D01*
X149030691Y-92177027D01*
X148996383Y-92142849D01*
X148976130Y-92108220D01*
X148971091Y-92075090D01*
X148982428Y-92045409D01*
X149009440Y-92022173D01*
X149038162Y-92005688D01*
X148982717Y-91945801D01*
X148938034Y-91892085D01*
X148910852Y-91845708D01*
X148900716Y-91805192D01*
X148907173Y-91769061D01*
X148921288Y-91745633D01*
X148933239Y-91728949D01*
X148937509Y-91714545D01*
X148934533Y-91695117D01*
X148925956Y-91667108D01*
X148911423Y-91607486D01*
X148901159Y-91535458D01*
X148895751Y-91458275D01*
X148895769Y-91417007D01*
X148970034Y-91417007D01*
X148972196Y-91503705D01*
X148979046Y-91573905D01*
X148991051Y-91630657D01*
X149008677Y-91677012D01*
X149010239Y-91680156D01*
X149021106Y-91704809D01*
X149022040Y-91722467D01*
X149013382Y-91743297D01*
X149012415Y-91745156D01*
X148997453Y-91769031D01*
X148983059Y-91785117D01*
X148982818Y-91785297D01*
X148974087Y-91798145D01*
X148977814Y-91819133D01*
X148979135Y-91822726D01*
X148992411Y-91844776D01*
X149017085Y-91875271D01*
X149049133Y-91909925D01*
X149084527Y-91944451D01*
X149119244Y-91974563D01*
X149128509Y-91981781D01*
X149149229Y-91998442D01*
X149156271Y-92010715D01*
X149151951Y-92026224D01*
X149145752Y-92038543D01*
X149129966Y-92061048D01*
X149109388Y-92069473D01*
X149097243Y-92070153D01*
X149063051Y-92073387D01*
X149047805Y-92082772D01*
X149051375Y-92098454D01*
X149061518Y-92110016D01*
X149085968Y-92127886D01*
X149123842Y-92149160D01*
X149169508Y-92171170D01*
X149217332Y-92191254D01*
X149261682Y-92206745D01*
X149272500Y-92209839D01*
X149299892Y-92218556D01*
X149317056Y-92226631D01*
X149320000Y-92229970D01*
X149312363Y-92239254D01*
X149292866Y-92254823D01*
X149278120Y-92265056D01*
X149236240Y-92292771D01*
X149259324Y-92311463D01*
X149282593Y-92324597D01*
X149319820Y-92339453D01*
X149365286Y-92354157D01*
X149413275Y-92366837D01*
X149452419Y-92374730D01*
X149478817Y-92381951D01*
X149491798Y-92395369D01*
X149495754Y-92407938D01*
X149503309Y-92438550D01*
X149511385Y-92455618D01*
X149523957Y-92465297D01*
X149536139Y-92470433D01*
X149572903Y-92480135D01*
X149624785Y-92488119D01*
X149686957Y-92494180D01*
X149754595Y-92498114D01*
X149822871Y-92499716D01*
X149886961Y-92498782D01*
X149942038Y-92495105D01*
X149980000Y-92489264D01*
X150037030Y-92469572D01*
X150081240Y-92437854D01*
X150116492Y-92390936D01*
X150129352Y-92366357D01*
X150153250Y-92299029D01*
X150158843Y-92234134D01*
X150145799Y-92170233D01*
X150113791Y-92105886D01*
X150062488Y-92039654D01*
X150051933Y-92028220D01*
X149957293Y-91939872D01*
X149847076Y-91857771D01*
X149725356Y-91784447D01*
X149596209Y-91722433D01*
X149501974Y-91686566D01*
X149375142Y-91633218D01*
X149254271Y-91561091D01*
X149139087Y-91469996D01*
X149040292Y-91371895D01*
X148970068Y-91295000D01*
X148970034Y-91417007D01*
X148895769Y-91417007D01*
X148895783Y-91383190D01*
X148899250Y-91336693D01*
X148909130Y-91273226D01*
X148922931Y-91226549D01*
X148941732Y-91193655D01*
X148955712Y-91179409D01*
X148969219Y-91171480D01*
X148980138Y-91177719D01*
G37*
D14*
%TO.C,C2*%
X151859420Y-77690000D02*
X152140580Y-77690000D01*
X151859420Y-78710000D02*
X152140580Y-78710000D01*
D17*
%TO.C,U2*%
X150750000Y-82210000D02*
X150750000Y-81700000D01*
X150750000Y-84700000D02*
X150750000Y-84190000D01*
X153250000Y-81700000D02*
X153250000Y-82210000D01*
X153250000Y-84700000D02*
X153250000Y-84190000D01*
D18*
X151300000Y-85200000D02*
G75*
G02*
X151100000Y-85200000I-100000J0D01*
G01*
X151100000Y-85200000D02*
G75*
G02*
X151300000Y-85200000I100000J0D01*
G01*
D14*
%TO.C,R2*%
X162137742Y-78222500D02*
X162612258Y-78222500D01*
X162137742Y-77177500D02*
X162612258Y-77177500D01*
D17*
%TO.C,U3*%
X149000000Y-50012500D02*
X175000000Y-50012500D01*
X149000000Y-76012500D02*
X149000000Y-50012500D01*
X155000000Y-74012500D02*
X155000000Y-76012500D01*
X155000000Y-76012500D02*
X149000000Y-76012500D01*
X169000000Y-74012500D02*
X155000000Y-74012500D01*
X169000000Y-76012500D02*
X169000000Y-74012500D01*
X175000000Y-50012500D02*
X175000000Y-76012500D01*
X175000000Y-76012500D02*
X169000000Y-76012500D01*
D18*
X158100000Y-49512500D02*
G75*
G02*
X157900000Y-49512500I-100000J0D01*
G01*
X157900000Y-49512500D02*
G75*
G02*
X158100000Y-49512500I100000J0D01*
G01*
D17*
%TO.C,U1*%
X154266000Y-82135000D02*
X154266000Y-96105000D01*
X156171000Y-80230000D02*
X173316000Y-80230000D01*
X156171000Y-98010000D02*
X173316000Y-98010000D01*
X175221000Y-84625000D02*
X176131272Y-84628728D01*
D11*
X175221000Y-96105000D02*
X175221000Y-82135000D01*
D17*
X175221000Y-96105000D02*
X175221000Y-82135000D01*
X176131000Y-93624000D02*
X175221000Y-93624000D01*
X176631000Y-85128728D02*
X176631000Y-93124000D01*
X154266000Y-82135000D02*
G75*
G02*
X156171000Y-80230000I1905001J-1D01*
G01*
X156171000Y-98010000D02*
G75*
G02*
X154266000Y-96105000I0J1905000D01*
G01*
X173316000Y-80230000D02*
G75*
G02*
X175221000Y-82135000I-1J-1905001D01*
G01*
X175221000Y-96105000D02*
G75*
G02*
X173316000Y-98010000I-1905000J0D01*
G01*
X176131272Y-84628728D02*
G75*
G02*
X176630999Y-85128728I-291J-500018D01*
G01*
X176631000Y-93124000D02*
G75*
G02*
X176131000Y-93624000I-500000J0D01*
G01*
D19*
X174352000Y-81313000D02*
G75*
G02*
X173848000Y-81313000I-252000J0D01*
G01*
X173848000Y-81313000D02*
G75*
G02*
X174352000Y-81313000I252000J0D01*
G01*
X175232000Y-80170000D02*
G75*
G02*
X174728000Y-80170000I-252000J0D01*
G01*
X174728000Y-80170000D02*
G75*
G02*
X175232000Y-80170000I252000J0D01*
G01*
D14*
%TO.C,C1*%
X152140580Y-85790000D02*
X151859420Y-85790000D01*
X152140580Y-86810000D02*
X151859420Y-86810000D01*
%TO.C,R1*%
X156712258Y-77177500D02*
X156237742Y-77177500D01*
X156712258Y-78222500D02*
X156237742Y-78222500D01*
%TO.C,C3*%
X152140580Y-79690000D02*
X151859420Y-79690000D01*
X152140580Y-80710000D02*
X151859420Y-80710000D01*
%TD*%
M02*
